<?xml version="1.0" encoding="utf-8"?>
<!-- Generator: Adobe Illustrator 25.1.0, SVG Export Plug-In . SVG Version: 6.00 Build 0)  -->
<svg version="1.1" id="Слой_1" xmlns="http://www.w3.org/2000/svg" xmlns:xlink="http://www.w3.org/1999/xlink" x="0px" y="0px"
	 viewBox="0 0 512 408" style="enable-background:new 0 0 512 408;" xml:space="preserve">
<style type="text/css">
	.st0{fill:url(#SVGID_1_);}
	.st1{fill:#FFFFFF;}
</style>
<linearGradient id="SVGID_1_" gradientUnits="userSpaceOnUse" x1="35.2959" y1="1049.1949" x2="508.7033" y2="673.4041" gradientTransform="matrix(1 0 0 1 0 -670)">
	<stop  offset="0" style="stop-color:#3C64F4"/>
	<stop  offset="1" style="stop-color:#7590F6"/>
</linearGradient>
<path class="st0" d="M455.3,343.4v-6.7V71.3v-6.7c0-3.9,0.1-7.7,0.2-11.3c1-27.7-20.6-53.3-49.9-53.3H106.3
	C77.1,0,55.5,25.6,56.4,53.3c0.1,3.6,0.2,7.4,0.2,11.3l0,0v10.3v258.2v13.2c0,2.9-0.1,5.7-0.2,8.4c-1,27.7,20.6,53.3,49.9,53.3
	h299.4c29.2,0,50.8-25.6,49.9-53.3C455.4,351.1,455.3,347.3,455.3,343.4z"/>
<g>
	<path class="st1" d="M374.5,141.6c-0.2,30.9-23.4,53-56.4,53.6c-32.9,0.6-57.2,19.2-64,49.8c-1.7,7.9-1.4,16.2-2.1,24.4
		c-1.9,22.4-13,38.7-33.9,47c-21.4,8.5-41.4,4.5-57.9-11.4c-16.2-15.6-20.6-35.3-13.3-56.4c7.7-22.2,24.4-33.9,47.7-36.3
		c30.2-3.1,54.8-15.2,66.5-44.8c3.7-9.4,4.4-20.2,5.3-30.5c2.7-29.6,26.9-51.1,56.8-49.8C352.1,88.5,374.7,112.5,374.5,141.6z"/>
	<path class="st1" d="M266.4,266.1c0.1-30.1,23.9-53.7,54-53.8c30.4,0,54.4,24.4,54,54.9c-0.4,29.8-24.9,53.8-54.6,53.4
		C289.8,320.2,266.3,296.2,266.4,266.1z"/>
	<path class="st1" d="M198.2,195.2c-30.2,0.1-54.1-23.4-54.3-53.5c-0.2-30,23.4-54.2,53.3-54.5c30.5-0.3,55,23.8,54.9,54.1
		C252,171.3,228.3,195.1,198.2,195.2z"/>
</g>
</svg>
