<?xml version="1.0" encoding="utf-8"?>
<!-- Generator: Adobe Illustrator 25.1.0, SVG Export Plug-In . SVG Version: 6.00 Build 0)  -->
<svg version="1.1" id="Layer_1" xmlns="http://www.w3.org/2000/svg" xmlns:xlink="http://www.w3.org/1999/xlink" x="0px" y="0px"
	 viewBox="0 0 3352 2766.6" style="enable-background:new 0 0 3352 2766.6;" xml:space="preserve">
<style type="text/css">
	.st0{fill:#FFFFFF;}
	.st1{fill:#000072;}
	.st2{opacity:0.3;}
	.st3{opacity:0.5;}
	.st4{fill:#FF0031;}
	.st5{fill:#FFD008;}
</style>
<g>
	<g>
		<g>
			<path class="st0" d="M1188.1,1134.6c-1.7,113.7-36.3,256.6-212.5,184.6C698.4,1206.1,606.1,981,606.1,981
				c-90.5-41.5-123.8-131.5-123.8-131.5s-20.3,7.3-41.7-0.8c-15.4-5.8-31.2-19.5-40.5-49.5c-22.4-71.8,23.9-97.4,23.9-97.4
				c7.2-69.5,50.3-60.7,50.3-60.7c-41.5-142.9,11-149.3,29.6-144.5c24.7,6.4,53.5,97.4,53.5,97.4s-10.4-89.4,18.4-115.8
				c14.4-13.2,26.3-11.4,34.7-6.3c7.8,4.7,13,12.8,15.2,21.7c13.5,53.6,31.9,102.4,51.2,144.5c10.7,23.4,21.7,44.8,32.1,63.6
				c32.5,58.7,60,93.5,60,93.5c137.9,108.7,248.9,164.1,320.5,191.9c35.1,13.6,63,39.1,80,70.9
				C1181.9,1081.1,1188.6,1107.3,1188.1,1134.6z"/>
		</g>
		<g>
			<path class="st1" d="M1060.6,1356c-27.2,0-57.8-6.9-91.5-20.7C711,1230,610.4,1032.5,592.8,993.9c-71-35-107.4-96.9-120.7-124.5
				c-11.5,1.3-27.8,0.9-44.3-7.3c-20.7-10.3-35.6-29.7-44.3-57.7c-18.5-59.3,4.6-96.7,24.3-112.5c4.1-26.9,14.1-46.4,29.8-57.9
				c5-3.7,10-6.1,14.7-7.7c-16.9-66.7-14.3-110.4,7.9-133.3c14.6-15.1,34.4-16.7,48-13.2c12.3,3.2,23.7,16,33.6,32.6
				c3.6-18.7,10.3-36.1,22.2-47c17.5-16.1,37.8-19.1,55.5-8.3c11.4,6.9,19.5,18.4,23,32.3c40.2,160.2,127.7,278.7,138.9,293.5
				c136.9,107.7,246.5,161.7,314.3,188c66.8,25.9,110.8,91.8,109.7,164c-1.6,101.7-26.8,169.5-75.1,201.4
				C1110.5,1349.4,1087.2,1356,1060.6,1356z M482.3,832.2c7.1,0,13.8,4.3,16.4,11.3c0.3,0.8,32.2,83.8,114.7,121.7
				c4,1.8,7.2,5.1,8.8,9.2c0.9,2.2,93.3,219.9,360,328.7c55.5,22.6,98.9,24,129.1,4.1c47.4-31.4,58.5-111.3,59.5-172.9
				c0.9-57.7-34.3-110.3-87.5-131l0,0c-70.4-27.3-183.9-83.2-325-194.5c-1.1-0.8-2-1.8-2.9-2.9c-4.1-5.2-101.9-130.4-146.5-308.1
				c-1.2-5-3.9-9-7.3-11.1c-2.1-1.3-5.6-3.4-14,4.2c-15.3,14-16.7,67.5-12.8,101c1,8.9-4.9,17.1-13.6,19
				c-8.8,1.9-17.5-3.2-20.2-11.8c-12.9-40.7-32.3-80.6-41.7-85.9c-2.1-0.5-8.9-1.4-14,3.8c-5.2,5.3-20.1,29.7,5.9,119.1
				c1.7,6,0.6,12.6-3.8,17.1c-4.4,4.5-10.3,6.4-16.4,4.8c0.1,0.1-0.4,0-1.1,0c-2.2,0-7.2,0.5-12.1,4.3c-8.6,6.7-14.2,20.9-16.3,41.2
				c-0.6,5.7-3.9,10.7-8.9,13.4c-3.2,1.9-33,21.5-15.8,77c5.7,18.4,14.6,30.8,26.3,36.8c16,8.1,33.4,2.4,33.6,2.3
				C478.5,832.5,480.4,832.2,482.3,832.2z"/>
		</g>
		<g class="st2">
			<path class="st1" d="M1188.1,1134.6c-1.7,113.7-36.3,256.6-212.5,184.6C698.4,1206.1,606.1,981,606.1,981
				c-90.5-41.5-123.8-131.5-123.8-131.5s-20.3,7.3-41.7-0.8c-14.7-47.4,7.9-84.9,7.9-84.9c-4.3-62.8,33.8-101,33.8-101
				c61.8-41.1,138.4-36.8,194.6-24.7c10.7,23.4,21.7,44.8,32.1,63.6c-96.1-38.6-186-24.2-186-24.2c-98,55.3,26.1,107.8,26.1,107.8
				l92,37c-105.6-7.4-133.2,73.9-35.1,86.2C704.3,920.9,769,795.2,769,795.2c2.1,94.2-92.8,162.9-92.8,162.9
				c30.4,57.8,64.2,103.3,97.3,138.8c67.4,72.5,179.4,78.2,255.9,15.4c60.1-49.2,113.1-55.2,140-54.3
				C1181.9,1081.1,1188.6,1107.3,1188.1,1134.6z"/>
		</g>
		<g>
			<g>
				<path class="st1" d="M608.4,998.3l-4.5-34.5c140.3-18.1,147.5-163,147.7-169.2l34.8,1.3C786.3,797.7,777.5,976.4,608.4,998.3z"
					/>
			</g>
			<g>
				<path class="st1" d="M707.2,727.5c-33.1-13-68.3-24.6-102.7-31.4c-17.2-3.1-34.5-5.3-50.5-4.3c-15.9,1.2-30.3,5.1-38.8,13.6
					c-4.5,4.4-7.6,9.6-8.2,13.4c-1,3.7,0.1,8.4,3.5,14.2c3.4,5.7,8.8,11.5,15,16.9c6.2,5.5,13.4,10.4,20.7,15.3
					c29.6,19.5,62.6,36.4,95.2,57c-19.5-0.4-38.4-3.8-57-8.7c-18.6-5-36.8-11.7-54.3-21.1c-8.8-4.7-17.3-10-25.7-16.3
					c-8.3-6.4-16.5-13.7-23.5-23.6c-3.5-4.9-6.5-10.8-8.7-17.3c-1.1-3.3-1.6-6.9-2.2-10.4c-0.1-3.6-0.3-7.4,0.2-11
					c1-7.3,3.4-14.1,6.6-19.8c3.1-5.8,7-10.8,11.2-15.4c8.7-9.2,19.7-15.7,30.6-19.8c11-4.2,22-6,32.7-6.9
					c21.4-1.5,41.6,0.7,61.1,4.7c19.5,3.9,38.2,9.5,56.5,16.1c18.3,6.7,35.8,14.1,53.5,23.3L707.2,727.5z"/>
			</g>
			<g>
				<path class="st1" d="M503.7,827.1c-5.1,0-10.2-0.7-15.3-2.1c-54.5-15-78.7-108.5-81.2-119.1l33.8-8.2c0,0,0,0,0,0l0,0
					c7.9,32.4,30.3,86.5,56.7,93.8c11.1,3.1,24.3-3.1,39.1-18.3l24.9,24.3C542.4,817.2,523,827.1,503.7,827.1z"/>
			</g>
			<g>
				<path class="st1" d="M490.3,865l-15.8-31l-0.5,0.3c1.6-0.9,9.3-6.5,7.1-22.7l34.5-4.6C520.1,840.4,501.8,859.2,490.3,865z"/>
			</g>
			<g>
				<path class="st1" d="M484,703.8c-19.7-32.7-26.2-57.3-26.5-58.3l33.6-8.8c0.1,0.2,5.8,21.2,22.6,49.2L484,703.8z"/>
			</g>
			<g>
				<path class="st1" d="M559.6,678.3c-12.6-32.2-19.1-79.9-19.4-81.9l34.5-4.7c0.1,0.4,6.3,45.7,17.3,74L559.6,678.3z"/>
			</g>
		</g>
	</g>
	<g>
		<g>
			<path class="st0" d="M2304.2,1060.5c-52.5,604.5-294.8,933.2-403.1,1052.1c-28.8,31.6-75.8,38.6-112.7,17l-82.8-48.3l-120.8-58.1
				l38.3-90.3l417.2-985.6c53.9-2.5,97.9,4.6,133.4,16.3C2269.8,995.3,2304.2,1060.5,2304.2,1060.5z"/>
		</g>
		<g class="st2">
			<path class="st1" d="M1750.3,2009.8l-45.5-34.1l-81.8-42.7l417.2-985.6c0.5,0,1.1,0,1.6-0.1c76.5-3.3,141.4,55.6,147.1,132
				c28.5,382.7-158,732-266.4,899.8C1884.9,2037.3,1805.7,2051.4,1750.3,2009.8z"/>
		</g>
		<g>
			<path class="st1" d="M1834,2159.4c-18.7,0-37.5-4.8-54.4-14.7l-82.2-48l-120.2-57.8c-8.4-4-12.1-13.9-8.5-22.5l455.4-1075.9
				c2.6-6.2,8.5-10.3,15.2-10.6c208.3-9.6,277.4,117,280.2,122.4c1.6,3,2.2,6.3,1.9,9.6c-53.3,613.4-302.8,947.3-407.6,1062.4
				C1893,2147.3,1863.7,2159.4,1834,2159.4z M1607.2,2014.8l105.9,50.9c0.4,0.2,0.8,0.4,1.2,0.7l82.8,48.4
				c29.7,17.4,68,11.6,91.1-13.7c102.1-112.1,344.8-437.1,398.1-1036.4c-12.7-19.9-75.5-103.9-234.5-100.2L1607.2,2014.8z"/>
		</g>
	</g>
	<g>
		<g>
			<path class="st0" d="M2666.2,958.1c19.1,362.5-199.6,332.2-199.6,332.2c-115,106.2-405.2,135.7-405.2,135.7
				c-84.2,309.8-232,583.4-442.8,724c-210.8,140.5-333.2,403.5-347.1,488.6c-13.8,85.2-154.4,133.1-201.2,100.3
				c-46.8-32.8-351.3-200.3-426.9-236.5c-75.6-36.2-70.2-82-70.2-82c3.3-35.6,10.6-65.4,21-90.3c77-184.8,321.8-97.6,321.8-97.6
				c83-191.6,170.9-293.8,170.9-293.8c-14.4-8-38.9-20.8-38.9-20.8c-155.4,6.4-398.1,138.4-466.3,232.1
				c-32.2,44.3-74.9,73.8-116.2,86.8c-19,6-37.7,8.4-54.9,7.2c-24.4-1.7-45.9-10.9-61-28c-49-55.3-195.9-138.4-283.2-219.3
				c-87.3-80.9-31.9-166.1-31.9-166.1c10.1-12.4,20.2-23.5,30.2-33.5c168-167.3,308.3,1.5,308.3,1.5
				c334.3-285.3,533.4-225.7,533.4-225.7c54.3-325.8,204.3-495.1,204.3-495.1c0,0,0,0,0,0c258.6-169.4,755.4-54.2,755.4-54.2
				s87.7,11.5,197.2,15c101.3,3.1,221.4-0.6,307.9-26.7c179.9-54.3,212.9-183.1,269.3-165.5C2696.1,863.6,2667.1,955,2666.2,958.1
				L2666.2,958.1z"/>
		</g>
		<g class="st2">
			<path class="st1" d="M2466.5,1290.3c-115,106.2-405.2,135.7-405.2,135.7c-84.2,309.8-232,583.4-442.8,724
				c-210.8,140.5-333.2,403.5-347.1,488.6c-13.8,85.2-154.4,133.1-201.2,100.3c-46.8-32.8-351.3-200.3-426.9-236.5
				c-75.6-36.2-70.2-82-70.2-82c3.3-35.6,10.6-65.4,21-90.3c98.1,102.7,204.3,154.6,299.6,179.1c150,38.6,307.1-28.8,384.1-163.2
				c42.4-74.1,84.2-137.8,121.6-190.4c86.5-121.6,65.9-311.6-89-362.1c-259.9-84.8-290.1-141.6-290.1-141.6l501.4,82.5l15.3-102.2
				l153.5,39.4c70,17.9,143.6-15.7,174.5-81c28.1-59.3,39.1-116.6,41.3-166.3c4-86-69.8-154.8-155.4-146.6
				c-527.1,50.5-638.1-195.1-640.2-199.7c0,0,0,0,0,0c258.6-169.4,755.4-54.2,755.4-54.2s87.7,11.5,197.2,15
				c38,57.2,35.3,138.4,27.1,193.9c-5.2,35.4,22.5,67.1,58.2,66.2c119.9-2.8,227.7-53.2,227.7-53.2l46.2-15.5
				c31.3-10.5,53.9-38.1,57.4-70.8c0-0.4,0.1-0.6,0.1-0.6c-15.2-16.7-0.8-52.8-0.8-52.8c-6.4-144.6,186.9-147.7,186.9-147.7
				C2685.3,1320.6,2466.5,1290.3,2466.5,1290.3z"/>
		</g>
		<g class="st2">
			<path class="st1" d="M1243.8,1813.5c-74.5,33-157,125.1-157,125.1c-14.4-8-38.9-20.8-38.9-20.8
				c-155.4,6.4-398.1,138.4-466.3,232.1c-32.2,44.3-74.9,73.8-116.2,86.8c-19,6-37.7,8.4-54.9,7.2c-24.4-1.7-45.9-10.9-61-28
				c-49-55.3-195.9-138.4-283.2-219.3c-87.3-80.9-31.9-166.1-31.9-166.1c10.1-12.4,20.2-23.5,30.2-33.5
				c2.8,105.4,116.7,185,222.4,236.3c87.1,42.3,191.5,31.7,266.1-29.9c103.5-85.5,238.3-125.7,315.7-143c33.1-7.4,56-37.4,54.6-71.3
				c-1.2-30,1.9-53.5,5.6-70.3c2.9-13,20-16.2,27.7-5.4c35.9,50.6,71.4,87.2,95.4,109.6c16.1,15,39.5,19.3,59.8,10.8
				C1175.8,1807.2,1243.8,1813.5,1243.8,1813.5z"/>
		</g>
		<g>
			<path class="st1" d="M1111.9,2766.6c-20.7,0-38.7-4.5-51.6-13.6c-45.1-31.6-350.4-199.6-424.4-235.1
				c-85.8-41.1-80.3-97.3-80-99.7c8.1-88.4,41.4-152.1,98.9-188.7c89.3-57,209.1-30.6,251.6-18.4c63-141.7,126.8-231.9,153.9-267.2
				c-6.4-3.4-12.3-6.5-16.2-8.5c-151,8.5-382.9,134.7-448.4,224.7c-43.3,59.6-108.2,98.4-169.3,101.3c-37,1.8-68.9-10.3-89.9-34
				c-23.6-26.6-73.8-61.9-127-99.3c-52.1-36.7-111.2-78.2-155-118.8c-96.9-89.8-35.3-187.3-34.7-188.3c0.3-0.5,0.7-1,1.1-1.5
				c61.5-75.2,127.6-113.5,196.6-113.8c0.3,0,0.5,0,0.8,0c75.6,0,132.3,45.9,155.9,69c276.1-231,460.2-230.2,517.9-222.2
				c56.7-315.5,199.3-479.3,205.4-486.3c1-1.2,2.2-2.2,3.5-3c258.9-169.6,737.4-63.8,768-56.8c18.1,2.3,327.1,40.1,497.1-11.2
				c97.6-29.4,149.7-81.4,187.8-119.3c31.9-31.8,57.1-56.9,91.7-46.2c16.3,5.1,29,15.7,36.8,30.8c18.2,35.3,5.3,85.7,1.1,99.8
				c7,142.1-20.9,243.1-83.2,300.2c-50,46-106.8,48.5-127.9,47.7c-108.5,93.8-341.5,127-397.5,133.8
				c-93.2,336-251.7,592.3-446.8,722.4c-206.5,137.6-326.5,397-339.5,477c-7.2,44.4-44.8,84.9-100.6,108.4
				C1161.6,2761,1135.1,2766.6,1111.9,2766.6z M789.8,2229.3c-38.9,0-81.1,7.1-116.5,29.7c-47.8,30.6-75.7,85.4-82.9,163
				c-0.1,1.4-1.4,35.1,60.5,64.7c77,36.9,382,204.7,429.4,238c17,11.9,56.7,9.1,94.3-6.8c44.7-18.8,74.5-49.5,79.8-82
				c14.2-87.1,136.3-354.8,354.6-500.3c190.4-126.9,345.1-380.5,435.7-714c1.9-6.9,7.9-12,15-12.7c2.8-0.3,285.7-30.2,395.1-131.2
				c3.8-3.5,9-5.2,14.2-4.4c2.3,0.3,59.3,7.1,108.6-38.6c53.5-49.6,78.2-144.8,71.3-275.4c-0.1-2.1,0.2-4.3,0.8-6.3
				c4.4-13.7,13.5-54.1,2-76.3c-3.5-6.9-8.7-11.1-16.2-13.5c-13.9-4.3-29,9.9-56.8,37.6c-38.4,38.2-96.4,96-202.3,128
				c-181.4,54.8-499,14.1-512.4,12.3c-0.6-0.1-1.1-0.2-1.7-0.3c-4.9-1.1-489.9-110.9-739.9,50.4c-15.3,18.3-148.8,185.3-198.8,484.8
				c-0.8,4.9-3.7,9.3-8,11.9c-4.2,2.6-9.4,3.3-14.2,1.9c-1.8-0.5-195.8-52-517.1,222.3c-3.5,3-8.1,4.5-12.8,4.1
				c-4.6-0.4-8.9-2.6-11.9-6.2c-0.6-0.7-59-69.2-141.2-69.2c-0.3,0-0.6,0-0.9,0c-57.7,0.4-114.6,34.1-168.9,100.2
				c-4.7,7.9-42.5,76.4,29.6,143.2c42,39,97.6,78,151.4,115.8c57.3,40.3,106.8,75,133,104.7c17.8,20.1,43.6,23.2,62.2,22.3
				c50-2.4,106.1-36.6,142.8-87.1c71.9-98.8,317.4-232.6,479.6-239.2c3.1-0.1,6.1,0.6,8.8,2c1,0.5,24.9,13,39.3,21
				c4.6,2.5,7.7,7,8.7,12.1s-0.5,10.4-3.9,14.4c-0.9,1-87.3,102.8-168.1,289.4c-3.6,8.4-13.2,12.5-21.8,9.5
				C909.2,2248.5,853.9,2229.3,789.8,2229.3z"/>
		</g>
		<g>
			<g>
				<path class="st1" d="M385.2,1811c-3.9,2.9-8.2,5.9-12.5,8.6c-4.3,2.8-8.8,5.5-13.2,8.2c-4.5,2.7-9,5.4-13.7,8
					c-4.6,2.7-9.3,5.3-14.2,7.9c1.4-5.4,3.4-10.6,5.5-15.6c2.1-5.1,4.4-10,6.9-14.8c2.5-4.8,5.1-9.5,7.9-14
					c2.8-4.6,5.7-8.9,9.1-13.2L385.2,1811z"/>
			</g>
			<g>
				<path class="st1" d="M701.1,2057.2c-237.7-138.6-231.8-339.1-231.5-347.6l34.7,1.5c-0.3,7.6-4.5,188.5,214.2,316.1L701.1,2057.2
					z"/>
			</g>
			<g>
				<path class="st1" d="M1037.3,1931.6c-1.8-1.6-3-2.6-4.3-3.9c-1.3-1.2-2.5-2.5-3.7-3.7c-2.4-2.5-4.7-5-6.9-7.6
					c-4.5-5.1-8.6-10.4-12.4-15.9c-7.8-10.8-14.8-22.1-21-33.7c-6-11.7-11.7-23.5-16-35.8c-2.4-6.1-4.1-12.4-5.9-18.6
					c-1.7-6.3-2.9-12.7-4-19.1l22,31.4c7.2,10.3,14.8,20.2,22.6,29.7c7.9,9.4,16.2,18.5,24.8,27c4.3,4.3,8.8,8.3,13.2,12.2
					c2.2,2,4.5,3.9,6.7,5.7l3.3,2.6c1,0.8,2.3,1.8,3,2.2L1037.3,1931.6z"/>
			</g>
			<g>
				<path class="st1" d="M1073.1,1927.9c5.7-7.6,11.1-14,17.1-20.5c5.9-6.5,12.1-12.5,18.4-18.6c6.4-5.9,13-11.6,19.7-17.2
					c6.8-5.4,13.7-10.8,20.8-15.8c14.2-10,28.9-19.4,44.7-27c4-1.8,7.9-3.6,11.9-5.3c4.2-1.5,8.2-3,12.4-4.3l6.3-1.9
					c2.1-0.6,4.3-1,6.5-1.5c4.3-1,8.6-1.7,13-2.3c-12.8,12.4-25.9,22.6-38.4,33.6c-3.2,2.6-6.3,5.3-9.5,8c-3.1,2.7-6.4,5.2-9.5,7.9
					c-6.2,5.4-12.3,10.8-18.3,16.5c-6.1,5.4-11.9,11.3-17.7,17l-8.7,8.6c-2.8,2.9-5.6,5.9-8.5,8.8c-5.7,5.9-11.2,11.9-16.7,17.8
					l-16,17.7L1073.1,1927.9z"/>
			</g>
			<g>
				<path class="st1" d="M932.3,2238.3c-2.5,5.8-5.4,11.9-8.4,17.7c-3,5.9-6.2,11.7-9.5,17.5c-6.5,11.7-13.4,23.2-21.6,34.8
					c-2.2-14.1-1.6-28-0.3-41.6c0.7-6.8,1.5-13.6,2.7-20.2c1.1-6.7,2.5-13.2,4.4-19.8L932.3,2238.3z"/>
			</g>
			<g>
				<path class="st1" d="M1405.7,2379.6c-163.4-6.6-275.7-77.3-341.1-135.5c-71-63.1-103-124.3-104.3-126.9l30.9-16l-15.4,8l15.4-8
					c1.2,2.3,123.8,231.8,415.9,243.6L1405.7,2379.6z"/>
			</g>
			<g>
				<path class="st1" d="M2462.3,1307.8c-35.8,0-102.8-23.5-133.6-115.5c-39.6-118.5,27.2-189.5,30.1-192.5l25.1,24.1
					c-2.3,2.4-54.9,59.5-22.2,157.4c31.7,94.8,100.8,91.9,103.7,91.7l2.5,34.7C2466.1,1307.7,2464.2,1307.8,2462.3,1307.8z"/>
			</g>
			<g>
				<path class="st1" d="M2064.3,1443.2c-9.8,2.6-19,3.5-28.6,4c-9.5,0.4-19.1,0.1-28.7-0.8c-9.5-0.9-19.1-2.4-28.5-4.8
					c-9.4-2.2-18.8-5.4-27.8-9.9c9.5-3.5,18.6-5.9,27.7-8.3c9.1-2.4,18-4.4,27-6.4c8.9-1.9,17.8-3.6,26.7-5.1
					c8.8-1.4,17.9-2.7,26.4-3l0.7,0c9.6-0.4,17.7,7.1,18.1,16.8C2077.6,1433.9,2072,1441.1,2064.3,1443.2z"/>
			</g>
		</g>
	</g>
	<g>
		<g>
			<g>
				<path class="st0" d="M1108.1,883.3h-86.3c-71,0-128.6-57.6-128.6-128.6V492.4c0-55.6,45-100.6,100.6-100.6h114.3V883.3z"/>
			</g>
			<g class="st2">
				<path class="st1" d="M893.2,617.4v140.5c0,69.3,56.2,125.4,125.4,125.4h89.5V742.8h-89.5C949.4,742.8,893.2,686.6,893.2,617.4z"
					/>
			</g>
			<g>
				<path class="st1" d="M1125.5,900.7h-103.6c-80.5,0-146-65.5-146-146V492.4c0-65.1,52.9-118,118-118h131.7V900.7z M993.8,409.2
					c-45.9,0-83.2,37.3-83.2,83.2v262.3c0,61.3,49.9,111.2,111.2,111.2h68.9V409.2H993.8z"/>
			</g>
		</g>
		<g>
			<g>
				<path class="st0" d="M2061.4,883.3h86.3c71,0,128.6-57.6,128.6-128.6V492.4c0-55.6-45-100.6-100.6-100.6h-114.3V883.3z"/>
			</g>
			<g class="st2">
				<path class="st1" d="M2276.3,617.4v140.5c0,69.3-56.2,125.4-125.4,125.4h-89.5V742.8h89.5
					C2220.1,742.8,2276.3,686.6,2276.3,617.4z"/>
			</g>
			<g>
				<path class="st1" d="M2147.6,900.7H2044V374.4h131.7c65.1,0,118,52.9,118,118v262.3C2293.7,835.2,2228.2,900.7,2147.6,900.7z
					 M2078.8,865.9h68.9c61.3,0,111.2-49.9,111.2-111.2V492.4c0-45.9-37.3-83.2-83.2-83.2h-96.9V865.9z"/>
			</g>
		</g>
		<g>
			<g>
				<path class="st0" d="M2058.8,985.7v92.1c0,0-130.1,148.1-474.1,148.1s-474.1-148.1-474.1-148.1v-92.1H2058.8z"/>
			</g>
			<g class="st2">
				<path class="st1" d="M1584.7,985.7v201.1c-343.9,0-474.1-154.7-474.1-154.7v-46.4H1584.7z"/>
			</g>
			<g class="st2">
				<path class="st1" d="M1584.7,985.7v201.1c343.9,0,474.1-154.7,474.1-154.7v-46.4H1584.7z"/>
			</g>
			<g>
				<path class="st1" d="M1584.7,1243.3c-347.8,0-481.6-147.7-487.1-154c-2.8-3.2-4.3-7.3-4.3-11.5v-92.1c0-9.6,7.8-17.4,17.4-17.4
					h948.2c9.6,0,17.4,7.8,17.4,17.4v92.1c0,4.2-1.5,8.3-4.3,11.5C2066.4,1095.5,1932.6,1243.3,1584.7,1243.3z M1128.1,1070.6
					c24.9,23.9,159.3,137.8,456.7,137.8c298.7,0,431.9-113.8,456.7-137.8v-67.6h-913.4V1070.6z"/>
			</g>
		</g>
		<g>
			<g>
				<path class="st0" d="M1584.7,1144.2c773.7,0,582.6-700.9,582.6-700.9C2097,197,1868,17.4,1584.7,17.4S1072.5,197,1002.1,443.3
					C1002.1,443.3,811,1144.2,1584.7,1144.2z"/>
			</g>
			<g class="st2">
				<path class="st1" d="M2167.4,443.3c-23.2-81.4-63.9-155.4-118.1-218.2c13.6,28.5,24.8,58.2,33.6,89c0,0,191.1,700.9-582.6,700.9
					c-239.7,0-386.7-67.3-475.6-160.1c64.9,152.6,218.4,289.3,560.1,289.3C2358.4,1144.2,2167.4,443.3,2167.4,443.3z"/>
			</g>
			<g>
				<path class="st1" d="M1584.7,1161.6c-242.3,0-417-67.9-519.4-201.9c-161.8-211.8-83.5-508.5-80-521
					C1060.3,176.2,1301.2,0,1584.7,0s524.4,176.2,599.3,438.5c3.5,12.7,81.8,309.4-80,521.2
					C2001.8,1093.7,1827,1161.6,1584.7,1161.6z M1584.7,34.8c-267.9,0-495.3,166.1-565.9,413.3c-0.7,2.7-77.1,292.7,74.3,490.7
					c95.4,124.8,260.8,188.1,491.6,188.1c230.8,0,396.2-63.3,491.6-188.1c151.4-198,75-488,74.2-490.9
					C2080,200.9,1852.6,34.8,1584.7,34.8z"/>
			</g>
		</g>
		<g>
			<g>
				<path class="st1" d="M1584.7,1032.1c511.5,0,511.4-340.5,511.4-340.5c0-396.5-511.4-376.8-511.4-376.8s-511.4-19.7-511.4,376.8
					C1073.3,691.6,1073.3,1032.1,1584.7,1032.1z"/>
			</g>
			<g class="st3">
				<path class="st0" d="M1584.7,314.8c0,0-511.4-19.7-511.4,376.8c0,0,0,71.4,49.1,148.7c-19.2-50.9-19.3-89.1-19.3-89.1
					c0-107.1,37.3-183.8,91.8-238.8c7.4-7.5,18.5-10.4,28.5-7.2c32.1,10.1,86.7,4,143.5-18.7c59-23.6,104-58.6,118.6-89
					c4.5-9.3,13.1-15.9,23.3-17.2c61.9-7.5,105.7-5.9,105.7-5.9s330.3-12.7,460,188.2C1977.3,299.7,1584.7,314.8,1584.7,314.8z"/>
			</g>
			<g>
				<path class="st1" d="M1584.7,1049.5c-271.4,0-400.7-96.4-461.4-177.2c-66.6-88.7-67.4-177-67.4-180.7
					c0-104.9,34.5-191.3,102.7-256.8c149.7-144,407.8-138,426.1-137.4c18.4-0.6,276.4-6.6,426.1,137.4
					c68.1,65.6,102.7,152,102.7,256.8c0,3.7-0.8,91.9-67.4,180.7C1985.5,953.1,1856.1,1049.5,1584.7,1049.5z M1574.3,332.1
					c-48.5,0-266.2,7-391.7,127.9c-61,58.7-91.9,136.7-91.9,231.7c0,0.8,1.1,81.8,61.6,161.4c80.5,105.8,230,161.7,432.4,161.7
					s351.9-55.9,432.4-161.7c60.5-79.6,61.6-160.6,61.6-161.4c0-95-30.9-172.9-91.9-231.6C1845.7,324,1588,332.1,1585.4,332.2
					l-0.7,0l-0.7,0C1583.8,332.2,1580.4,332.1,1574.3,332.1z"/>
			</g>
		</g>
	</g>
	<g>
		<g>
			<g>
				<path class="st0" d="M2656.8,1487.6L2656.8,1487.6c-18.2,2.4-34.9-10.4-37.3-28.6L2461.8,267.9c-2.4-18.2,10.4-34.9,28.6-37.3
					l0,0c18.2-2.4,34.9,10.4,37.3,28.6l157.7,1191.1C2687.8,1468.5,2675,1485.2,2656.8,1487.6z"/>
			</g>
			<g class="st2">
				<path class="st1" d="M2685.4,1450.3L2527.7,259.2c-2.4-18.2-19.1-31-37.3-28.6h0c-0.1,0-0.2,0-0.3,0.1l155.5,1174.9
					c2.4,18.1-10.2,34.7-28.3,37.2l2.1,16.2c2.4,18.2,19.1,31,37.3,28.6C2675,1485.2,2687.8,1468.5,2685.4,1450.3z"/>
			</g>
			<g>
				<path class="st1" d="M2652.4,1505.3c-25,0-46.8-18.5-50.1-44L2444.6,270.2c-1.8-13.4,1.8-26.7,10-37.4
					c8.2-10.7,20.1-17.6,33.5-19.4c27.6-3.7,53.2,15.9,56.8,43.5L2702.6,1448c1.8,13.4-1.8,26.7-10,37.4s-20.1,17.6-33.5,19.4h0
					C2656.9,1505.1,2654.6,1505.3,2652.4,1505.3z M2494.8,247.7c-0.7,0-1.4,0-2.1,0.1c-4.2,0.6-7.9,2.7-10.5,6.1
					c-2.6,3.4-3.7,7.5-3.1,11.7l157.7,1191.1c1.1,8.7,9.1,14.8,17.8,13.6l0,0c4.2-0.6,7.9-2.7,10.5-6.1c2.6-3.4,3.7-7.5,3.1-11.7
					L2510.5,261.5C2509.4,253.5,2502.6,247.7,2494.8,247.7z"/>
			</g>
		</g>
		<g>
			<polygon class="st4" points="3159.4,424 3334.6,611.8 2587.5,710.7 2531.1,284.8 3278.2,185.9 3193.3,355.9 			"/>
		</g>
		<g class="st3">
			<g>
				<polygon class="st0" points="3169.4,459 3314.4,614.5 3334.6,611.8 3177.3,443.2 				"/>
			</g>
			<g>
				<polygon class="st0" points="2541.1,319.8 3258.8,224.8 3278.2,185.9 2531.1,284.8 2587.5,710.7 2592.7,710 				"/>
			</g>
		</g>
		<g class="st2">
			<path class="st1" d="M3334.6,611.8l-747.1,98.9l-14.8-111.6c257.9,11,302.8-143.1,302.8-143.1s54.6,52.6,197.7-1.9
				c49.5-18.8,89.3-56.7,120.2-98.2l-34,68L3334.6,611.8z"/>
		</g>
		<g>
			<path class="st1" d="M2587.5,728.1c-3.8,0-7.5-1.2-10.6-3.6c-3.7-2.8-6.1-6.9-6.7-11.5l-56.4-425.9c-1.3-9.5,5.4-18.3,15-19.5
				l747.1-98.9c6.4-0.9,12.7,1.9,16.4,7.1c3.7,5.2,4.3,12.1,1.4,17.9l-113.5,227.3l167,179c4.4,4.8,5.9,11.6,3.7,17.7
				c-2.2,6.1-7.6,10.5-14.1,11.4l-747.1,98.9C2589,728,2588.2,728.1,2587.5,728.1z M2550.6,299.8l51.8,391.4l696.4-92.2
				l-152.2-163.1c-5-5.3-6.1-13.1-2.8-19.6L3248,207.4L2550.6,299.8z"/>
		</g>
		<g>
			
				<ellipse transform="matrix(0.7071 -0.7071 0.7071 0.7071 519.7673 2166.8462)" class="st5" cx="2875.5" cy="456" rx="156" ry="156"/>
		</g>
		<g>
			<path class="st1" d="M2875.2,623.3c-36.5,0-71.9-11.9-101.4-34.5c-35.5-27.2-58.2-66.5-64.1-110.8c-5.9-44.3,5.9-88.2,33-123.7
				c27.2-35.5,66.5-58.2,110.8-64.1c44.3-5.8,88.2,5.9,123.7,33c35.5,27.2,58.2,66.5,64.1,110.8l0,0
				c12.1,91.4-52.4,175.7-143.9,187.8C2890,622.8,2882.5,623.3,2875.2,623.3z M2875.8,311.3c-6.4,0-12.8,0.4-19.3,1.3
				c-38.3,5.1-72.3,24.8-95.8,55.4c-23.5,30.7-33.6,68.7-28.6,107s24.8,72.3,55.4,95.8s68.7,33.6,107,28.6
				c79.1-10.5,134.9-83.3,124.4-162.4c-5.1-38.3-24.8-72.3-55.4-95.8C2938,321.7,2907.4,311.3,2875.8,311.3z"/>
		</g>
		<g>
			<path class="st1" d="M2820.4,467.8c-4.9,1.4-10.1,2.1-15.3,1.9c-5.2-0.4-10.6-1.3-15.6-3.3c-5-2.1-9.8-4.7-14.1-8.2
				c-4.2-3.6-7.9-7.7-11-12.4c-3-4.8-5.2-10-6.7-15.4c-1.4-5.5-2-11.2-1.8-16.8c0.4-5.7,1.5-11.3,3.5-16.7
				c2.1-5.3,4.9-10.3,8.4-14.8c13.8-18.4,39.4-26.1,60.5-19c10.5,3.3,19.7,10,26.2,18.5c3.2,4.3,5.7,9,7.4,13.9
				c1.7,4.9,2.4,10.1,2.5,15.1c-5.1-19.6-20.9-34.2-38.7-37.7c-8.9-1.8-18-0.9-26.3,2c-8.2,3.2-15.3,8.6-20.6,15.5
				c-10.4,13.9-12.2,33.6-4,49.4c2,3.9,4.5,7.7,7.6,11c3.2,3.2,6.6,6.3,10.6,8.8c4,2.4,8.3,4.4,12.9,5.8
				C2810.4,466.8,2815.3,467.5,2820.4,467.8z"/>
		</g>
		<g>
			<path class="st1" d="M2944.3,446.9c-3-9.3,1.4-20.8,10.4-26.5c8.9-5.8,21.7-5.3,30.1,1.6c8.7,6.5,12.3,18.6,9,28.5
				c-3.1,10.1-12.8,17.2-22.4,17c9.3-2.4,16.2-9.9,17.8-18.3c0.9-4.2,0.4-8.5-1-12.4c-1.5-3.9-4.1-7.2-7.3-9.7
				c-6.6-4.9-15.9-5.8-23.3-1.9C2950,429,2944.6,437.3,2944.3,446.9z"/>
		</g>
		<g>
			<path class="st1" d="M2904.7,524.5c9.6,7.5,13.1,22.6,7.6,34.8c-5.2,12.3-18.9,20.7-32.5,19.4c-13.6-0.7-25.8-10.8-29.3-23.5
				c-3.8-12.6,1.3-26.8,11.5-33.4c-8,9-9.9,21.6-5.7,31.5c2,5,5.5,9.2,9.7,12.2c4.3,3,9.3,4.7,14.4,5c10.3,0.5,20.6-5.1,25.6-14.3
				C2911.3,547.1,2911.1,534.7,2904.7,524.5z"/>
		</g>
	</g>
	<g>
		<g>
			<path class="st0" d="M2527.2,1073.9c0,0-51.9-47.1,12.8-99c64.7-51.9,186-30.3,163.7,64.7c0,0,41.5,41.5,7.2,91
				c0,0,31.9,40.7-1.6,78.2c0,0,31.1,79-61.5,84.6c-92.6,5.6-124.6-30.3-103-93.4c0,0-25.2-23.2-13.2-60.3
				C2531.6,1139.8,2505.6,1113.8,2527.2,1073.9z"/>
		</g>
		<g class="st2">
			<path class="st1" d="M2624.3,1215c0,0-25.2-23.2-13.2-60.3c0,0-25.9-25.9-4.4-65.9c0,0-51.9-47.1,12.8-99
				c17.2-13.8,38.4-22.3,59.8-25.8c-35.7-25.3-98.6-21.7-139.3,10.8c-64.7,51.9-12.8,99-12.8,99c-21.6,39.9,4.4,65.9,4.4,65.9
				c-12,37.1,13.2,60.3,13.2,60.3c-21,61.5,8.9,97.2,96.3,93.7C2617.1,1278.1,2611.9,1251,2624.3,1215z"/>
		</g>
		<g>
			<path class="st1" d="M2629.9,1311.4c-46.1,0-78.1-11.4-95.3-34c-14.4-18.9-17.4-43.5-9.2-73.5c-8-11.2-18.6-32.2-12.8-60.4
				c-7.8-11.9-18-35.6-5.9-66.7c-7.6-10.1-17.2-27.3-16.6-48.7c0.7-24.1,13.8-46.6,39-66.7c44.1-35.4,112.6-41.7,156.1-14.3
				c29.8,18.8,43.1,50.4,37.2,87.6c15.2,19.7,30,56.5,9,95.8c10.7,19.8,18.3,52.1-2.8,82.2c3.5,14.2,7,40.9-7.4,63.6
				c-13.4,20.9-37.7,32.6-72.3,34.7C2642.3,1311.2,2636,1311.4,2629.9,1311.4z M2621.1,964.6c-24.6,0-50.8,8.2-70.2,23.8
				c-16.7,13.4-25.4,27-25.9,40.4c-0.7,18.2,13.9,32.1,14.1,32.2c5.8,5.4,7.3,14.1,3.5,21c-15.2,28.2,1.2,45.1,1.4,45.3
				c4.6,4.6,6.3,11.4,4.3,17.6c-8.5,26.2,8.2,42,8.4,42.2c5.1,4.7,6.9,11.9,4.7,18.4c-7.7,22.6-7.4,39.6,1,50.6
				c11.7,15.3,41.7,22.4,84.5,19.8c22.9-1.4,38-7.7,45-18.7c10.6-16.7,1.4-42,1.3-42.2c-2.4-6.1-1.2-13.1,3.2-18
				c22.8-25.5,3.1-53,0.8-56c-4.6-6-4.8-14.4-0.5-20.5c25-36-2.1-65.6-5.3-68.9c-4.1-4.3-5.9-10.4-4.5-16.2
				c6.3-26.8-0.5-46.7-20.1-59.1C2654,968.5,2637.9,964.6,2621.1,964.6z"/>
		</g>
		<g>
			<path class="st1" d="M2585.8,1099c-19,0-40-2.4-62.9-8.2l8.6-33.7c102.1,26,157.5-27.5,159.9-29.8l24.7,24.5
				C2713.7,1054.1,2668.3,1099,2585.8,1099z"/>
		</g>
		<g>
			<path class="st1" d="M2611.7,1180.8c-27.4,0-57.9-6.8-89.3-26.3l18.3-29.5c81,50.3,156.3-5.8,159.5-8.2l21.2,27.6
				C2718.8,1146.4,2673.2,1180.8,2611.7,1180.8z"/>
		</g>
		<g>
			<path class="st1" d="M2634.7,1250.2c-28.9,0-63.3-8.8-100.2-36.2l20.7-27.9c79.9,59.3,140.5,11.4,143.1,9.3l22.2,26.8
				C2719.9,1222.6,2685.9,1250.2,2634.7,1250.2z"/>
		</g>
	</g>
	<g>
		<g>
			<path class="st0" d="M1032.4,1483.5c0,0-34.4-11-71.7-20.3c-29.3-7.3-47.1-40.4-37.2-70.9c0.1-0.5,0.3-0.9,0.5-1.4
				c8.4-24.6,32.5-38.7,56.6-34.3c21.9,4,56.5,11.6,86.7,23.4C1067.2,1380,1119.4,1460.9,1032.4,1483.5z"/>
		</g>
		<g class="st2">
			<path class="st1" d="M1037.4,1433.8c0,0-34.4-11-71.7-20.3c-17.2-4.3-30.4-17.5-36.4-33.8c-2.2,3.4-4,7.1-5.4,11.2
				c-0.2,0.5-0.3,0.9-0.5,1.4c-9.9,30.6,7.9,63.6,37.2,70.9c37.3,9.3,71.7,20.3,71.7,20.3c53.4-13.9,54.3-49.7,47.1-75.4
				C1072.1,1418.9,1059.1,1428.2,1037.4,1433.8z"/>
		</g>
		<g>
			<path class="st1" d="M1032.4,1500.9c-1.8,0-3.6-0.3-5.3-0.8c-0.3-0.1-34.4-10.9-70.7-20c-18.3-4.6-34.2-17-43.7-34.2
				c-10-18-12.1-39.5-5.8-59l0.5-1.6c11.2-32.6,43.2-51.9,76.2-45.8c24,4.4,59,12.2,89.9,24.3c3.4,1.3,6.3,3.7,8.3,6.8
				c3,4.6,28.7,46.2,13.7,84.5c-8.7,22.2-28.4,37.4-58.8,45.3C1035.3,1500.7,1033.9,1500.9,1032.4,1500.9z M971.7,1373.2
				c-13.8,0-26.4,9.2-31.3,23.4l-0.3,1.1c-3.3,10.4-2.2,21.8,3.1,31.4c4.9,8.9,12.7,15,21.8,17.3c29.5,7.4,56.8,15.6,67.8,19
				c16.2-5,26.5-12.7,30.5-22.9c6.2-15.9-2.1-37.5-7.9-48.4c-26.9-9.9-56.9-16.5-77.9-20.3C975.5,1373.3,973.6,1373.2,971.7,1373.2z
				"/>
		</g>
	</g>
	<g>
		<g>
			<path class="st0" d="M1693.6,1529.3c-70.8,148-148.5,310.3-148.5,310.3c-174-100.6-524.8-187.9-524.8-187.9l-17-61.8
				c30.9-160.8,111.5-318.1,111.5-318.1c178.5,8.6,347.4,73.6,451.9,123c66.8,31.5,107.3,56.7,107.3,56.7L1693.6,1529.3z"/>
		</g>
		<g class="st2">
			<path class="st1" d="M1693.6,1529.3c-70.8,148-148.5,310.3-148.5,310.3c-174-100.6-524.8-187.9-524.8-187.9l-17-61.8
				c0,0,523.8,155.3,563.4-195.1c66.8,31.5,107.3,56.7,107.3,56.7L1693.6,1529.3z"/>
		</g>
		<g>
			<path class="st1" d="M1545.1,1857c-3,0-6-0.8-8.7-2.3c-170-98.2-516.9-185.2-520.3-186.1c-6.1-1.5-10.9-6.2-12.6-12.3l-17-61.7
				c-0.7-2.6-0.8-5.3-0.3-7.9c31-161.3,109.8-316.2,113.1-322.7c3.1-6.1,9.6-9.8,16.3-9.4c293.6,14.2,556.5,175.4,567.5,182.2
				c3.8,2.4,6.6,6.1,7.7,10.5l19.7,77.7c1,3.9,0.6,8.1-1.2,11.8c-70.8,148-148.5,310.3-148.5,310.3c-2.1,4.4-5.9,7.7-10.5,9.1
				C1548.6,1856.7,1546.8,1857,1545.1,1857z M1034.3,1637.3c57.4,14.7,339.9,89.6,503.1,178.1c21.3-44.4,81.4-170,137.8-287.9
				l-16.4-64.7c-40.1-23.6-277.1-157-533.6-172.9c-17.7,36.6-78.1,167.2-104.2,299.4L1034.3,1637.3z"/>
		</g>
		<g>
			<g>
				<path class="st1" d="M1379.9,1480.1l-55.8-20.3c-5.7-2.1-8.7-8.4-6.6-14.2l20.3-55.8c2.1-5.7,8.4-8.7,14.2-6.6l55.8,20.3
					c5.7,2.1,8.7,8.4,6.6,14.2l-20.3,55.8C1391.9,1479.2,1385.6,1482.2,1379.9,1480.1z"/>
			</g>
			<g>
				<path class="st1" d="M1498.3,1523.1l-55.8-20.3c-5.7-2.1-8.7-8.4-6.6-14.2l20.3-55.8c2.1-5.7,8.4-8.7,14.2-6.6l55.8,20.3
					c5.7,2.1,8.7,8.4,6.6,14.2l-20.3,55.8C1510.4,1522.2,1504,1525.2,1498.3,1523.1z"/>
			</g>
			<g>
				<path class="st1" d="M1336.7,1594.4l-55.8-20.3c-5.7-2.1-8.7-8.4-6.6-14.2l20.3-55.8c2.1-5.7,8.4-8.7,14.2-6.6l55.8,20.3
					c5.7,2.1,8.7,8.4,6.6,14.2l-20.3,55.8C1348.8,1593.5,1342.5,1596.4,1336.7,1594.4z"/>
			</g>
			<g>
				<path class="st1" d="M1455.2,1637.4l-55.8-20.3c-5.7-2.1-8.7-8.4-6.6-14.2l20.3-55.8c2.1-5.7,8.4-8.7,14.2-6.6l55.8,20.3
					c5.7,2.1,8.7,8.4,6.6,14.2l-20.3,55.8C1467.3,1636.5,1460.9,1639.5,1455.2,1637.4z"/>
			</g>
			<g>
				<path class="st1" d="M1521.7,1783c-3,0-5.9-0.8-8.5-2.2c-185-104-510.3-173.1-513.5-173.8l7.2-34c13.2,2.8,315.9,67.2,507,168.6
					c22.4-47.7,88.4-187.5,144.7-297.8l31,15.8c-68.3,133.9-151.1,311.7-152,313.5c-2,4.4-5.8,7.7-10.4,9.2
					C1525.3,1782.7,1523.5,1783,1521.7,1783z"/>
			</g>
			<g>
				
					<rect x="1516" y="1768" transform="matrix(0.948 -0.3184 0.3184 0.948 -494.8488 582.1983)" class="st1" width="34.8" height="73.6"/>
			</g>
			<g>
				<path class="st1" d="M1160,1629.9l-33-10.9l52.1-158l-39.6-9.2c-4.9-1.1-9-4.3-11.4-8.7c-2.4-4.4-2.7-9.6-0.9-14.3l58.1-154.4
					l32.5,12.2l-51.1,135.9l38.8,9.1c4.8,1.1,8.8,4.2,11.2,8.4c2.4,4.3,2.9,9.3,1.4,14L1160,1629.9z"/>
			</g>
		</g>
	</g>
	<g>
		<g>
			<path class="st0" d="M1622.4,1714.6c28.6,15.4,111.4,64.6,198.9,159.6c24.1,26.2,67.2,22.3,85.3-8.3c0.4-0.6,0.7-1.2,1.1-1.9
				c11.4-19.9,8.8-44.9-6.4-62.2c-38-43.1-123.5-131.3-233.3-190.5c-5.8-3.1-12.5-3.7-18.8-1.8c-17.3,5.3-47.4,23.5-39.5,86.3
				C1610.8,1703.9,1615.4,1710.9,1622.4,1714.6z"/>
		</g>
		<g class="st2">
			<path class="st1" d="M1831.2,1814.7c-87.5-95.1-170.3-144.3-198.9-159.6c-7-3.8-11.6-10.7-12.6-18.6c-0.2-1.4-0.2-2.6-0.4-3.9
				c-8.3,13.1-13.4,33-9.6,63.5c1,7.9,5.6,14.9,12.6,18.6c28.6,15.4,111.4,64.6,198.9,159.6c24.1,26.2,67.2,22.3,85.3-8.3
				c0.4-0.6,0.7-1.2,1.1-1.9c8.7-15.2,9.2-33.5,2.2-48.9C1889.4,1837.4,1852.7,1838.1,1831.2,1814.7z"/>
		</g>
		<g>
			<path class="st1" d="M1860.8,1909.1c-19.9,0-38.7-8.2-52.3-23c-84.8-92.1-164.1-139.9-194.3-156.1l0,0
				c-11.8-6.4-19.9-18.3-21.6-31.8c-9.8-77.6,32.9-99.4,51.6-105.1c10.7-3.3,22.4-2.1,32.1,3.1c110.7,59.6,196.7,147.3,238.1,194.3
				c20.2,22.9,23.5,56,8.4,82.3l-1.2,2.1c-11.3,19.2-30.6,31.5-53,33.9C1866,1908.9,1863.4,1909.1,1860.8,1909.1z M1630.7,1699.3
				c31.7,17.1,115.1,67.2,203.4,163.2c7.9,8.6,19.1,12.8,30.8,11.6c11.3-1.2,21-7.4,26.7-17l0.9-1.6c7.7-13.5,6-30.4-4.3-42.1
				c-39.8-45.2-122.5-129.6-228.5-186.6c-1.6-0.9-3.6-1-5.4-0.5c-22.6,6.9-32,30.3-27.3,67.5
				C1627.3,1696.2,1628.7,1698.3,1630.7,1699.3L1630.7,1699.3z"/>
		</g>
	</g>
</g>
</svg>
