<?xml version="1.0" encoding="utf-8"?>
<!-- Generator: Adobe Illustrator 25.1.0, SVG Export Plug-In . SVG Version: 6.00 Build 0)  -->
<svg version="1.1" id="Layer_1" xmlns="http://www.w3.org/2000/svg" xmlns:xlink="http://www.w3.org/1999/xlink" x="0px" y="0px"
	 viewBox="0 0 3363.7 3517.8" style="enable-background:new 0 0 3363.7 3517.8;" xml:space="preserve">
<style type="text/css">
	.st0{fill:#E81818;}
	.st1{fill:#E7A900;}
	.st2{fill:#FFFD01;}
	.st3{fill:#371A45;}
	.st4{opacity:0.35;}
	.st5{opacity:0.5;}
	.st6{fill:#FFFFFF;}
	.st7{fill:#22A7F0;}
	.st8{opacity:0.3;}
	.st9{opacity:0.25;}
	.st10{fill:#FFDA00;}
	.st11{opacity:0.4;}
	.st12{opacity:0.7;}
	.st13{fill:#00BDFF;}
	.st14{filter:url(#Adobe_OpacityMaskFilter);}
	.st15{filter:url(#Adobe_OpacityMaskFilter_1_);}
	.st16{mask:url(#SVGID_1_);fill:url(#SVGID_2_);}
	.st17{fill:url(#SVGID_3_);}
	.st18{filter:url(#Adobe_OpacityMaskFilter_2_);}
	.st19{filter:url(#Adobe_OpacityMaskFilter_3_);}
	.st20{mask:url(#SVGID_4_);fill:url(#SVGID_5_);}
	.st21{fill:url(#SVGID_6_);}
	.st22{clip-path:url(#SVGID_8_);}
	.st23{fill:#111A28;}
</style>
<g>
	<g>
		<g>
			<path class="st0" d="M1863.9,2804.8c0,0,249,189.3-143.6,677.2c-18.4,22.9-53.2,23.2-71.9,0.5
				c-100.3-122.1-359.7-478.5-148.2-674.9L1863.9,2804.8z"/>
		</g>
		<g>
			<path class="st1" d="M1811.3,2804.2c0,0,176.7,134.3-103.1,480.7c-12.2,15.2-35.3,15.3-47.7,0.3
				c-69.8-84.5-257-339.2-106.3-479.1L1811.3,2804.2z"/>
		</g>
		<g>
			<path class="st2" d="M1769.2,2790.8c0,0,119.2,90.6-69.5,324.4c-8.3,10.2-23.8,10.4-32.2,0.2c-47.1-57-173.4-228.8-71.7-323.3
				L1769.2,2790.8z"/>
		</g>
		<g>
			<path class="st3" d="M1684.1,3517.8c-19.4,0-37.6-8.6-49.9-23.6c-50.1-60.9-141.9-182.9-193.9-314.5
				c-65.5-165.8-49.6-295.5,47.4-385.6c3.4-3.1,7.8-4.9,12.4-4.9l363.7-2.8c0,0,0.1,0,0.1,0c4,0,7.9,1.3,11.1,3.8
				c2.8,2.1,68.5,53.3,82.5,167.9c18.2,148.9-56.8,329.1-222.9,535.5c-12.3,15.3-30.6,24.1-50.2,24.2
				C1684.3,3517.8,1684.2,3517.8,1684.1,3517.8z M1507.6,2825.9c-80.2,78.6-91.3,193-33.1,340.2c50.2,127,139.4,245.4,188.1,304.6
				c5.3,6.5,13.3,10.1,21.6,10.2c8.5,0,16.4-3.9,21.7-10.5c198.1-246.2,226.4-411.3,215.2-506.4c-9.8-84.1-50.4-128.1-64.1-140.8
				L1507.6,2825.9z"/>
		</g>
	</g>
	<g>
		<polygon class="st0" points="1687,1927 2320.5,2519.2 2320.5,2800 1687,2555.2 		"/>
	</g>
	<g>
		<polygon class="st0" points="1687,1927 1053.4,2519.2 1053.4,2800 1687,2555.2 		"/>
	</g>
	<g class="st4">
		<path class="st3" d="M1388.2,2206.2c-15.6,36.5-29.2,73.8-40.6,111.8c-20.9,69.5-34.8,141.1-41.3,213.7c-4,44.7-33,83.2-74.9,99.4
			l-178,68.8V2800l0,0v-35.6l633.6-244.8V1927L1388.2,2206.2z"/>
	</g>
	<g class="st4">
		<path class="st3" d="M2142.5,2631.1c-41.8-16.2-70.9-54.7-74.9-99.4c-6.5-72.7-20.4-144.2-41.3-213.7c-11.5-38-25-75.3-40.6-111.8
			L1687,1927v592.6l633.6,244.8v35.6l0,0v-100.1L2142.5,2631.1z"/>
	</g>
	<g class="st5">
		<polygon class="st6" points="2320.6,2514.1 2320.6,2568.7 1686.9,1995 1686.9,1921.9 		"/>
	</g>
	<g class="st5">
		<polygon class="st6" points="1686.9,1921.9 1686.9,1995 1053.4,2568.7 1053.4,2514.1 		"/>
	</g>
	<g>
		<path class="st3" d="M2337,2823.9l-666.4-257.5v-677.3L2337,2512V2823.9z M1703.4,2543.9l600.8,232.1v-249.7l-600.8-561.5V2543.9z
			"/>
	</g>
	<g>
		<path class="st7" d="M2375.8,2247.1c-48.8,0-70.7,184.6-69.1,257.2l9.4,412.3c0.6,25.4,21.3,45.7,46.7,45.7l0,0h25.9
			c25.4,0,46.2-20.3,46.7-45.7l9.4-412.3C2446.6,2431.7,2424.6,2247.1,2375.8,2247.1z"/>
	</g>
	<g class="st5">
		<path class="st6" d="M2445,2499.2l-1,44c-4.9-84.7-27-215.7-68.1-215.7c-41.1,0-63.1,131-68.1,215.7l-1-44
			c-1.7-72.6,20.3-257.2,69.1-257.2C2424.6,2242,2446.6,2426.6,2445,2499.2z"/>
	</g>
	<g>
		<path class="st3" d="M1036.9,2823.9V2512l666.4-622.9v677.3L1036.9,2823.9z M1069.8,2526.3V2776l600.8-232.1v-579.1L1069.8,2526.3
			z"/>
	</g>
	<g>
		<path class="st7" d="M998.1,2247.1c48.8,0,70.7,184.6,69.1,257.2l-9.4,412.3c-0.6,25.4-21.3,45.7-46.7,45.7h0h-25.9
			c-25.4,0-46.2-20.3-46.7-45.7l-9.4-412.3C927.3,2431.7,949.3,2247.1,998.1,2247.1z"/>
	</g>
	<g class="st4">
		<path class="st3" d="M1063.9,2647.7l-6.2,268.9c-0.6,25.4-21.3,45.7-46.7,45.7h-25.9c-25.4,0-46.2-20.3-46.8-45.7l-6.1-269.1
			c7.8,82.6,29.3,186.3,65.8,186.3S1056.1,2730.3,1063.9,2647.7z"/>
	</g>
	<g class="st5">
		<path class="st6" d="M1067.2,2499.2l-1,44c-4.9-84.7-27-215.7-68.1-215.7c-41.1,0-63.1,131-68.1,215.7l-1-44
			c-1.7-72.6,20.3-257.2,69.1-257.2C1046.8,2242,1068.8,2426.6,1067.2,2499.2z"/>
	</g>
	<g>
		<path class="st3" d="M1011,2978.8h-25.9c-34.1,0-62.4-27.7-63.2-61.7l-9.4-412.3c-1.3-58.4,12.9-216.2,56.2-260.4
			c11-11.2,22-13.6,29.3-13.6c7.3,0,18.4,2.4,29.3,13.6c43.2,44.2,57.5,202.1,56.2,260.4l-9.4,412.3
			C1073.4,2951.1,1045.1,2978.8,1011,2978.8z M998.1,2263.5c-1.4,0-3.6,1.3-5.9,3.7c-29.1,29.8-48.5,164.1-46.8,236.7l9.4,412.3
			c0.4,16.4,14,29.6,30.3,29.6h25.9c16.4,0,30-13.3,30.3-29.6l9.4-412.3c1.7-72.6-17.7-207-46.8-236.7
			C1001.6,2264.8,999.5,2263.5,998.1,2263.5z"/>
	</g>
	<g class="st4">
		<path class="st3" d="M2441.7,2647.7l-6.2,268.9c-0.6,25.4-21.3,45.7-46.7,45.7h-25.9c-25.4,0-46.2-20.3-46.8-45.7l-6.1-269.1
			c7.8,82.6,29.3,186.3,65.8,186.3S2433.9,2730.3,2441.7,2647.7z"/>
	</g>
	<g>
		<path class="st3" d="M2388.8,2978.8h-25.9c-34,0-62.4-27.7-63.2-61.7l-9.4-412.3c-1.3-58.4,12.9-216.2,56.2-260.4
			c11-11.2,22-13.6,29.3-13.6c7.3,0,18.4,2.4,29.3,13.6c43.2,44.2,57.5,202.1,56.2,260.4L2452,2917
			C2451.2,2951.1,2422.8,2978.8,2388.8,2978.8z M2375.8,2263.5c-1.4,0-3.6,1.3-5.9,3.7c-29.1,29.8-48.5,164.1-46.8,236.7l9.4,412.3
			c0.4,16.3,14,29.6,30.3,29.6h25.9c16.4,0,30-13.3,30.3-29.6l9.4-412.3c1.7-72.6-17.7-207-46.8-236.7
			C2379.4,2264.8,2377.3,2263.5,2375.8,2263.5z"/>
	</g>
	<g>
		<path class="st6" d="M2283.5,1391c0,491.6-167.7,901.1-244.1,1062.1c-21,44.3-72.2,73.4-129.2,73.4h-446.5
			c-57,0-108.2-29.1-129.2-73.4c-76.4-161-244.1-570.5-244.1-1062.1c0-885.8,456.8-1374.6,596.6-1374.6S2283.5,505.2,2283.5,1391z"
			/>
	</g>
	<g>
		<g class="st4">
			<path class="st3" d="M1334.5,2414.2c21,43.3,72.2,71.7,129.3,71.7h446.5c57.1,0,108.2-28.4,129.2-71.7
				c75.3-155.1,239.3-546,244-1017.1c-0.3-44.6-1.7-88.2-4.3-130.7c4.4,414.4-144.5,1062-595.7,1062
				c-451.2,0-591.5-635.8-588.7-1062c-2.9,47.2-4.4,95.7-4.4,145.5c0-5,0.1-9.9,0.1-14.8C1095.2,1868.2,1259.2,2259.1,1334.5,2414.2
				z"/>
		</g>
	</g>
	<g>
		<path class="st3" d="M1910.2,2542.9h-446.5c-63.7,0-120.2-32.5-144.1-82.8c-73.9-155.7-245.7-571.6-245.7-1069.2
			c0-486.7,134.9-827.4,248-1027.6C1455.4,127.4,1609.6,0,1687,0s231.6,127.4,365,363.4c113.1,200.1,248,540.8,248,1027.6
			c0,497.6-171.8,913.5-245.7,1069.2C2030.4,2510.5,1973.9,2542.9,1910.2,2542.9z M1687,32.9c-56.6,0-202.7,110.2-336.4,346.8
			c-111.2,196.7-243.7,531.8-243.7,1011.4c0,490.9,169.6,901.4,242.5,1055.1c18.2,38.3,64.1,64,114.4,64h446.5
			c50.3,0,96.2-25.7,114.4-64c72.9-153.7,242.5-564.2,242.5-1055.1c0-479.6-132.6-814.7-243.8-1011.4
			C1889.6,143.1,1743.6,32.9,1687,32.9z"/>
	</g>
	<g class="st8">
		<path class="st3" d="M2163.2,1589.2c0,100.8-30.5,194.4-82.7,272.3c-87.9,130.9-237.1,217-406.6,217
			c-147.2,0-279.2-65-368.9-167.9c-74.9-85.9-120.3-198.4-120.3-321.4c0-270.2,219-489.3,489.3-489.3S2163.2,1319,2163.2,1589.2z"/>
	</g>
	<g>
		<path class="st0" d="M2163.2,1481.4c0,100.8-30.5,194.4-82.7,272.3c-87.9,130.9-237.1,217-406.6,217
			c-147.2,0-279.2-65-368.9-167.9c-74.9-85.9-120.3-198.4-120.3-321.4c0-270.2,219-489.3,489.3-489.3S2163.2,1211.1,2163.2,1481.4z"
			/>
	</g>
	<g class="st9">
		<path class="st3" d="M2163.1,1481.3c0,100.8-30.5,194.4-82.6,272.3c-87.9,130.9-237.2,217-406.6,217
			c-147.2,0-279.2-65-368.9-167.9c-75-86-120.3-198.4-120.3-321.4c0-9,0.2-17.9,0.7-26.8c6.1,112.5,50.2,214.9,119.6,294.6
			c89.7,102.9,221.7,167.9,368.9,167.9c169.4,0,318.7-86.1,406.6-217c47.5-70.8,76.9-154.6,81.9-245.1
			C2162.9,1463.6,2163.1,1472.5,2163.1,1481.3z"/>
	</g>
	<g>
		<path class="st10" d="M1932.4,2526.5v60.8c0,47-38.1,85.1-85.1,85.1h-320.8c-47,0-85.1-38.1-85.1-85.1v-60.8H1932.4z"/>
	</g>
	<g class="st4">
		<path class="st3" d="M1533,2587.3v-60.8h-91.5v60.8c0,47,38.1,85.1,85.1,85.1h91.5C1571,2672.4,1533,2634.3,1533,2587.3z"/>
	</g>
	<g class="st5">
		<path class="st6" d="M1932.4,2526.5v60.8c0,47-38.1,85-85,85h-53.1c46.9,0,85-38.1,85-85v-60.8H1932.4z"/>
	</g>
	<g>
		<path class="st3" d="M1892.7,2759.7c0,23.8-19.3,43.1-43.1,43.1h-325.2c-23.8,0-43.1-19.3-43.1-43.1c0-7.9,2.1-15.5,6.2-22.3
			l39.2-65h320.8l39.2,65C1890.6,2744.1,1892.7,2751.8,1892.7,2759.7z"/>
	</g>
	<g class="st5">
		<path class="st6" d="M1897.8,2759.7c0,23.8-19.3,43.2-43.1,43.2h-46.4c23.8,0,43.1-19.3,43.1-43.2c0-7.9-2.1-15.5-6.2-22.3
			l-39.2-65h46.4l39.1,65C1895.7,2744.2,1897.8,2751.8,1897.8,2759.7z"/>
	</g>
	<g class="st5">
		<path class="st6" d="M1475.8,2759.7c0,23.8,19.3,43.2,43.1,43.2h46.4c-23.8,0-43.1-19.3-43.1-43.2c0-7.9,2.1-15.5,6.2-22.3
			l39.2-65h-46.4l-39.1,65C1478,2744.2,1475.8,2751.8,1475.8,2759.7z"/>
	</g>
	<g>
		<path class="st0" d="M2189.4,729.9c-153,19.2-319.7,29.8-494,29.8c-180.5,0-352.8-11.3-510.1-31.9
			c141.6-463.2,402.1-711.4,501.7-711.4C1786.7,16.4,2047.9,265.3,2189.4,729.9z"/>
	</g>
	<g class="st11">
		<path class="st6" d="M1823.5,260.3c79.6,90.8,152.1,209.3,182.5,359.3c21.1,104.3-152.6-113.4-214.4-226.9
			C1688.7,203.8,1729.7,153.2,1823.5,260.3z"/>
	</g>
	<g class="st5">
		<path class="st6" d="M1686.9,11.3c-97.8,0-350.9,239.4-494,686.7c7,0.9,14,1.8,21.1,2.6c145.7-407.2,379.7-624.4,472.9-624.4
			c93.3,0,328,217.9,473.7,626.4c7.1-0.8,14.1-1.7,21-2.6C2038.6,251.4,1784.9,11.3,1686.9,11.3z"/>
	</g>
	<g>
		<path class="st3" d="M1695.4,776.1c-177.2,0-349.5-10.8-512.3-32l-19.2-2.5l5.7-18.6c80.3-262.8,190.9-435.9,269.5-534.8
			C1531.2,72.1,1626.2,0,1686.9,0c60.9,0,156.1,72.3,248.5,188.7c78.7,99.2,189.5,272.8,269.7,536.4l5.7,18.6l-19.3,2.4
			C2033.5,766,1866.6,776.1,1695.4,776.1z M1206.7,714c155.6,19.4,319.9,29.3,488.7,29.3c162.8,0,321.7-9.2,472.5-27.3
			c-78.2-248.1-183.1-412.2-258.2-506.8C1813,87.4,1728.2,32.8,1686.9,32.8c-41.1,0-125.8,54.4-222.3,175.8
			C1389.7,303,1284.9,466.6,1206.7,714z"/>
	</g>
	<g>
		<path class="st3" d="M1847.3,2688.8h-320.8c-56,0-101.5-45.5-101.5-101.5v-77.2h523.8v77.2
			C1948.8,2643.3,1903.3,2688.8,1847.3,2688.8z M1457.9,2542.9v44.4c0,37.9,30.8,68.7,68.7,68.7h320.8c37.9,0,68.7-30.8,68.7-68.7
			v-44.4H1457.9z"/>
	</g>
	<g>
		<path class="st3" d="M1849.6,2819.2h-325.2c-32.8,0-59.6-26.7-59.6-59.6c0-10.9,3-21.5,8.6-30.8l43.9-72.9h339.3l43.9,73
			c5.6,9.2,8.6,19.9,8.6,30.7C1909.1,2792.5,1882.4,2819.2,1849.6,2819.2z M1535.8,2688.8l-34.4,57.1c-2.5,4.2-3.8,8.9-3.8,13.8
			c0,14.7,12,26.7,26.7,26.7h325.2c14.7,0,26.7-12,26.7-26.7c0-4.9-1.3-9.6-3.8-13.8l-34.4-57.1H1535.8z"/>
	</g>
	<g class="st12">
		<path class="st6" d="M2163.2,1470.9c0,9.8-0.3,19.5-0.9,29.1c-15-256.7-227.9-460.2-488.4-460.2s-473.4,203.6-488.4,460.2
			c-0.6-9.6-0.9-19.3-0.9-29.1c0-270.2,219-489.3,489.3-489.3S2163.2,1200.7,2163.2,1470.9z"/>
	</g>
	<g>
		<path class="st3" d="M1673.9,1987c-278.8,0-505.7-226.9-505.7-505.7s226.9-505.7,505.7-505.7c278.8,0,505.7,226.9,505.7,505.7
			S1952.8,1987,1673.9,1987z M1673.9,1008.5c-260.7,0-472.9,212.1-472.9,472.9s212.1,472.9,472.9,472.9s472.9-212.1,472.9-472.9
			S1934.6,1008.5,1673.9,1008.5z"/>
	</g>
	<g>
		<path class="st0" d="M1687,2247.1c-48.8,0-70.7,184.6-69.1,257.2l9.4,412.3c0.6,25.4,21.3,45.7,46.7,45.7l0,0h25.9
			c25.4,0,46.2-20.3,46.7-45.7l9.4-412.3C1757.7,2431.7,1735.7,2247.1,1687,2247.1z"/>
	</g>
	<g class="st5">
		<path class="st6" d="M1756.1,2499.2l-1.2,53c-5.3-84.8-27.4-212.3-67.9-212.3c-40.5,0-62.5,127.6-67.9,212.3l-1.2-53.1
			c-1.7-72.6,20.3-257.2,69.1-257.2C1735.7,2242,1757.7,2426.6,1756.1,2499.2z"/>
	</g>
	<g>
		<path class="st3" d="M1695.4,776.1c-177.2,0-349.5-10.8-512.3-32l-19.2-2.5l5.7-18.6c80.3-262.8,190.9-435.9,269.5-534.8
			C1531.2,72.1,1626.2,0,1686.9,0c60.9,0,156.1,72.3,248.5,188.7c78.7,99.2,189.5,272.8,269.7,536.4l5.7,18.6l-19.3,2.4
			C2033.5,766,1866.6,776.1,1695.4,776.1z M1206.7,714c155.6,19.4,319.9,29.3,488.7,29.3c162.8,0,321.7-9.2,472.5-27.3
			c-78.2-248.1-183.1-412.2-258.2-506.8C1813,87.4,1728.2,32.8,1686.9,32.8c-41.1,0-125.8,54.4-222.3,175.8
			C1389.7,303,1284.9,466.6,1206.7,714z"/>
	</g>
	<g class="st4">
		<path class="st3" d="M1753.5,2647.7l-6.2,268.9c-0.6,25.4-21.3,45.7-46.7,45.7h-25.9c-25.4,0-46.2-20.3-46.8-45.7l-6.1-269.1
			c7.8,82.6,29.3,186.3,65.8,186.3C1724.1,2833.8,1745.6,2730.3,1753.5,2647.7z"/>
	</g>
	<g>
		<path class="st3" d="M1699.9,2978.8H1674c-34.1,0-62.4-27.7-63.2-61.7l-9.4-412.3c-1.3-58.4,12.9-216.2,56.2-260.4
			c11-11.2,22-13.6,29.3-13.6s18.4,2.4,29.3,13.6c43.2,44.2,57.5,202.1,56.2,260.4l-9.4,412.3
			C1762.3,2951.1,1733.9,2978.8,1699.9,2978.8z M1687,2263.5c-1.4,0-3.6,1.3-5.9,3.7c-29.1,29.8-48.5,164.1-46.8,236.7l9.4,412.3
			c0.4,16.4,14,29.6,30.3,29.6h25.9c16.4,0,30-13.3,30.3-29.6l9.4-412.3c1.7-72.6-17.7-207-46.8-236.7
			C1690.5,2264.8,1688.4,2263.5,1687,2263.5z"/>
	</g>
	<g class="st12">
		<circle class="st6" cx="1673.9" cy="1522.4" r="361.2"/>
	</g>
	<g>
		<path class="st13" d="M2035.1,1481.3c0,190.5-147.4,346.5-334.4,360.2c-8.8,0.7-17.8,1-26.8,1c-43.9,0-86-7.8-124.9-22.2
			c-43.9-16.2-83.9-40.7-117.8-71.6c-39.3-35.7-70.7-79.9-91.2-129.8c-17.5-42.4-27.1-88.9-27.1-137.6
			c0-179.5,130.9-328.4,302.5-356.4c19.1-3.1,38.7-4.8,58.7-4.8c34.6,0,68.1,4.8,99.7,14c45.2,12.9,86.8,34.5,122.9,62.7
			c40.4,31.7,74,71.8,97.9,117.8C2020.4,1364.5,2035.1,1421.2,2035.1,1481.3z"/>
	</g>
	<defs>
		<filter id="Adobe_OpacityMaskFilter" filterUnits="userSpaceOnUse" x="1339.9" y="1120.2" width="433.7" height="628.6">
			<feFlood  style="flood-color:white;flood-opacity:1" result="back"/>
			<feBlend  in="SourceGraphic" in2="back" mode="normal"/>
		</filter>
	</defs>
	<mask maskUnits="userSpaceOnUse" x="1339.9" y="1120.2" width="433.7" height="628.6" id="SVGID_1_">
		<g class="st14">
			<defs>
				<filter id="Adobe_OpacityMaskFilter_1_" filterUnits="userSpaceOnUse" x="1339.9" y="1120.2" width="433.7" height="628.6">
					<feFlood  style="flood-color:white;flood-opacity:1" result="back"/>
					<feBlend  in="SourceGraphic" in2="back" mode="normal"/>
				</filter>
			</defs>
			<mask maskUnits="userSpaceOnUse" x="1339.9" y="1120.2" width="433.7" height="628.6" id="SVGID_1_">
				<g class="st15">
				</g>
			</mask>
			<linearGradient id="SVGID_2_" gradientUnits="userSpaceOnUse" x1="1556.74" y1="1177.0154" x2="1556.74" y2="1631.837">
				<stop  offset="0" style="stop-color:#FFFFFF"/>
				<stop  offset="1" style="stop-color:#000000"/>
			</linearGradient>
			<path class="st16" d="M1773.6,1134.1l-342.5,614.6c-39.3-35.7-70.7-79.9-91.2-129.8l275.3-494c19.1-3.1,38.7-4.8,58.7-4.8
				C1708.5,1120.2,1742,1125,1773.6,1134.1z"/>
		</g>
	</mask>
	<linearGradient id="SVGID_3_" gradientUnits="userSpaceOnUse" x1="1556.74" y1="1177.0154" x2="1556.74" y2="1631.837">
		<stop  offset="0" style="stop-color:#FFFFFF"/>
		<stop  offset="1" style="stop-color:#FFFFFF"/>
	</linearGradient>
	<path class="st17" d="M1773.6,1134.1l-342.5,614.6c-39.3-35.7-70.7-79.9-91.2-129.8l275.3-494c19.1-3.1,38.7-4.8,58.7-4.8
		C1708.5,1120.2,1742,1125,1773.6,1134.1z"/>
	<defs>
		<filter id="Adobe_OpacityMaskFilter_2_" filterUnits="userSpaceOnUse" x="1549" y="1196.8" width="445.4" height="645.7">
			<feFlood  style="flood-color:white;flood-opacity:1" result="back"/>
			<feBlend  in="SourceGraphic" in2="back" mode="normal"/>
		</filter>
	</defs>
	<mask maskUnits="userSpaceOnUse" x="1549" y="1196.8" width="445.4" height="645.7" id="SVGID_4_">
		<g class="st18">
			<defs>
				<filter id="Adobe_OpacityMaskFilter_3_" filterUnits="userSpaceOnUse" x="1549" y="1196.8" width="445.4" height="645.7">
					<feFlood  style="flood-color:white;flood-opacity:1" result="back"/>
					<feBlend  in="SourceGraphic" in2="back" mode="normal"/>
				</filter>
			</defs>
			<mask maskUnits="userSpaceOnUse" x="1549" y="1196.8" width="445.4" height="645.7" id="SVGID_4_">
				<g class="st19">
				</g>
			</mask>
			<linearGradient id="SVGID_5_" gradientUnits="userSpaceOnUse" x1="1771.6609" y1="1255.2388" x2="1771.6609" y2="1722.4465">
				<stop  offset="0" style="stop-color:#FFFFFF"/>
				<stop  offset="1" style="stop-color:#000000"/>
			</linearGradient>
			<path class="st20" d="M1994.4,1314.6l-293.7,526.9c-8.8,0.7-17.8,1-26.8,1c-43.9,0-86-7.8-124.9-22.2l347.5-623.5
				C1936.9,1228.5,1970.4,1268.7,1994.4,1314.6z"/>
		</g>
	</mask>
	<linearGradient id="SVGID_6_" gradientUnits="userSpaceOnUse" x1="1771.6609" y1="1255.2388" x2="1771.6609" y2="1722.4465">
		<stop  offset="0" style="stop-color:#FFFFFF"/>
		<stop  offset="1" style="stop-color:#FFFFFF"/>
	</linearGradient>
	<path class="st21" d="M1994.4,1314.6l-293.7,526.9c-8.8,0.7-17.8,1-26.8,1c-43.9,0-86-7.8-124.9-22.2l347.5-623.5
		C1936.9,1228.5,1970.4,1268.7,1994.4,1314.6z"/>
	<g>
		<path class="st3" d="M1673.9,1858.9c-208.2,0-377.6-169.4-377.6-377.6s169.4-377.6,377.6-377.6s377.6,169.4,377.6,377.6
			S1882.1,1858.9,1673.9,1858.9z M1673.9,1136.6c-190.1,0-344.8,154.7-344.8,344.8s154.7,344.7,344.8,344.7
			c190.1,0,344.8-154.7,344.8-344.7S1864,1136.6,1673.9,1136.6z"/>
	</g>
	<g>
		<defs>
			<path id="SVGID_7_" d="M2020.6,1444.2c0,192.9-83.4,307.6-226,363.3c-79.3,35.7-170.4,34.5-249.5-1.6
				c-198.9-90.9-504.6-271.2-504.6-461.1c0-220.4,367.2-581.9,587.6-581.9S2212.1,827.1,2020.6,1444.2z"/>
		</defs>
		<clipPath id="SVGID_8_">
			<use xlink:href="#SVGID_7_"  style="overflow:visible;"/>
		</clipPath>
		<g class="st22">
			<g>
				<path class="st6" d="M1886.4,1768l-223.2,36.9c-74,12.2-144.5-38.3-156.7-112.3l-36.9-223.2c-12.2-74,38.3-144.5,112.3-156.7
					l223.2-36.9c74-12.2,144.5,38.3,156.7,112.3l36.9,223.2C2010.9,1685.3,1960.4,1755.8,1886.4,1768z"/>
			</g>
			<g>
				<path class="st3" d="M1640.9,1818.2c-30.6,0-60.4-9.5-85.8-27.8c-32.2-23-53.4-57.1-59.8-95.9l-36.9-223.2
					c-6.4-38.8,2.8-77.9,25.8-110c23-32.2,57.1-53.4,95.9-59.8l223.2-36.9c38.8-6.4,77.9,2.8,110,25.8c32.2,23,53.4,57.1,59.8,95.9
					l36.9,223.2c13.3,80.4-41.3,156.6-121.7,169.8l-223.2,36.9C1657,1817.5,1648.9,1818.2,1640.9,1818.2z M1827.4,1285.5
					c-6.8,0-13.6,0.6-20.4,1.7l-223.2,36.9c-32.8,5.4-61.5,23.4-81,50.6c-19.5,27.2-27.2,60.2-21.8,93l36.9,223.2
					c5.4,32.8,23.4,61.5,50.6,81c27.2,19.5,60.2,27.2,93,21.8l223.2-36.9c67.9-11.2,114.1-75.6,102.9-143.5l-36.9-223.2
					c-5.4-32.8-23.4-61.5-50.6-81C1878.4,1293.5,1853.2,1285.5,1827.4,1285.5z"/>
			</g>
			<g>
				<path class="st6" d="M1855.6,1310.3c0,0,150.7,161.3,214,278.4c63.2,117.2,53.8,145.5,53.8,145.5l-191.3,36.3L1855.6,1310.3z"/>
			</g>
			<g>
				<path class="st3" d="M1922.7,1783.9l-84.6-509.1l25.8,27.7c6.2,6.6,152.4,163.7,215.7,280.8c62.4,115.7,56.4,149,54.6,154.5
					l-2.1,6.4L1922.7,1783.9z M1873.2,1346.8l68.2,410.2l170.7-32.4c-1.4-13.7-9.6-50.8-52.7-130.5
					C2013.4,1508.8,1919,1398.3,1873.2,1346.8z"/>
			</g>
			<g>
				<path class="st6" d="M2011,1740.5c-127.9,154.5-435,122.1-435,122.1s-24.7-54.7-40.7-147.6c-10.8-62.6-52.2-465.7,212.6-482.2
					c77-4.8,117.7,107.6,163.2,188.5C1955.5,1500.1,2006.5,1624,2011,1740.5z"/>
			</g>
			<g>
				<path class="st3" d="M1646,1877.1c-40.2,0-67.6-2.7-71.2-3.1l-6.5-0.7l-2.7-6c-1-2.3-25.5-57.1-41.5-150.4
					c-0.5-2.7-43.7-275.8,67-415.9c38.6-48.8,91.1-75.6,156.1-79.6c6.3-0.4,11.7,4.4,12.1,10.7c0.4,6.3-4.4,11.7-10.7,12.1
					c-58.3,3.6-105.2,27.5-139.6,71c-104.6,132.3-62.9,395.2-62.4,397.9c12.5,72.8,30.7,122.2,37.3,138.7
					c44.8,3.4,301.8,16.7,415.5-115.3c-6.6-137.1-76.7-271.4-98.2-309.7c-3.1-5.5-1.1-12.5,4.4-15.6c5.5-3.1,12.5-1.2,15.6,4.4
					c22.4,39.8,95.9,180.7,101.3,324.4l0.2,4.4l-2.8,3.4C1926.8,1860.2,1746.4,1877.1,1646,1877.1z"/>
			</g>
			<g>
				<path class="st6" d="M1657.6,1699.3c-26.6,17.3-71.8,23.6-102.9,25.9c-18.7,1.4-34.8-13-35.7-31.7v0
					c-0.8-17.1,11.5-32,28.4-34.5c28.8-4.2,71.6-11.9,97.5-23.2"/>
			</g>
			<g class="st4">
				<path class="st3" d="M1657.6,1699.3c-26.6,17.3-71.8,23.6-102.9,25.9c-18.7,1.4-34.8-13-35.7-31.7c-0.2-3.8,0.3-7.5,1.3-11
					c6.6,8.2,17,13.2,28.4,12.4c31.1-2.2,76.2-8.5,102.8-25.8L1657.6,1699.3z"/>
			</g>
			<g>
				<path class="st3" d="M1552.2,1735.4c-10.6,0-20.7-3.8-28.8-11c-8.9-7.9-14-18.7-14.6-30.6c-1-22.4,14.9-41.8,37.1-45
					c42.2-6.2,75.9-14.2,94.9-22.5c3.5-1.5,15.7-4.9,26.5,15.2c10.2,18.9,15.9,53.1-4.2,66.2c-28.1,18.3-74.1,25-107.8,27.5
					C1554.3,1735.3,1553.2,1735.4,1552.2,1735.4z M1646.2,1646.1c-26.6,10.9-67.3,18.4-97.3,22.8c-11.8,1.7-20.3,12.1-19.7,24
					c0.3,6.3,3.1,12.1,7.8,16.3c4.7,4.2,10.8,6.2,17,5.8c44.2-3.2,79.1-11.8,98.1-24.2h0c4-2.6,4.4-10.3,4.3-13.5
					C1656.2,1664.3,1650.1,1650.5,1646.2,1646.1z"/>
			</g>
			<g>
				<path class="st6" d="M1878.5,1656.1c31.2,6.1,75.4-5.1,105.1-14.8c17.8-5.8,27.4-25.1,21.1-42.8l0,0
					c-5.7-16.1-22.7-25.4-39.3-21.3c-28.2,6.9-70.9,15.9-99.1,15.1"/>
			</g>
			<g class="st4">
				<path class="st3" d="M1983.6,1641.4c-29.7,9.6-74,20.8-105.1,14.7l-5.8-30.6c31.2,6,75.3-5.2,105-14.8
					c10.8-3.5,18.6-12,21.6-22.1c2.3,2.9,4.2,6.2,5.5,9.9C2010.9,1616.2,2001.4,1635.6,1983.6,1641.4z"/>
			</g>
			<g>
				<path class="st3" d="M1898.1,1668c-7.6,0-14.8-0.6-21.6-1.9c-23.6-4.6-31.2-38.4-28.8-59.8c2.5-22.8,15.1-24.3,18.9-24.1
					c20.9,0.5,55-4.7,96.4-14.9c21.8-5.3,43.8,6.6,51.3,27.8c3.9,11.2,3.2,23.2-2,33.8c-5.2,10.6-14.3,18.4-25.6,22.1
					C1961.2,1659.3,1927.4,1668,1898.1,1668z M1869.1,1602.6c-2,5.5-2.4,20.6,2.2,32.6c1.2,3,4.4,10,9.1,10.9l0,0
					c22.4,4.3,57.9-0.8,100-14.4c6-1.9,10.8-6.1,13.6-11.8c2.8-5.7,3.2-12.1,1.1-18c-4-11.3-15.7-17.6-27.3-14.8
					c-29.3,7.2-69.5,15.5-98.3,15.5C1869.4,1602.6,1869.2,1602.6,1869.1,1602.6z"/>
			</g>
			<g>
				<path class="st6" d="M1873.1,1569.2l19.9,102c3.7,18.9-8.8,37.5-27.7,41.2l-187.9,36.7c-18.9,3.7-37.4-8.8-41.1-27.7l-19.9-102
					c-3.7-18.9,8.8-37.4,27.7-41.1l187.9-36.7c11.1-2.2,22.1,1.3,30.1,8.3C1867.5,1554.8,1871.6,1561.5,1873.1,1569.2z"/>
			</g>
			<g class="st4">
				<path class="st3" d="M1873.1,1569.2l19.9,102c3.7,18.9-8.8,37.4-27.7,41.1l-187.9,36.7c-18.9,3.7-37.4-8.8-41.1-27.7l-7.5-38.2
					c33.8,23.3,92.9,30.5,143.8,20.8c16.4-3.1,27-18.6,25-35.2c0-0.2,0-0.3-0.1-0.5c-1.5-14.6,8-28.5,22.1-32.3
					c16.1-4.4,32.2,5,36.9,20.4c18.7-35.2,1.2-86.7,5.4-106.6C1867.5,1554.8,1871.6,1561.4,1873.1,1569.2z"/>
			</g>
			<g>
				<path class="st3" d="M1670.6,1759.9c-21.2,0-40.2-15-44.4-36.6l-19.9-102.1c-4.8-24.5,11.2-48.3,35.7-53.1l187.9-36.7
					c11.8-2.3,23.9,0.1,33.9,6.9c10,6.8,16.8,17,19.2,28.8l19.9,102.1c2.3,11.8-0.1,23.9-6.9,33.9c-6.8,10-17,16.8-28.8,19.2
					l-187.9,36.7C1676.4,1759.7,1673.5,1759.9,1670.6,1759.9z M1838.6,1551.1c-1.6,0-3.2,0.2-4.8,0.5l-187.9,36.7
					c-13.5,2.6-22.3,15.7-19.7,29.2l19.9,102.1c2.6,13.5,15.7,22.3,29.2,19.7l187.9-36.7c6.5-1.3,12.1-5,15.8-10.6
					c3.7-5.5,5.1-12.2,3.8-18.7l-19.9-102.1c-1.3-6.5-5-12.1-10.6-15.8C1848.4,1552.5,1843.5,1551.1,1838.6,1551.1z"/>
			</g>
			<g>
				
					<ellipse transform="matrix(0.955 -0.2966 0.2966 0.955 -402.179 613.5873)" class="st7" cx="1821.2" cy="1632.3" rx="30.2" ry="30.2"/>
			</g>
			<g class="st12">
				<path class="st6" d="M1850.9,1626.5c0.4,2,0.6,4,0.6,6c-5.4-13-19.4-20.9-33.7-18.1c-14.4,2.8-24.4,15.4-24.5,29.5
					c-0.8-1.9-1.3-3.8-1.7-5.8c-3.2-16.4,7.5-32.3,23.9-35.5C1831.8,1599.5,1847.7,1610.1,1850.9,1626.5z"/>
			</g>
			<g class="st4">
				<path class="st3" d="M1850.9,1626.5c3.2,16.4-7.5,32.3-23.9,35.5c-16.4,3.2-32.3-7.5-35.5-23.9c-0.7-3.8-0.7-7.5-0.1-11.1
					c6.4,10.2,18.7,16,31.3,13.5c12.6-2.5,21.8-12.4,23.9-24.3C1848.7,1619.3,1850.2,1622.7,1850.9,1626.5z"/>
			</g>
			<g>
				<path class="st3" d="M1821.2,1670.2c-17.7,0-33.6-12.6-37.1-30.6c-4-20.5,9.4-40.4,29.9-44.4c9.9-1.9,20,0.1,28.4,5.8
					c8.4,5.6,14.1,14.2,16,24.2l0,0c1.9,9.9-0.1,20-5.8,28.4c-5.6,8.4-14.2,14.1-24.2,16C1826,1670,1823.6,1670.2,1821.2,1670.2z
					 M1821.3,1609.7c-1.5,0-2.9,0.1-4.4,0.4c-12.2,2.4-20.3,14.3-17.9,26.5c2.4,12.2,14.3,20.2,26.5,17.9c5.9-1.2,11-4.6,14.4-9.6
					c3.4-5,4.6-11,3.4-17l0,0c-1.2-5.9-4.6-11.1-9.6-14.4C1830.1,1611,1825.7,1609.7,1821.3,1609.7z"/>
			</g>
			<g>
				<path class="st3" d="M1753.8,1741.8c-3.6,0-6.8-2.5-7.5-6.2l-10.6-54.2c-1.8-9.3-8-17.3-16.5-21.4l-9.1-4.4
					c-12.8-6.2-22-18.3-24.8-32.2l-10-51.3c-0.8-4.1,1.9-8.1,6-8.9c4.1-0.8,8.1,1.9,8.9,6l10,51.3c1.8,9.3,8,17.3,16.5,21.4l9.1,4.4
					c12.8,6.2,22,18.3,24.8,32.2l10.6,54.2c0.8,4.1-1.9,8.1-6,8.9C1754.8,1741.8,1754.3,1741.8,1753.8,1741.8z"/>
			</g>
			<g>
				<path class="st6" d="M1583.1,1401.2c-128.8,13.2-228.4-78.3-228.4-78.3s-6.1-92-46.4-90.2c-28.2,1.3-22.7,41.5-27.2,38.9
					c-31.8-18.3-65.3-45.1-89.5-22.9c-17.2,15.7-6.1,42.8-6.1,42.8s-33.2-4.1-51.4,54.1c-17.8,56.9,35.5,66.9,59.2,89.1
					c163.5,153.4,269.8,150,346.2,121.3"/>
			</g>
			<g class="st4">
				<path class="st3" d="M1539.4,1556L1539.4,1556c-76.4,28.7-182.7,32.1-346.2-121.3c-23.7-22.2-76.9-32.2-59.2-89.1
					c10.9-35,27.3-47.4,38.5-51.8c-3.4,6.3-5.5,14.4-9.5,23.1c-22.3,49.1,54.3,87.9,73.5,77.8c11.8-6.2,15.7-11.5,20.7-35.6
					c5.3-25.6,16-38.5,17.5-37.1c6.9,6.5,14.8,93.4,32,122.6c43.7,74.6,146.3,104.1,217.9,94.3
					C1534.2,1537.7,1542,1546.6,1539.4,1556z"/>
			</g>
			<g>
				<path class="st3" d="M1458.6,1583c-66.9,0-155.9-29.9-273.2-139.9c-5.1-4.8-12.4-9.3-20-14c-24.6-15.1-58.2-35.8-42.3-86.9
					c12.9-41.5,33.8-55.5,48.2-60c-1.8-11.9-1.3-29.2,12.6-41.9c27-24.8,60.1-4.6,89.2,13.2c0.3,0.2,0.6,0.4,0.9,0.5
					c3.1-13.2,10.8-31.6,33.8-32.7c45.6-2.1,55.9,74.1,58,96c17.9,15,106.8,83.7,216.2,72.6c6.3-0.6,11.9,3.9,12.5,10.2
					c0.6,6.3-3.9,11.9-10.2,12.5c-132.4,13.5-233-77.4-237.3-81.3c-2.2-2-3.5-4.7-3.7-7.7c-1.7-25.3-12.8-80.6-34.5-79.5
					c-8,0.4-11.4,5.8-14,22.4c-1,6.4-1.9,12.4-8.2,15.4c-3.6,1.7-7.8,1.5-11.3-0.5c-4.7-2.7-9.5-5.6-14.2-8.5
					c-29.5-18-48.4-28.1-61.8-15.8c-11,10.1-3.4,29.9-3.3,30.1c1.5,3.8,1,8-1.5,11.3c-2.5,3.2-6.5,4.9-10.5,4.4
					c-0.7,0-24.3-1.1-39.1,46.2c-10.1,32.5,5.7,44.2,32.4,60.6c8.3,5.1,16.9,10.4,23.7,16.8c166.9,156.6,270.7,142.9,334.3,118.9
					c5.9-2.2,12.5,0.8,14.7,6.7c2.2,5.9-0.8,12.5-6.7,14.7C1520.2,1575.4,1492.2,1583,1458.6,1583z"/>
			</g>
			<g>
				<g>
					<path class="st6" d="M1974.1,1191.3L1974.1,1191.3c-3.2,0.4-6.2-1.8-6.6-5.1l-22.3-168c-0.4-3.2,1.8-6.2,5.1-6.6v0
						c33.8-4.5,64.8,19.3,69.3,53.1l7.6,57.3C2031.7,1155.8,2007.9,1186.8,1974.1,1191.3z"/>
					<path class="st3" d="M1973.4,1193.4c-3.9,0-7.3-2.9-7.9-6.9l-22.3-168c-0.6-4.3,2.5-8.3,6.8-8.9c34.9-4.6,67,20,71.6,54.9
						l7.6,57.3c2.2,16.9-2.2,33.6-12.6,47.2c-10.4,13.5-25.4,22.2-42.3,24.4l0,0C1974.1,1193.4,1973.7,1193.4,1973.4,1193.4z
						 M1958.5,1013.1c-2.6,0-5.2,0.2-7.9,0.5c-2.1,0.3-3.6,2.2-3.3,4.3l22.3,168c0.1,1,0.7,1.9,1.5,2.5c0.8,0.6,1.8,0.9,2.8,0.8h0
						c15.8-2.1,29.8-10.2,39.5-22.9c9.7-12.7,13.9-28.3,11.8-44.1l-7.6-57.3C2013.6,1035,1987.9,1013.1,1958.5,1013.1z"/>
				</g>
				<g class="st4">
					<path class="st3" d="M2023.7,1095.1l3.6,26.9c4.5,33.8-19.3,64.8-53.1,69.3c-3.2,0.4-6.2-1.9-6.6-5.1l-5.9-44.7
						c1.2,1.9,3.4,3.1,5.8,2.8l4-0.5C1998.1,1140.2,2018.5,1120.1,2023.7,1095.1z"/>
				</g>
				<g>
					<path class="st3" d="M1973.3,1202.8c-3.8,0-7.4-1.2-10.5-3.6c-3.7-2.8-6-6.9-6.6-11.5l-22.3-168c-1.3-9.5,5.4-18.2,14.9-19.4
						c40-5.3,76.9,22.9,82.2,62.9l7.6,57.3c2.6,19.4-2.6,38.6-14.4,54.1c-11.9,15.5-29.1,25.5-48.5,28l0,0
						C1974.9,1202.7,1974.1,1202.8,1973.3,1202.8z M1972.7,1179.9C1972.7,1179.9,1972.7,1179.9,1972.7,1179.9L1972.7,1179.9
						C1972.7,1179.9,1972.7,1179.9,1972.7,1179.9z M1957.4,1022.5l20.7,156.4c11.1-2.7,20.8-9.1,27.9-18.3
						c8.2-10.7,11.7-23.9,9.9-37.2l-7.6-57.3C2004.9,1040.5,1982.5,1022.1,1957.4,1022.5z"/>
				</g>
				<g>
					<path class="st6" d="M1395.7,1085.1L1395.7,1085.1c3.2-0.4,6.2,1.8,6.6,5.1l22.3,168c0.4,3.2-1.8,6.2-5.1,6.6h0
						c-33.8,4.5-64.8-19.3-69.3-53.1l-7.6-57.3C1338.1,1120.6,1361.9,1089.6,1395.7,1085.1z"/>
					<path class="st3" d="M1411.4,1267.4c-31.5,0-58.9-23.4-63.2-55.4l-7.6-57.3c-4.6-34.9,20-67,54.9-71.6c2.1-0.3,4.2,0.3,5.9,1.6
						c1.7,1.3,2.8,3.2,3,5.3l22.3,168c0.3,2.1-0.3,4.2-1.6,5.9c-1.3,1.7-3.2,2.8-5.3,3C1417,1267.2,1414.1,1267.4,1411.4,1267.4z
						 M1396.5,1087.1c-0.2,0-0.3,0-0.5,0l0,0c-32.6,4.3-55.6,34.4-51.3,67l7.6,57.3c4.3,32.6,34.4,55.7,67,51.3
						c1-0.1,1.9-0.7,2.5-1.5c0.6-0.8,0.9-1.8,0.8-2.8l-22.3-168c-0.1-1-0.7-1.9-1.5-2.5C1398.1,1087.4,1397.3,1087.1,1396.5,1087.1z
						"/>
				</g>
				<g class="st4">
					<path class="st3" d="M1418.4,1211.6l6.2,46.6c0.4,3.2-1.9,6.2-5.1,6.6c-17.7,2.3-34.7-3.1-47.5-13.7
						c-11.5-9.6-19.7-23.4-21.8-39.4l-3.2-24.1c12.4,19.9,35.7,31.8,60.5,28.6l6.1-0.8C1415.9,1215,1417.6,1213.5,1418.4,1211.6z"/>
				</g>
				<g>
					<path class="st3" d="M1411.4,1276.8c-36.1,0-67.6-26.8-72.5-63.6l-7.6-57.3c-5.3-40,22.9-76.9,62.9-82.2
						c4.6-0.6,9.1,0.6,12.8,3.4c3.7,2.8,6,6.9,6.6,11.5l22.3,168c0.6,4.6-0.6,9.1-3.4,12.8c-2.8,3.7-6.9,6-11.5,6.6
						C1417.8,1276.6,1414.5,1276.8,1411.4,1276.8z M1391.7,1097.5c-24.5,6-41.2,29.8-37.8,55.4l7.6,57.3
						c3.4,25.6,25.5,44.3,50.9,43.7L1391.7,1097.5z"/>
				</g>
				<g class="st4">
					<path class="st3" d="M1911.6,1373.3c-47.6,53.9-132.2,100-209.6,104.8c-47.6,2.9-93.1-6.3-133.6-24.8
						c-12.6-5.8-24.7-12.5-36.3-20c-18.3-11.9-35.1-25.9-50.2-41.7c18.1,5.2,37.6,9,58.2,10.4c28.1-96.9,86.7-182.1,201.4-189.2
						C1813.1,1208.2,1852.2,1286.7,1911.6,1373.3z"/>
				</g>
				<g>
					
						<ellipse transform="matrix(0.7071 -0.7071 0.7071 0.7071 -311.3085 1524.8093)" class="st6" cx="1685" cy="1138.2" rx="288.8" ry="288.8"/>
					<path class="st3" d="M1684.8,1429.1c-152.4,0-280.8-119.1-290.2-273.2c-4.7-77.6,21-152.3,72.5-210.5
						c51.5-58.2,122.6-92.8,200.1-97.5c77.5-4.7,152.3,21,210.5,72.5c58.2,51.5,92.8,122.6,97.5,200.1l0,0
						c4.7,77.6-21,152.3-72.5,210.5c-51.5,58.2-122.6,92.8-200.1,97.5C1696.7,1428.9,1690.7,1429.1,1684.8,1429.1z M1685.3,851.4
						c-5.9,0-11.9,0.2-17.8,0.5c-76.5,4.7-146.5,38.8-197.3,96.2c-50.8,57.4-76.2,131.1-71.5,207.5
						c9.6,157.8,145.8,278.4,303.7,268.8c76.5-4.7,146.5-38.8,197.3-96.2s76.2-131.1,71.5-207.5c-4.7-76.5-38.8-146.5-96.2-197.3
						C1822.2,876.6,1755.4,851.4,1685.3,851.4z"/>
				</g>
				<g class="st4">
					<path class="st3" d="M1968.1,1080.9c2.6,12.9,4.4,26.2,5.2,39.7c9.7,159.2-111.5,296.2-270.8,305.9
						c-159.2,9.7-296.2-111.5-305.9-270.8c-0.3-4.6-0.5-9.2-0.5-13.7c28,139.2,155,239.9,300.7,231
						C1851.4,1363.6,1970.2,1234.2,1968.1,1080.9z"/>
				</g>
				<g>
					<path class="st3" d="M1684.8,1438.5c-157.3,0-289.8-122.9-299.5-282c-4.9-80.1,21.7-157.2,74.9-217.3
						c53.2-60.1,126.5-95.8,206.6-100.7c80.1-4.9,157.2,21.7,217.3,74.9c60.1,53.2,95.8,126.5,100.7,206.6l0,0
						c10.1,165.3-116.2,307.9-281.5,318C1697,1438.3,1690.9,1438.5,1684.8,1438.5z M1685.3,860.8c-5.7,0-11.5,0.2-17.2,0.5
						c-74,4.5-141.7,37.5-190.9,93c-49.1,55.5-73.7,126.8-69.2,200.7c9.3,152.7,141.1,269.3,293.7,260c74-4.5,141.7-37.5,190.9-93
						c49.1-55.5,73.7-126.8,69.2-200.7l0,0c-4.5-74-37.5-141.7-93-190.9C1817.7,885.2,1753.1,860.8,1685.3,860.8z"/>
				</g>
				<g>
					<path class="st3" d="M1972.8,1128.1c4.3,56.4-10,110.1-38,155.7c-21,34.2-113.1,98.4-232.1,108.5
						c-110.3,9.4-215.3-41.8-241.2-72.5c-34.6-40.9-56.9-91.8-61.1-148.2c-11.3-149.1,112.1-220.7,270.2-232.7
						C1828.6,926.9,1961.4,979,1972.8,1128.1z"/>
				</g>
				<g class="st5">
					
						<ellipse transform="matrix(0.1032 -0.9947 0.9947 0.1032 575.5041 2868.0996)" class="st6" cx="1878.2" cy="1114.9" rx="51.1" ry="37"/>
				</g>
				<g class="st5">
					
						<ellipse transform="matrix(0.2396 -0.9709 0.9709 0.2396 215.8247 2714.1956)" class="st6" cx="1840.7" cy="1219.3" rx="23.5" ry="20.1"/>
				</g>
				<g class="st4">
					<path class="st23" d="M1906.5,993.2c37.5,30.7,61.7,75,66.2,134.9c4.3,56.4-10,110.1-38,155.8c-21,34.2-113.1,98.4-232.1,108.5
						c-42,3.6-83.2-1.6-119.6-11.2c146-15.6,258.2-94.2,284.2-136.7c35.5-58,53.7-126.1,48.3-197.7
						C1914,1027.7,1911,1009.9,1906.5,993.2z"/>
				</g>
				<g>
					<path class="st3" d="M1412.2,1053c-2.1,0-4.3-0.7-6.1-2c-4.2-3.2-5.3-9-2.6-13.5c45.4-78.8,140.9-129.3,262.3-138.6
						c120.4-9.2,222.4,24.9,279.8,93.3c3.4,3.6,3.7,9.2,0.6,13.2c-3.3,4.3-9.4,5.2-13.8,2.1l-1.1-0.7l-0.9-1.1
						c-53.1-63.6-148.9-95.2-263-86.5c-114.6,8.7-204.4,55.6-246.3,128.7l-0.7,1.1C1418.4,1051.6,1415.3,1053,1412.2,1053z"/>
				</g>
				<g class="st5">
					<path class="st6" d="M1471.4,1255.5c0,0-57.4-143.6,17.5-208.3c74.8-64.7,188.9-73.1,186.8-65.6c0,0-124,40.2-165.8,143.8
						C1477.6,1205.3,1471.4,1255.5,1471.4,1255.5z"/>
				</g>
			</g>
			<g>
				<path class="st3" d="M1294.4,1268.3l0.6,31.6c0,2.1-0.5,4.1-1.4,5.8l-0.4,0.8v0c-1,1.2-2.6,3.7-3.6,5.8
					c-1.2,2.2-2.2,4.5-3.1,6.8c-1.7,4.7-2.8,9.6-3,14.5c-0.2,2.5,0.1,4.9,0.2,7.4c0.6,2.4,0.8,4.9,1.8,7.3c1.4,4.9,4.3,9.3,7.3,13.7
					l0.3,0.5c1.8,2.6,1.1,6.1-1.5,7.9c-2.3,1.6-5.4,1.2-7.3-0.7c-4.5-4.6-9-9.6-12-15.7c-1.7-2.9-2.8-6.2-4-9.4
					c-0.8-3.3-1.8-6.7-2.1-10.1c-0.8-6.8-0.5-13.8,0.8-20.5c0.7-3.3,1.5-6.7,2.6-9.9c0.5-1.6,1.1-3.2,1.8-4.9
					c0.7-1.7,1.3-3.1,2.4-5.2l0,0l-1.8,6.6l-0.6-32.6c-0.1-6.3,4.9-11.5,11.2-11.6c6.3-0.1,11.5,4.9,11.6,11.2L1294.4,1268.3z"/>
			</g>
			<g>
				<path class="st3" d="M1385.8,1570c-2.4,0-4.7-0.8-6.7-2.5c-4.2-3.7-4.7-10.1-1-14.3c48.1-55.1,45.3-178.3,45.2-179.6
					c-0.2-5.6,4.3-10.3,9.9-10.4c5.6-0.2,10.3,4.3,10.4,9.9c0.2,5.4,3.1,132.3-50.2,193.5C1391.5,1568.8,1388.7,1570,1385.8,1570z"
					/>
			</g>
		</g>
	</g>
</g>
</svg>
