<?xml version="1.0" encoding="utf-8"?>
<!-- Generator: Adobe Illustrator 25.1.0, SVG Export Plug-In . SVG Version: 6.00 Build 0)  -->
<svg version="1.1" id="Layer_1" xmlns="http://www.w3.org/2000/svg" x="0px"
     y="0px"
     viewBox="0 0 1690.6 3448" style="enable-background:new 0 0 1690.6 3448;" xml:space="preserve">
<style type="text/css">
	.st0{fill:#FFFFFF;}
	.st1{opacity:0.35;}
	.st2{fill:#371A45;}
	.st3{fill:#FF1564;}
	.st4{fill:none;stroke:#293856;stroke-width:32.7507;stroke-linecap:round;stroke-miterlimit:10;}
	.st5{fill:#293856;}
	.st6{fill:#22A7F0;}
	.st7{opacity:0.7;}
	.st8{fill:#AFAFB2;}
	.st9{fill:#32B1D1;}
	.st10{opacity:0.4;}
	.st11{opacity:0.3;}
	.st12{opacity:0.5;}
	.st13{fill:#111A28;}
</style>
    <g>
	<g>
		<g>
			<g>
				<path class="st0" d="M1134.2,3048.6c-236.8-4.6-465.3-38.7-693.1-103.3c-47.5-14.2-85.4-60.5-71.7-111.7
					c52.7-171.9,105.4-343.8,158.1-515.8c13.7-44.6,57.6-69.2,98.6-57C801,2310,975.3,2335.9,1157,2340
					c42.8,0.2,77.7,36.7,77.7,83.3c0.2,179.8,0.5,359.6,0.7,539.4C1233.6,3015.6,1183.8,3048.8,1134.2,3048.6z"/>
			</g>
		</g>
        <g class="st1">
			<g>
				<path class="st2" d="M1235.1,2776c0.1,62.2,0.2,124.5,0.3,186.7c-1.8,52.9-51.6,86.1-101.2,85.9
					c-236.8-4.6-465.3-38.7-693.1-103.3c-47.5-14.3-85.4-60.5-71.7-111.7c18.2-59.5,36.5-119,54.7-178.5
					c-13.7,44.6,15.5,94.8,65.8,109.8c213.8,60.7,428.2,92.6,650.4,97C1192.6,2862.1,1235.2,2822.6,1235.1,2776z"/>
			</g>
		</g>
        <g>
			<g>
				<path class="st2" d="M604.7,2257.7c7.1,0,14.3,1,21.4,3.1C801,2310,975.3,2335.9,1157,2340c42.8,0.2,77.7,36.7,77.7,83.3
					c0.2,179.8,0.5,359.6,0.7,539.5c-1.8,52.7-51.3,85.9-100.7,85.9c-0.2,0-0.3,0-0.5,0c-236.8-4.6-465.3-38.7-693.1-103.3
					c-47.5-14.2-85.4-60.5-71.7-111.7c52.7-171.9,105.4-343.9,158.1-515.8C538.7,2280.9,570.7,2257.7,604.7,2257.7 M604.7,2225
					L604.7,2225c-49.7,0-93.3,33.5-108.6,83.3L338,2824.1c-0.1,0.4-0.2,0.7-0.3,1.1c-19.1,71.4,32.8,133.1,94,151.5
					c0.2,0,0.3,0.1,0.5,0.1c231.5,65.7,460.9,99.9,701.4,104.6c0.2,0,0.3,0,0.5,0h0.6c63.6,0,130.9-44,133.5-117.5
					c0-0.4,0-0.8,0-1.2l-0.7-500.9l-0.1-38.6c0-30.8-11.3-59.7-31.7-81.4c-20.7-22-48.5-34.3-78.3-34.6
					c-179-4-349.9-29.4-522.3-77.9C625.2,2226.4,615,2225,604.7,2225L604.7,2225z"/>
			</g>
		</g>
	</g>
        <g>
		<g>
			<path class="st0" d="M1669.8,2585.1c-4.1,14-14.1,27.9-22.4,37c-35.8,39.3-92.3,39.7-92.3,39.7s46.7,21,18.3,50.4
				c-19.6,20.2-248.3,52.5-393.1-129.6c-6.4-8.1-12.7-16.5-18.7-25.5l-34.6-190.5l-21.4-118.1c0,0,17.1,14.2,44.9,35.8
				c13.2,10.3,28.9,22.3,46.3,35.2c88.2,65.7,220.7,155.9,306.1,175c32.6,7.2,60.3,12.3,83.3,16.7
				C1659.5,2525.2,1685.2,2532.6,1669.8,2585.1z"/>
		</g>
	</g>
        <g class="st1">
		<g>
			<path class="st2" d="M1573.4,2712.2c-20.4,21.1-269,55.4-411.8-155.1l-56-308.6c0,0,1.9,1.6,5.6,4.5l16.8,112.3
				c96,296.5,433.2,367.9,439.1,313c0.4-3.2,3.7-5.8,0-9.4C1578.6,2677.5,1591.9,2693.1,1573.4,2712.2z"/>
		</g>
	</g>
        <g class="st1">
		<g>
			<path class="st2" d="M1669.8,2585.1c-4.1,14-14.1,27.9-22.4,37c-30.9,33.9-77.3,38.9-89.3,39.6c-19.4-13.6-50.2-26.3-50.2-26.3
				s85.3,2.7,139.6-46.1c9.2-8.2,18.3-23,22.4-37c0.6-2.1,1.1-4.1,1.6-6.1C1675.5,2555.5,1674.9,2567.9,1669.8,2585.1z"/>
		</g>
	</g>
        <g class="st1">
		<g>
			<path class="st2"
                  d="M1567.1,2669c-6.2-4.6-12-7.2-12-7.2s1.1,0,3-0.1C1561.6,2664.1,1564.6,2666.6,1567.1,2669z"/>
		</g>
	</g>
        <g>
		<g>
			<path class="st2" d="M1485.7,2744.5c-11.5,0-23.4-0.5-35.4-1.5c-72.4-6.3-207.9-37.6-302.3-176.6c-5.1-7.5-3.1-17.7,4.4-22.7
				c7.5-5.1,17.7-3.1,22.7,4.4c73.3,108,173.1,145.5,244,157.9c74.8,13.1,132.8,1.4,142.9-5.5c1.9-2,4.6-5.4,4.2-7.9
				c-1-5.3-11.1-12.7-17.8-15.7c-7-3.2-10.8-10.8-9.2-18.3s8.2-12.9,15.9-12.9c0.4,0,49.9-1,80.3-34.4c9.1-10,16.1-21.4,18.8-30.6
				c4.2-14.5,4.8-24,1.6-29.2c-6.5-10.6-34.2-16.6-72.6-23.9l-11.2-2.1c-21-4-44.9-8.5-72.6-14.6
				c-139.9-31.1-393.4-240.5-404.2-249.4c-7-5.8-7.9-16.1-2.2-23.1c5.8-7,16.1-7.9,23.1-2.2c2.6,2.1,258.2,213.2,390.4,242.6
				c27.2,6.1,50.7,10.5,71.5,14.4l11.3,2.1c49.5,9.4,80.6,16.4,94.4,39c10.9,17.8,6.7,39,1.9,55.5c-5.8,19.8-20.1,37-26,43.5
				c-20.3,22.3-46,33.6-66.9,39.3c2.6,4.1,4.6,8.8,5.6,13.9c1.7,9,0.9,22.8-13.2,37.3C1572.7,2736.5,1532.2,2744.5,1485.7,2744.5z"
            />
		</g>
	</g>
        <g>
		<g>
			<path class="st2" d="M422.3,1594.3c-8.4,0-15.5-6.4-16.3-14.9c-8.8-99.9,22.9-150.4,50.9-194.9c26.9-42.8,50.1-79.8,33.9-157.9
				c-18.6-89.5-27.5-123.7-27.6-124c-2.3-8.8,3-17.7,11.7-20s17.7,3,20,11.7c0.4,1.4,9.1,35.1,27.9,125.6
				c18.9,91-10.1,137.3-38.2,182c-26.5,42.1-53.8,85.6-46,174.6c0.8,9-5.9,17-14.9,17.7C423.2,1594.3,422.8,1594.3,422.3,1594.3z"/>
		</g>
	</g>
        <g>
		<g>
			<path class="st3" d="M515.3,1076.1l40.9,79.3c12,23.3-1.8,51.8-27.5,56.4c-8.6,1.5-18.6,2.7-30.4,3.4
				c-17.1,0.9-31.4-0.4-43.3-2.8c-25.2-5-39-32.3-27.8-55.5l38.9-80.8H515.3z"/>
		</g>
	</g>
        <g>
		<g class="st1">
			<g>
				<path class="st2" d="M440,1173.6c11.9,2.4,26.2,3.7,43.3,2.8c11.7-0.6,21.8-1.8,30.4-3.4c19.3-3.4,31.8-20.2,31.9-38.2
					l-30.2-58.7h-49.3l-38.9,80.8c-1.5,3.1-2.5,6.3-3.1,9.5C428.5,1169.9,433.9,1172.4,440,1173.6z"/>
			</g>
		</g>
	</g>
        <g>
		<g>
			<path class="st2" d="M487.6,1232.9c-12.6,0-24.7-1.1-36-3.4c-17.4-3.5-31.9-14.6-39.8-30.4c-7.8-15.7-8-33.8-0.3-49.7l43.7-90.7
				H526l45.7,88.7c8.3,16.2,8.5,34.8,0.4,51.1c-8,16.2-22.7,27.2-40.4,30.4c-9.9,1.8-20.8,3-32.5,3.6
				C495.3,1232.8,491.4,1232.9,487.6,1232.9z M477,1093.6l-34.2,71c-2.9,6.1-2.9,13,0.1,19.1c3.1,6.1,8.7,10.4,15.5,11.8
				c11.9,2.4,25,3.2,39,2.5c10.2-0.5,19.7-1.6,28.2-3.1c6.7-1.2,12.2-5.4,15.3-11.6c3.1-6.3,3.1-13.5-0.2-19.8l-36-69.8L477,1093.6
				L477,1093.6z"/>
		</g>
	</g>
        <g>
		<g>
			<path class="st0" d="M1117.7,2196.9"/>
		</g>
	</g>
        <g>
		<g>
			<path class="st4" d="M1117.7,2196.9"/>
		</g>
	</g>
        <g>
		<g>
			<path class="st5" d="M538.4,1903.3c0,0.5,0,1-0.1,1.5c5.1,7.4,10.7,14.6,16.8,21.7L538.4,1903.3z"/>
		</g>
	</g>
        <g>
		<g>
			<path class="st0" d="M762.7,2201l-70.9,78.2l-2.7,2.9L597,2383.5c0,0-7.8-5.4-20.5-17.5c-56.1-53.8-207-239.8-183.2-667.4
				c0,0-22.5-8.6-46.7-30.9c-57.1-52.3-5.7-178,19.8-218.4c28.1-44.6,57.8-26.1,61.4-23.6c18.5-17.9,46.6-22.1,88.2-8
				c104,35.3,107.5,106.1,107.5,106.1c3.6,15,11.3,58.4,21.5,116.4c7.6,43.4,16.6,95,26.3,149.1c20.9,116.6,45.1,245,65.4,328.5
				C746.5,2158,755.4,2187.8,762.7,2201z"/>
		</g>
	</g>
        <g class="st1">
		<g>
			<path class="st2" d="M659.2,2315l-62.2,68.5c0,0-7.8-5.4-20.5-17.5c-56.1-53.8-207-239.8-183.2-667.4c0,0-22.5-8.6-46.7-30.9
				c-32-29.4-29.9-81.9-17.4-129.4c8.4,143.9,118.5,135.1,152.2,129.6c14.9-2.4,21.3-49.4,21.3-49.4c-1.7,30.1,7,60.9-3,87
				c-13,34-54.6,37.3-57.2,83.8c-19.2,338.7,157.2,468.9,207.3,516.9C653.3,2309.7,656.5,2312.6,659.2,2315z"/>
		</g>
	</g>
        <g>
		<g>
			<path class="st2" d="M777.2,2179.1c-5.6,0-11-2.8-14.1-8C687.3,2044.8,644.2,1761.3,621,1609c-5.9-38.5-10.5-68.9-13.5-81.5
				l-0.3-1.5l-0.1-1.5c-0.2-2.3-5.3-60.4-96.4-91.4c-28.5-9.7-50.3-10.1-64.7-1.1c-16,9.9-26.2,32.5-31.1,68.9
				c-4,30,8,51.3,21.4,53.8c15.8,2.9,39.2-20.1,53.1-77.7c2.1-8.8,11-14.2,19.8-12.1s14.2,11,12.1,19.8
				c-20.3,84.2-60.3,108-91,102.3c-33.4-6.2-53.9-45.1-47.8-90.4c6.3-46.8,21.5-77,46.3-92.4c23.5-14.6,53.8-15.2,92.5-2.1
				c105.4,35.8,117.2,106.6,118.5,119c3.3,14.4,7.7,43.3,13.7,82.9c21.2,139.4,65.3,429.4,137.8,550.2c4.7,7.8,2.1,17.8-5.6,22.5
				C783,2178.3,780.1,2179.1,777.2,2179.1z"/>
		</g>
	</g>
        <g>
		<g>
			<path class="st2" d="M597,2399.8c-3.3,0-6.6-1-9.5-3c-2.5-1.8-62.1-45.1-117.8-153.8c-50-97.5-106.4-269-93.3-534.4
				c-9.8-5.1-25.1-14.4-40.8-28.9c-63.4-58.2-14.9-188.6,17-239.2c13.2-20.9,28.9-33.2,46.7-36.4c21.6-3.9,37.2,7.4,38.9,8.7
				c7.2,5.5,8.6,15.8,3.1,23s-15.8,8.6-23,3.1l0,0c0,0-5.9-4-13.6-2.5c-8.1,1.6-16.6,9.1-24.4,21.5
				c-22.3,35.5-71.3,152.9-22.6,197.6c21.3,19.6,41.3,27.5,41.5,27.6l11,4.3l-0.6,11.9c-14.8,262.7,39.7,431.2,88,526.3
				c52.1,102.6,108.4,144,108.9,144.4c7.3,5.3,9,15.5,3.7,22.8C607.1,2397.4,602.1,2399.8,597,2399.8z"/>
		</g>
	</g>
        <g>
		<g>
			<path class="st2" d="M434,2021.3c-16.7,0-27.1-1.4-27.6-1.5c-8.9-1.4-15.1-9.7-13.7-18.6c1.4-8.9,9.7-15.1,18.6-13.7l0,0
				c7.5,1.1,183.4,24.9,252.8-159.2c3.2-8.5,12.6-12.7,21.1-9.6c8.5,3.2,12.7,12.6,9.6,21.1C633.3,2003,493.5,2021.3,434,2021.3z"/>
		</g>
	</g>
        <g>
		<g>
			<path class="st2" d="M424.2,1721.9c-11.9,0-24.3-2.8-37.3-8.4c-8.3-3.6-12.2-13.2-8.6-21.5s13.2-12.2,21.5-8.6
				c16.9,7.2,31,7.5,43.3,0.9c24.2-13.1,43.5-53.9,54.4-114.9c8.6-48.3-5.5-60.3-5.6-60.4c0.6,0.5,1,0.6,1,0.6l16.1-28.5
				c5.7,3.2,33.4,22.9,20.7,94c-13,73.1-36.9,119.5-71.1,137.9C447.9,1719,436.3,1721.9,424.2,1721.9z"/>
		</g>
	</g>
        <g>
		<g>
			<path class="st0" d="M1165.5,2548.2l-5.9,36.9l-2.1-16C1159.5,2562.1,1162,2555.1,1165.5,2548.2z"/>
		</g>
	</g>
        <g>
		<g>
			<path class="st0" d="M1310.4,3355c-117.3,93.3-287.8,93.8-347.1,41.1c-60.1-53.5-75.8-158.9-97.6-276.9
				c-9.2-49.6-21-127.7-21-127.7s-21.7,3.4-52,0.1c-27.8-2.9-47.2-11.5-47.2-11.5s-26,60.7-63.1,144.4
				C635,3231.3,565.3,3326,527.9,3354.2c-47.1,35.6-225.9-18.3-315.4-138.5c-52.5-70.5-60.9-161.7-12-204c9-7.8,20.1-14,33.3-18
				c60.5-18.5,130.9,9.4,130.9,9.4c20.7-86.2,43-166.4,65.5-239.8c14.2-46.5,28.6-90.3,42.7-131C512,2518.9,549,2428.4,576.5,2366
				c28.1-63.9,46.2-98.5,46.2-98.5s4.7-23.9,20.9-54.4c0.1-0.2,0.2-0.3,0.2-0.5c16.6-31.1,45.2-68.8,92.9-94.7
				c45.4-24.6,108.1-38.5,194.4-25.7c144.1,21.4,198.6,110.5,218.2,187.6c0.4,1.5,0.8,3.1,1.1,4.6c5.5,23,7.9,44.7,8.8,63.1
				c0.3,7.2,0.5,13.9,0.4,20c-0.1,21-2,34.2-2,34.2s12.2,66.3,22.7,180.9c3.7,41,7.3,88.3,9.9,140.9c2,38.9,3.5,80.6,4.3,125
				c0.1,4.3,0.2,8.7,0.2,13.1c1.1,80-0.1,168.1-5.2,262.5c0,0,63.5-2.9,117.8,29.5c20.6,12.3,35.2,27.2,44.5,43.6
				C1382,3249.7,1358.3,3316.9,1310.4,3355z"/>
		</g>
	</g>
        <g class="st1">
		<g>
			<path class="st2" d="M1310.3,3355c-117.3,93.3-287.7,93.8-347.1,41.1c-60.1-53.5-75.8-158.9-97.6-276.9
				c-9.2-49.6-21-127.7-21-127.7s-21.7,3.4-52,0.1c-27.8-2.9-47.1-11.6-47.1-11.6s-26,60.7-63.1,144.4
				c-47.4,106.8-117.1,201.5-154.5,229.7c-47.1,35.6-225.9-18.3-315.4-138.5c-52.5-70.5-60.9-161.7-12-204
				c47.6,1.9,101.9,22.7,143.7,65.3c56.9,58,153.6,175.4,198.4,154.2c44.8-21.1,92.3-143,94.9-195.2c2.7-52.2-28.1-110.2-11.4-112.8
				c16.7-2.7,51,28.1,56.3,11.4s-39.6-68.1-22.4-91c10.9-14.6,64.8,68.3,130.1,77.8c85,12.3,142.8-57.6,175.4-40.4
				c13,6.9-55.8,62.8-39.1,71.4c16.7,8.6,62.4,0,65.3,14.7c6.6,33.8-81.7,66.9-83.3,104.2c-1.6,37.2,27.3,213.5,78.2,217.7
				c24.1,2,100.8-19.4,176.7-47.7c71.7-26.7,124.6-78,188.6-44.2C1382,3249.7,1358.3,3316.9,1310.3,3355z"/>
		</g>
	</g>
        <g>
		<g>
			<path class="st2" d="M1087.2,3448c-56.4,0-105.8-13.9-134.8-39.7c-60.4-53.7-78.1-150.8-98.6-263.2l-4.2-22.9
				c-6.7-36.1-14.8-87.7-18.7-113.1c-9.9,0.5-23.8,0.5-39.9-1.2c-14.7-1.6-27.3-4.6-36.4-7.3c-9.8,22.8-30.7,71.1-57.2,130.5
				C649,3240,578.3,3336.7,537.8,3367.2c-21.8,16.5-56.8,15.6-82.4,11.9c-76.3-10.9-189-63.6-256-153.7
				c-41.9-56.2-57.9-126.2-40.8-178.2c11.4-34.7,35.8-58.6,70.6-69.2c46.8-14.3,97.7-3.7,123.9,4c107-435.1,269-727.2,270.7-730.2
				c4.4-7.9,14.4-10.7,22.3-6.3s10.7,14.4,6.3,22.3c-1.6,2.9-165.8,299.1-271.6,739.1l-4.4,18.3l-17.5-6.9
				c-0.6-0.2-65.9-25.5-120.1-9c-24.5,7.5-41,23.7-49,48.1c-13.9,42.2,0.3,100.4,36,148.4c61.4,82.5,164.6,130.8,234.4,140.8
				c26.6,3.8,48.3,1.7,58-5.6c36.3-27.4,103.8-120.6,149.4-223.3c36.7-82.6,62.8-143.6,63-144.2l6.5-15.3l15.2,6.8
				c0.1,0.1,17.6,7.7,42.2,10.3c27.5,2.9,47.6,0,47.8-0.1l16.2-2.4l2.5,16.2c0.1,0.8,11.9,78.4,20.9,127.2l4.2,23
				c19.4,106.5,36.1,198.4,88.1,244.6c52.1,46.3,211.9,49.2,326-41.6c31.9-25.3,50.9-64.7,48.5-100.3c-2.1-30.5-19.2-56.3-49.7-74.4
				c-49.5-29.5-108.1-27.2-108.7-27.2l-18.1,0.8l1-18.1c22.6-417.2-30.8-747.3-31.3-750.6c-1.5-8.9,4.6-17.3,13.5-18.8
				s17.3,4.6,18.8,13.5c0.5,3.3,53,327.8,32.6,740.8c24.2,1.4,68.6,7.4,109,31.5c39.5,23.5,62.8,59.2,65.6,100.3
				c3.1,46.7-20.1,95.8-60.8,128.1C1251.3,3422.9,1162.8,3448,1087.2,3448z"/>
		</g>
	</g>
        <g class="st1">
		<g>
			<path class="st2" d="M1194.8,2861.5c-47-40.3-110.6-56.8-143.5-63l-3.8,25.8c-1.8,36-36.6,60.9-71.2,51.2
				c-49.6-14-116.9-31.5-168.2-39.6c-50.9-8-117.9-15.3-167.8-20.2c-35.6-3.5-58.9-39-47.9-73.1l2.7-14.6
				c-44.2-3-112.6-0.3-164.8,35.2c14.2-46.5,28.6-90.2,42.7-131c56.6-33.6,133.9-31.6,173.4-27.7c17.7-21.7,37.2-39.4,49.9-38.1
				c160.7,17,266.9,46.4,320.2,64.1c8.8,3,16.9,17.2,23.6,35.3c14.4,2.1,92.6,15.3,150.2,57.5c2,38.8,3.5,80.6,4.3,125
				C1194.6,2852.7,1194.7,2857.1,1194.8,2861.5z"/>
		</g>
	</g>
        <g>
		<g>
			<path class="st0" d="M1016.3,2753.1c0,0,138.1,13.4,189.5,104.1c0,0,29.7-54.7,13.2-103.5c-34.5-101.5-195-121.6-195-121.6
				L1016.3,2753.1z"/>
		</g>
	</g>
        <g class="st1">
		<g>
			<path class="st2" d="M1205.8,2857.2c-51.4-90.8-189.5-104.1-189.5-104.1l7.6-120.9c0,0,1.7,0.2,4.8,0.7l-4.3,69
				c0,0,138.1,13.4,189.5,104.1c0,0,5.2-9.5,10-24.1C1225.3,2821.4,1205.8,2857.2,1205.8,2857.2z"/>
		</g>
	</g>
        <g>
		<g>
			<path class="st2" d="M1206.1,2891l-14.6-25.7c-46.5-82.1-175.5-95.8-176.8-95.9l-15.7-1.6l9.7-154.1l17.3,2.2
				c7,0.9,171.2,22.6,208.5,132.6c18.6,54.9-12.9,114.1-14.3,116.5L1206.1,2891z M1033.6,2739c34.7,5.8,118.1,25.4,168.1,84.1
				c5.3-17.8,9.2-42,1.7-64.1c-24.5-72.2-123.9-99.4-164.3-107.6L1033.6,2739z"/>
		</g>
	</g>
        <g>
		<g>
			<path class="st0"
                  d="M652.5,2695.8c0,0-135.5-29.8-212.3,40.8c0,0-11.5-61.2,19.3-102.5c64-86,223-55.7,223-55.7L652.5,2695.8z"
            />
		</g>
	</g>
        <g class="st1">
		<g>
			<path class="st2" d="M682.4,2578.3l-30,117.4c0,0-135.5-29.8-212.3,40.8c0,0-7.3-39,5.4-75.8c-0.1,16.6,2.1,28.4,2.1,28.4
				c76.8-70.6,212.3-40.8,212.3-40.8l18.1-70.8C680.9,2578.1,682.4,2578.3,682.4,2578.3z"/>
		</g>
	</g>
        <g>
		<g>
			<path class="st2" d="M430.4,2765.9l-5-26.6c-0.5-2.8-12.3-68.2,22-114.2c68.8-92.4,230.9-62.8,237.8-61.5l15.7,3l-37.5,146.9
				l-14.2-3.1c-1.5-0.3-129-27.1-198.9,37.2L430.4,2765.9z M618.9,2588.2c-48.5,0-113.7,9.4-147.4,54.8
				c-14.7,19.8-18.2,45.7-18.4,64.8c66.3-42.2,154.1-34.5,188.3-29.3l22.4-87.7C652.8,2589.6,637,2588.2,618.9,2588.2z"/>
		</g>
	</g>
        <g>
		<g>
			<path class="st0" d="M608.3,2704.1c-10.3,31.8,11.5,64.9,44.7,68.2c46.5,4.6,109.1,11.3,156.6,18.8c47.9,7.5,110.7,23.9,157,37
				c32.4,9.1,64.8-14.2,66.5-47.7l9.5-65c1.2-23.5-16.3-108.4-38.6-115.9c-49.7-16.6-148.9-44-298.9-59.9
				c-24.7-2.6-76.8,72.2-84.4,95.9L608.3,2704.1z"/>
		</g>
	</g>
        <g class="st1">
		<g>
			<path class="st2" d="M608.3,2704.1c-10.3,31.8,11.5,64.9,44.7,68.2c46.5,4.6,109.1,11.3,156.6,18.8c47.9,7.5,110.7,23.9,157,37
				c32.4,9.1,64.8-14.2,66.5-47.7l9.5-65c1.2-23.5-16.3-108.4-38.6-115.9c-49.7-16.6-148.9-44-298.9-59.9
				c-24.7-2.6-76.8,72.2-84.4,95.9L608.3,2704.1z"/>
		</g>
	</g>
        <g>
		<g>
			<path class="st2" d="M980.9,2845c-6.1,0-12.3-0.8-18.4-2.5c-44.6-12.5-107.7-29.1-155.3-36.6c-47.7-7.5-111-14.3-155.7-18.7
				c-20.4-2-38.5-13-49.8-30.1c-11-16.8-14-37.4-8.1-56.6l12.8-69.6c7-21.8,61.9-110.2,100.2-106.2
				c153.8,16.3,255.3,44.9,302.1,60.5c35.6,11.9,49.8,112.5,48.8,130.9l-0.1,1.4l-9.4,64.3c-1.3,20.3-11.4,38.7-27.9,50.5
				C1008.5,2840.7,994.8,2845,980.9,2845z M635.3,2639.2l-12.8,69.5c-3.5,10.8-1.9,22.5,4.3,32c6.2,9.5,16.3,15.6,27.6,16.7
				c45.1,4.4,109.1,11.3,157.5,18.9c49.1,7.7,113.4,24.6,158.8,37.3c11,3.1,22.6,1.1,31.9-5.6c9.3-6.7,14.9-17,15.5-28.5l0.1-1.4
				l9.4-64.2c1-25.8-17-93.4-28.8-100.4c-45.2-15.1-144.3-43-295.3-59C689.5,2555.9,643.8,2614.9,635.3,2639.2z M608.3,2704.1
				L608.3,2704.1L608.3,2704.1z"/>
		</g>
	</g>
        <g>
		<g>
			<path class="st0" d="M975.8,2769.7c-46.3-13-109.1-29.4-157-37c-47.5-7.5-110.1-14.2-156.6-18.8c-33.2-3.3-55-36.4-44.7-68.2
				l15.3-47.4l26.1-81.1c7.6-23.6,30.8-38.6,55.5-36c150,15.9,249.2,43.3,298.9,59.9c22.3,7.4,36.8,28.8,35.6,52.3l-0.7,14.3
				l-5.8,114.3C1040.6,2755.5,1008.2,2778.8,975.8,2769.7z"/>
		</g>
	</g>
        <g class="st1">
		<g>
			<path class="st2" d="M975.8,2769.7c-46.3-13-109.1-29.4-157-37c-47.5-7.5-110.1-14.2-156.6-18.8c-33.2-3.3-55-36.4-44.7-68.2
				l15.3-47.4c12.4,99.2,252.7,124.6,263.8,75.7c1-4.3,2.5-31.8,5.5-35.1c9.1-9.6,26.6,9.9,44,14c15.8,3.8,35.3-5.1,40.2,6.1
				c2.3,5.3-4.2,29.6-5.5,35.1c-0.8,3.2-2.2,6.2-4.1,8.9c49.5-13.9,60.1-48.3,71.4-95.3l-5.8,114.3
				C1040.6,2755.5,1008.2,2778.8,975.8,2769.7z"/>
		</g>
	</g>
        <g>
		<g>
			<path class="st2" d="M990.1,2786.7c-6.1,0-12.3-0.8-18.4-2.5c-44.6-12.5-107.7-29.1-155.3-36.6c-47.7-7.5-111-14.3-155.7-18.7
				c-20.4-2-38.5-13-49.8-30.1c-11.2-17.1-14.1-38.1-7.8-57.6l41.4-128.5c9.7-30.2,39.7-49.6,71.3-46.3
				c153.8,16.3,255.3,44.9,302.1,60.5c28.5,9.5,47.4,37.2,45.9,67.3l-6.6,128.5c-1.1,20.6-11.3,39.3-28,51.3
				C1017.7,2782.4,1004,2786.7,990.1,2786.7z M708.8,2496c-16.1,0-30.7,10.4-35.7,25.9l-41.4,128.5c-3.5,10.8-1.9,22.5,4.3,32
				c6.2,9.5,16.3,15.6,27.6,16.7c45.1,4.4,109.1,11.3,157.5,18.9c49.1,7.7,113.4,24.6,158.8,37.3c11,3.1,22.6,1.1,31.9-5.6
				c9.3-6.7,14.9-17,15.5-28.5l6.6-128.5c0.9-16.7-9.6-32-25.4-37.3c-45.6-15.2-144.7-43.2-295.7-59.2
				C711.5,2496,710.2,2496,708.8,2496z M617.5,2645.8L617.5,2645.8L617.5,2645.8z"/>
		</g>
	</g>
        <g>
		<g>
			<path class="st6" d="M911.2,2634.9c0.8-3.4,2-25.6,4.4-28.2c7.3-7.7,21.3,7.9,35.3,11.3"/>
		</g>
	</g>
        <g>
		<g>
			<path class="st6" d="M983.4,2654.3c-3.8,15.8-24.1,24.4-45.4,19.3c-21.3-5.1-35.5-22-31.8-37.8c0.9-3.9,2.3-29.2,5.1-32.2
				c8.3-8.8,24.4,9,40.4,12.9c14.5,3.5,32.3-4.7,36.8,5.6C990.6,2627,984.6,2649.2,983.4,2654.3z"/>
		</g>
	</g>
        <g class="st1">
		<g>
			<path class="st2" d="M983.4,2654.3c-3.8,15.8-24.1,24.4-45.4,19.3c-21.3-5.1-35.5-22-31.8-37.8c0.9-3.9,2.3-29.2,5.1-32.2
				c8.3-8.8,24.4,9,40.4,12.9c14.5,3.5,32.3-4.7,36.8,5.6C990.6,2627,984.6,2649.2,983.4,2654.3z"/>
		</g>
	</g>
        <g>
		<g>
			<path class="st2" d="M950,2682.5c-4.5,0-9.1-0.5-13.8-1.6c-25.3-6.1-42.1-27.1-37.3-46.8c0.2-0.9,0.6-4.8,0.9-7.9
				c1.8-18.1,2.9-24.3,6-27.6c9.2-9.7,21.5-2.6,31.5,3.1c5.4,3.1,11,6.4,16.1,7.6c4.6,1.1,10.1,0.7,15.4,0.3
				c9.7-0.7,21.7-1.5,26.6,9.6c2.2,5,1.2,13.7-4.1,34.6l-0.6,2.3l0,0C986.8,2672.1,969.8,2682.5,950,2682.5z M917.2,2608.7
				c-1,3.9-2,13.9-2.5,18.9c-0.5,5.4-0.8,8.2-1.2,9.9c-2.8,11.5,9.3,24.7,26.2,28.7c17,4.1,33.6-2.2,36.4-13.8l0.6-2.4
				c4.3-17.3,4.9-23.2,4.7-25.2c-1.2-1.1-7.7-0.7-11.6-0.4c-6.1,0.4-13.1,0.9-19.9-0.7c-7.2-1.7-14.1-5.7-20.1-9.2
				C925.9,2612.4,919.7,2608.8,917.2,2608.7z M983.4,2654.3L983.4,2654.3L983.4,2654.3z M981.3,2624.5L981.3,2624.5L981.3,2624.5z"
            />
		</g>
	</g>
        <g>
		<g>

				<ellipse transform="matrix(0.2327 -0.9726 0.9726 0.2327 -1812.2212 2928.9172)" class="st6" cx="950.1"
                         cy="2612.9" rx="29.3" ry="39.7"/>
		</g>
	</g>
        <g class="st7">
		<g>
			<path class="st0" d="M956.6,2599.3c15.6,3.7,27.3,13.8,31.1,25c0.3-0.7,0.5-1.5,0.7-2.3c3.8-15.8-10.5-32.7-31.8-37.8
				s-41.7,3.5-45.4,19.3c-1,4.3-0.7,8.6,0.7,12.7C917,2602.1,936.4,2594.5,956.6,2599.3z"/>
		</g>
	</g>
        <g>
		<g>
			<path class="st2" d="M955.2,2650.4c-4.6,0-9.3-0.6-14-1.7c-25.3-6.1-42.1-27.1-37.3-46.8c2.4-10,9.7-18,20.5-22.6
				c10-4.3,22.1-5.1,34-2.2c25.3,6.1,42.1,27.1,37.3,46.8c-2.4,10-9.7,18-20.5,22.6C969.1,2649.1,962.3,2650.4,955.2,2650.4z
				 M944.4,2590.4c-5,0-9.9,0.9-14.1,2.7c-6.3,2.7-10.5,7.1-11.8,12.3c-2.8,11.5,9.3,24.7,26.2,28.7c8.8,2.1,17.5,1.6,24.6-1.4
				c6.3-2.7,10.5-7.1,11.8-12.3c2.8-11.5-9.3-24.7-26.2-28.7C951.4,2590.8,947.8,2590.4,944.4,2590.4z"/>
		</g>
	</g>
        <g>
		<g>
			<path class="st2" d="M829.1,2747c-0.6,0-1.3-0.1-2-0.2c-6.8-1.1-11.5-7.5-10.4-14.3l16.7-106c0.8-4.8-1.2-9.5-5.1-12.4
				l-31.5-23.4c-11.4-8.4-17.1-22.4-14.9-36.4l10-63.4c1.1-6.8,7.5-11.5,14.3-10.4s11.5,7.5,10.4,14.3l-10,63.4
				c-0.8,4.8,1.2,9.5,5.1,12.4l31.5,23.4c11.4,8.4,17.1,22.4,14.9,36.4l-16.7,106C840.5,2742.6,835.1,2747,829.1,2747z"/>
		</g>
	</g>
        <g>
		<g>
			<path class="st8" d="M515.9,3360.4c-53.7,19.1-187-22.2-274.1-110.7h-0.1c-10.5-10.7-20.3-22-29.2-34
				c-40.1-53.9-54.5-119.8-37.2-166.8c21.2-15.1,54.8-22.4,103.7,9.6c46.6,30.5,86.5,81.7,117.9,122.3l0,0
				c4.2,5.5,8.3,10.7,12.2,15.7C455,3255.3,541.2,3317.5,515.9,3360.4z"/>
		</g>
	</g>
        <g class="st1">
		<g>
			<path class="st2" d="M515.9,3360.4c-53.7,19.1-187-22.2-274.1-110.7c30.5,17,74.4,31.8,118.9,13.2c38.9-16.2,42.6-50.8,36.2-82.1
				c4.2,5.5,8.3,10.7,12.2,15.7C455,3255.3,541.2,3317.5,515.9,3360.4z"/>
		</g>
	</g>
        <g class="st7">
		<g>
			<path class="st0" d="M379.5,3158.5c-29.4-22.4-60.2-43.6-85.9-59.2c-10.5-6.4-20.4-11.2-29.7-14.7
				c-41.8-15.9-85.4,13.9-88.9,55.7c-9.2-32.8-9.5-65.1,0.3-91.4c21.2-15.1,54.8-22.4,103.7,9.6
				C317.4,3083.6,351.3,3122.8,379.5,3158.5z"/>
		</g>
	</g>
        <g>
		<g>
			<path class="st8" d="M1310.3,3355c-18.3,14.6-38,26.9-58.3,37.1c-109.6,55-238.7,48.4-288.7,3.9c-5.5-4.9-10.5-10.1-15.3-15.8
				c-2.3-7.2-2.1-14.8,1.6-22.9c17.9-38.9,67.7-45,132.4-60.9c40.5-9.9,86.8-23.6,134.8-51.6c57.9-33.8,116.2-54.3,146.5-16.7
				C1372.2,3274.1,1349.2,3324.1,1310.3,3355z"/>
		</g>
	</g>
        <g class="st1">
		<g>
			<path class="st2" d="M1252,3392.1c-109.6,55-238.7,48.4-288.7,3.9c-5.5-4.9-10.5-10.1-15.3-15.8c-2.3-7.2-2.1-14.8,1.6-22.9
				c17.9-38.9,67.7-45,132.4-60.9c-2.5,15.4-3.6,41.7,11.1,64.6C1118,3399.8,1207.5,3396.4,1252,3392.1z"/>
		</g>
	</g>
        <g class="st7">
		<g>
			<path class="st0" d="M1332.3,3333.5c4.4-9.6,7.6-19.5,9.6-29.6c6.8-34.7-21.7-66.3-56.7-61.7c-27,3.5-58.3,17.9-89.5,36.1
				c-66.2,38.6-138.7,38.7-196.4,39.7c51.4-18.6,131.9-23,217.6-73c57.9-33.8,116.2-54.3,146.5-16.7
				C1370.3,3264.5,1357.4,3303.5,1332.3,3333.5z"/>
		</g>
	</g>
        <g>
		<g>
			<path class="st2" d="M485,3379.7c-77.8,0-209.4-54.2-284.5-155.1c-43-57.8-58.4-128.8-39.2-180.9l1.6-4.4l3.8-2.7
				c23.3-16.5,63.1-28.3,120.6,9.3c49.7,32.5,90.6,85.5,123.4,128.1c3.5,4.6,6.9,9,10.2,13.2c12.6,16.2,28.9,33.1,44.6,49.5
				c44.8,46.7,87.2,90.8,63.3,131.2l-2.8,4.7l-5.1,1.8C511.1,3378,498.9,3379.7,485,3379.7z M515.9,3360.4L515.9,3360.4
				L515.9,3360.4z M187.9,3058.6c-13,42,1.4,100.7,36.7,148.1c78.9,106,225.4,153.5,280.3,141.2c4.9-21.7-30-58-61-90.4
				c-16.2-16.9-33-34.4-46.6-51.8c-3.3-4.3-6.8-8.7-10.3-13.3c-31.5-40.8-70.7-91.6-116.1-121.4
				C237.9,3049.5,210.1,3045.3,187.9,3058.6z"/>
		</g>
	</g>
        <g>
		<g>
			<path class="st2" d="M336.1,2115.3c-8.1,0-15.1-6-16.2-14.2c-11-81.9,29.8-122.9,59.6-152.8c29.5-29.6,37-39.4,15.8-67.1
				c-84.8-110.4-37.1-197-35-200.6c4.5-7.9,14.5-10.6,22.3-6.1s10.6,14.4,6.2,22.3c-1.7,3.1-38.3,72.3,32.5,164.5
				c39.7,51.7,8.8,82.7-18.5,110.1c-27.7,27.8-59.2,59.4-50.3,125.3c1.2,9-5.1,17.2-14.1,18.4
				C337.6,2115.2,336.9,2115.3,336.1,2115.3z"/>
		</g>
	</g>
        <g>
		<g>
			<path class="st2" d="M1087.1,3446.6c-56.1,0-105-13.8-133.8-39.4c-5.9-5.2-11.5-11.1-16.8-17.3l-1.9-2.3l-0.9-2.8
				c-3.6-11.2-2.8-22.5,2.3-33.7c18.5-40.4,62.1-50.5,117.3-63.3c44.4-10.3,99.6-23.1,156-55.9c29.7-17.3,120-70,165.8-13.1l2.3,2.9
				l0.7,3.7c9.6,50-13.4,105.5-58.4,141.4l0,0C1250.6,3421.7,1162.5,3446.6,1087.1,3446.6z M961.7,3373.2c3.7,4.2,7.6,8.1,11.6,11.7
				c52.4,46.6,213.1,49.7,327.7-41.6l0,0c34.7-27.6,53.7-70.7,48.3-108.4c-20.7-21.5-61.7-13.9-124.9,23
				c-60.2,35.1-117.9,48.5-164.3,59.3c-49,11.4-84.4,19.6-96.8,46.5C961.7,3367,961.2,3370.1,961.7,3373.2z"/>
		</g>
	</g>
        <g>
		<g>
			<path class="st9" d="M1183.5,2376"/>
		</g>
	</g>
        <g>
		<g>
			<path class="st2" d="M860.5,3116.1c-4.4,0-8.6-2.4-10.8-6.5c-3.2-6-0.9-13.4,5-16.6c8-4.3,198.3-105,297.5-66.2
				c25.8,10.1,43.6,28.6,52.7,54.9c2.2,6.4-1.2,13.4-7.6,15.6c-6.4,2.2-13.4-1.2-15.6-7.6c-6.8-19.5-19.3-32.6-38.4-40
				c-88.8-34.7-275.1,63.9-276.9,64.9C864.4,3115.6,862.5,3116.1,860.5,3116.1z"/>
		</g>
	</g>
        <g>
		<g>
			<path class="st2" d="M703.1,3094.2c-3.6,0-7.2-1.6-9.6-4.7c-1.2-1.5-118.4-148.4-225.8-158.8c-30.4-2.9-56.3,5.2-79.2,24.9
				c-5.1,4.4-12.9,3.8-17.3-1.3s-3.8-12.9,1.3-17.3c27.9-23.9,60.8-34.3,97.6-30.7c117.7,11.4,237.6,161.6,242.6,168
				c4.2,5.3,3.3,13-2,17.2C708.5,3093.3,705.8,3094.2,703.1,3094.2z"/>
		</g>
	</g>
        <g>
		<g>
			<path class="st2" d="M696,2910.2c8.9,12,17.8,23.2,27.4,32.9c4.7,4.9,9.8,9.2,14.6,13.6c4.7,4.5,9.8,8.1,14.3,12.9l1,1
				c4.8,5,4.6,13-0.4,17.8c-3.8,3.7-9.5,4.4-14,2.3c-7.5-3.5-14.3-8.6-19.9-14.6c-5.7-5.9-10.2-12.8-13.9-19.8
				c-3.8-7-6.7-14.4-8.9-21.9c-2.1-7.6-3.5-15.2-3.6-23.1c0-1,0.8-1.9,1.8-1.9c0.6,0,1.2,0.3,1.5,0.7L696,2910.2z"/>
		</g>
	</g>
        <g>
		<g>
			<path class="st2" d="M907.1,2953.3c-1.7,6.8-5,12.7-8.8,18.3c-3.9,5.5-8.6,10.5-13.8,15c-5.2,4.3-10.8,8.5-17,11.3
				c-6.1,3-12.7,5-19.4,5.6c-7,0.6-13.1-4.5-13.7-11.5c-0.4-4.9,2-9.5,6-11.9l1.2-0.7c2.5-1.5,5.1-2.5,7.6-3.5
				c2.5-1.1,5.2-1.9,7.7-2.9c5.2-1.8,10.4-3.5,15.8-5.5c10.4-4.1,21-9.1,31.4-16l0.2-0.1c0.9-0.6,2-0.3,2.6,0.5
				C907.1,2952.3,907.2,2952.8,907.1,2953.3z"/>
		</g>
	</g>
        <g>
		<g>
			<path class="st2" d="M169.6,3124.1c-4.8,0-9-3.5-9.8-8.3c-0.9-5.4,2.7-10.6,8.2-11.5c5.9-1,12.9-1.9,20.9-3
				c31.3-4.1,78.6-10.4,113.7-29.8c4.8-2.7,10.9-0.9,13.6,3.9s0.9,10.9-3.9,13.6c-38.4,21.3-88,27.8-120.7,32.2
				c-7.8,1-14.6,1.9-20.2,2.9C170.8,3124,170.2,3124.1,169.6,3124.1z"/>
		</g>
	</g>
        <g>
		<g>
			<path class="st2" d="M195.9,3200c-4.9,0-9.2-3.6-9.9-8.6c-0.8-5.5,3-10.5,8.5-11.3c35.6-5,134.4-23.4,163.6-47.8
				c4.2-3.5,10.5-3,14.1,1.3c3.5,4.2,3,10.5-1.3,14.1c-39.6,33.1-168.2,51.5-173.7,52.3C196.8,3200,196.3,3200,195.9,3200z"/>
		</g>
	</g>
        <g>
		<g>
			<path class="st2" d="M258.5,3275.5c-4.9,0-9.2-3.6-9.9-8.6c-0.8-5.5,3-10.5,8.5-11.3c1.2-0.2,122.8-18.1,163.6-46.8
				c4.5-3.2,10.8-2.1,13.9,2.4c3.2,4.5,2.1,10.8-2.4,13.9c-44.7,31.4-167,49.4-172.2,50.2C259.4,3275.5,259,3275.5,258.5,3275.5z"/>
		</g>
	</g>
        <g>
		<g>
			<path class="st2" d="M347.6,3336c-5.2,0-9.6-4.1-10-9.4c-0.3-5.5,3.9-10.3,9.4-10.6c0.9-0.1,92.3-6.1,135-40.5
				c4.3-3.5,10.6-2.8,14.1,1.5c3.5,4.3,2.8,10.6-1.5,14.1c-47.7,38.4-142.3,44.6-146.3,44.8C348.1,3336,347.8,3336,347.6,3336z"/>
		</g>
	</g>
        <g>
		<g>
			<path class="st2" d="M1357.9,3299c-30.8,0-88.3-17.1-120.4-64.1c-3.1-4.6-1.9-10.8,2.6-13.9c4.6-3.1,10.8-1.9,13.9,2.6
				c27.5,40.4,78.3,55.4,103.9,55.4c5.5,0,10,4.5,10,10S1363.5,3299,1357.9,3299z"/>
		</g>
	</g>
        <g>
		<g>
			<path class="st2" d="M1315.3,3360.8c-0.4,0-0.8,0-1.2-0.1c-3.7-0.4-90.3-11.6-145.9-89.4c-3.2-4.5-2.2-10.7,2.3-14
				c4.5-3.3,10.7-2.2,14,2.3c50.5,70.7,131.1,81.1,132,81.2c5.5,0.7,9.4,5.6,8.7,11.1C1324.6,3357.1,1320.3,3360.8,1315.3,3360.8z"
            />
		</g>
	</g>
        <g>
		<g>
			<path class="st2" d="M1224,3414.7c-1,0-2-0.2-3.1-0.5c-3.5-1.1-85.8-28.3-144.2-112.8c-3.1-4.5-2-10.8,2.5-13.9
				c4.5-3.1,10.8-2,13.9,2.5c54.6,79,133,104.9,133.8,105.1c5.3,1.7,8.2,7.3,6.5,12.6C1232.1,3412,1228.2,3414.7,1224,3414.7z"/>
		</g>
	</g>
        <g>
		<g>
			<path class="st2" d="M1117.9,3440c-1.5,0-2.9-0.3-4.3-1c-4-2-99.1-48.7-107.2-125.5c-0.6-5.5,3.4-10.4,8.9-11s10.4,3.4,11,8.9
				c6.9,65.7,95.1,109.2,96,109.6c5,2.4,7,8.4,4.6,13.4C1125.2,3438,1121.7,3440,1117.9,3440z"/>
		</g>
	</g>
        <g>
		<g>
			<ellipse class="st3" cx="491.9" cy="556" rx="474.5" ry="538.7"/>
		</g>
	</g>
        <g class="st10">
		<g>
			<path class="st0" d="M892.8,257.8C805.8,142.2,676.5,68.9,532,68.9c-262,0-474.5,241.2-474.5,538.7c0,106,27,204.9,73.6,288.2
				C60.2,801.7,17.4,679.5,17.4,546C17.4,248.5,229.8,7.3,491.9,7.3C660.6,7.3,808.7,107.2,892.8,257.8z"/>
		</g>
	</g>
        <g>
		<g class="st1">
			<g>
				<path class="st2" d="M461.9,1054.8c262,0,474.5-241.2,474.5-538.7c0-116.4-32.5-224.1-87.8-312.2c-0.2-0.7-0.4-1.5-0.6-2.2
					c13.3,49.6,20.4,102.2,20.4,156.6C868.4,655.8,656,897,393.9,897c-144.6,0-274.1-73.5-361.1-189.3
					c16.1,60.1,41.2,115.7,73.5,164.9C193.2,984.3,320.3,1054.8,461.9,1054.8z"/>
			</g>
		</g>
	</g>
        <g>
		<g>
			<path class="st2" d="M491.9,1112.2C220.7,1112.2,0,862.7,0,556.1C0,249.4,220.7,0,491.9,0s491.9,249.5,491.9,556.1
				S763.1,1112.2,491.9,1112.2z M491.9,34.7c-252,0-457.1,233.9-457.1,521.3c0,287.5,205,521.3,457.1,521.3
				c252,0,457.1-233.9,457.1-521.3C948.9,268.6,743.9,34.7,491.9,34.7z"/>
		</g>
	</g>
        <g class="st11">
		<g>
			<g>
				<path class="st0" d="M196.4,489.6c-28.8-50.5-29.3-173.7,80.4-259.2c90.8-70.7,168.4-30.9,163.4,7.3s-40.6,58.6-64.2,183.2
					C356.6,523.8,272,622.1,196.4,489.6z"/>
			</g>
		</g>
	</g>
        <g>
		<g>
			<path class="st2" d="M1514.2,2630.1c3.2,2.5,6.4,4.8,10,6.7s7.2,3.5,11.1,4.7c3.8,1.3,7.7,2.3,11.7,3c2,0.3,3.9,0.7,5.9,0.9
				c1.8,0.2,4.2,0.4,5.3,0.3c9.3-1,17.7,5.6,18.7,14.9s-5.6,17.7-14.9,18.7c-2.3,0.3-4.6,0-6.7-0.6l-2.9-0.9c-3.4-1-5.5-2-8.1-3.1
				c-2.5-1.1-4.8-2.2-7.2-3.4c-4.7-2.4-9.1-5.2-13.4-8.3c-4.3-3-8.3-6.5-12-10.2c-3.8-3.7-7-7.9-9.9-12.3c-2.5-3.8-1.6-8.9,2.2-11.4
				c3-2.1,6.9-1.8,9.7,0.3L1514.2,2630.1z"/>
		</g>
	</g>
        <g>
		<g>
			<g>
				<path class="st0" d="M1443.8,2176.1L1443.8,2176.1c-5.3-0.9-8.9-6-8-11.3l47.7-278.8c0.9-5.3,6-8.9,11.3-8l0,0
					c56.1,9.6,93.8,62.8,84.2,118.9l-16.3,95.1C1553.2,2148,1499.9,2185.7,1443.8,2176.1z"/>
			</g>
            <g>
				<path class="st2" d="M1461.4,2180.2c-6,0-12-0.5-18-1.5c-3.3-0.6-6.1-2.3-8-5c-1.9-2.7-2.7-6-2.1-9.2l47.7-278.8
					c1.1-6.7,7.5-11.3,14.3-10.1c57.4,9.8,96.1,64.5,86.3,121.9l-16.3,95.1c-4.8,27.8-20,52.1-43.1,68.4
					C1504.2,2173.5,1483.1,2180.2,1461.4,2180.2z M1493.1,1880.3c-1.5,0-2.9,0.5-4.2,1.3c-1.6,1.1-2.6,2.8-3,4.7l-47.7,278.8
					c-0.7,4,2,7.7,5.9,8.4l0,0c26.5,4.5,53.1-1.5,75-17s36.5-38.6,41-65.1l16.3-95.1c4.5-26.5-1.5-53.1-17-75s-38.6-36.5-65.1-41
					C1494,1880.4,1493.6,1880.3,1493.1,1880.3z"/>
			</g>
		</g>
            <g class="st1">
			<g>
				<path class="st2" d="M1570.4,2047.3l-7.6,44.6c-9.6,56.1-62.8,93.8-118.9,84.2c-5.3-0.9-8.9-6-8-11.4l12.6-74.1
					c0.9,3.6,3.9,6.5,7.8,7.2l6.6,1.1C1507.2,2106.6,1549.8,2084.6,1570.4,2047.3z"/>
			</g>
		</g>
            <g>
			<g>
				<path class="st2" d="M1461.4,2191.9c-6.6,0-13.3-0.6-20-1.7l0,0c-6.3-1.1-11.9-4.6-15.6-9.8c-3.7-5.2-5.2-11.6-4.1-17.9
					l47.7-278.8c1.1-6.3,4.6-11.9,9.8-15.6c5.2-3.7,11.6-5.2,17.9-4.1c63.7,10.9,106.7,71.6,95.8,135.3l-16.3,95.1
					c-5.3,30.9-22.3,57.8-47.8,75.9C1508.9,2184.4,1485.5,2191.9,1461.4,2191.9z M1450.6,2162.7c21.9,2.7,43.8-2.8,61.9-15.7
					c19.4-13.7,32.2-34.1,36.2-57.5l16.3-95.1c4-23.4-1.4-46.9-15.1-66.3c-12.9-18.2-31.6-30.6-53.2-35.4L1450.6,2162.7z
					 M1446.2,2162.1L1446.2,2162.1L1446.2,2162.1L1446.2,2162.1z"/>
			</g>
		</g>
            <g>
			<g>
				<path class="st0" d="M574.4,1720.6L574.4,1720.6c5.3,0.9,8.9,6,8,11.3l-47.7,278.8c-0.9,5.3-6,8.9-11.3,8l0,0
					c-56.1-9.6-93.8-62.8-84.2-118.9l16.3-95.1C465.1,1748.7,518.3,1711,574.4,1720.6z"/>
			</g>
                <g>
				<path class="st2" d="M525.1,2021.5c-0.7,0-1.4-0.1-2.1-0.2c-57.4-9.8-96.1-64.5-86.3-121.9l16.3-95.1
					c4.8-27.8,20-52.1,43.1-68.4c23-16.3,51-22.7,78.8-17.9l0,0c3.3,0.6,6.1,2.3,8,5s2.7,6,2.1,9.2L537.3,2011c-0.6,3.3-2.3,6.1-5,8
					C530.1,2020.7,527.7,2021.5,525.1,2021.5z M556.8,1721.6c-20.6,0-40.7,6.3-57.8,18.5c-21.9,15.5-36.5,38.6-41,65.1l-16.3,95.1
					c-9.3,54.6,27.5,106.6,82.1,116c1.9,0.3,3.8-0.1,5.4-1.2c1.6-1.1,2.6-2.8,3-4.7l47.7-278.8c0.3-1.9-0.1-3.8-1.2-5.4
					s-2.8-2.6-4.7-3l0,0C568.3,1722.1,562.5,1721.6,556.8,1721.6z"/>
			</g>
		</g>
            <g class="st1">
			<g>
				<path class="st2" d="M548,1933.4l-13.2,77.4c-0.9,5.3-6,8.9-11.4,8c-29.4-5-53.8-22.1-69-45.3c-13.7-21-19.8-47-15.2-73.6
					l6.8-40.1c9.9,37.9,41.2,68.4,82.3,75.5l10.2,1.7C542.3,1937.6,545.8,1936.1,548,1933.4z"/>
			</g>
		</g>
            <g>
			<g>
				<path class="st2" d="M525.1,2033.1c-1.4,0-2.7-0.1-4.1-0.4c-63.7-10.9-106.7-71.6-95.8-135.3l16.3-95.1
					c5.3-30.9,22.3-57.8,47.8-75.9c25.6-18.1,56.7-25.2,87.5-19.9l0,0l0,0l0,0c6.3,1.1,11.9,4.6,15.6,9.8c3.7,5.2,5.2,11.6,4.1,18
					l-47.7,278.8c-1.1,6.3-4.6,11.9-9.8,15.6C534.9,2031.6,530.1,2033.1,525.1,2033.1z M556.9,1733.3c-18.2,0-35.9,5.6-51.1,16.3
					c-19.4,13.7-32.2,34.1-36.2,57.5l-16.3,95.1c-8,46.8,22.4,91.5,68.2,101.6l46.1-269.9C564,1733.5,560.4,1733.3,556.9,1733.3z"/>
			</g>
		</g>
            <g>
			<g>
				<ellipse class="st0" cx="1009.1" cy="1948.3" rx="482.1" ry="482.1"/>
			</g>
                <g>
				<path class="st2" d="M1010.1,2433.2c-38.7,0-77.7-4.7-116.2-14.1c-125.7-30.8-231.9-108.7-299.1-219.4
					c-67.1-110.7-87.1-240.9-56.3-366.6c30.8-125.7,108.7-231.9,219.4-299.1c110.7-67.1,240.9-87.1,366.6-56.3
					c259.5,63.6,419,326.5,355.4,586c-30.8,125.7-108.7,231.9-219.4,299.1C1183.7,2409.3,1097.6,2433.2,1010.1,2433.2z
					 M1008.3,1468.7c-86.6,0-171.8,23.6-247.7,69.7c-109.5,66.4-186.6,171.5-217.1,295.9s-10.7,253.2,55.7,362.7
					c66.4,109.5,171.5,186.6,295.9,217.1s253.2,10.7,362.7-55.7s186.6-171.5,217.1-295.9l2.5,0.6l-2.5-0.6
					c30.5-124.4,10.7-253.2-55.7-362.7s-171.5-186.6-295.9-217.1C1085.2,1473.3,1046.6,1468.7,1008.3,1468.7z"/>
			</g>
		</g>
            <g class="st1">
			<g>
				<path class="st2" d="M1488.8,1997.2c-2.2,21.9-6,43.9-11.4,65.9c-63.4,258.6-324.4,416.8-583,353.5
					c-258.6-63.4-416.8-324.4-353.5-583c1.8-7.4,3.8-14.8,6-22.1c-24.3,235.7,128.3,459.1,364.9,517
					C1162.9,2390.1,1416.3,2242.6,1488.8,1997.2z"/>
			</g>
		</g>
            <g>
			<g>
				<path class="st2" d="M1010.1,2444.8c-39.6,0-79.5-4.8-119-14.5c-128.8-31.6-237.5-111.4-306.3-224.7
					c-68.7-113.4-89.2-246.7-57.7-375.4c65.1-265.8,334.4-429.1,600.2-363.9c128.8,31.6,237.5,111.4,306.3,224.7
					c68.7,113.4,89.2,246.7,57.7,375.4l0,0c-31.6,128.8-111.4,237.5-224.7,306.3C1187.9,2420.4,1099.7,2444.8,1010.1,2444.8z
					 M1008.3,1480.3c-84.5,0-167.6,23.1-241.7,68c-106.9,64.8-182.1,167.3-211.8,288.7c-29.7,121.4-10.4,247.1,54.4,353.9
					c64.8,106.9,167.3,182.1,288.7,211.8c121.4,29.7,247.1,10.4,353.9-54.4c106.9-64.8,182.1-167.3,211.8-288.7
					c29.7-121.4,10.4-247.1-54.4-353.9c-64.8-106.9-167.3-182.1-288.7-211.8C1083.3,1484.8,1045.7,1480.3,1008.3,1480.3z
					 M1477.4,2063.1L1477.4,2063.1L1477.4,2063.1z"/>
			</g>
		</g>
            <g>
			<g>
				<path class="st2" d="M1473,2074.7c-21.1,92-70.5,170.5-137.7,229.4c-50.4,44.2-229,100.8-423.6,58.1
					c-180.5-39.6-322.4-173.2-348.5-235c-34.9-82.3-45.2-174.5-24.1-266.5c55.7-243.3,287.9-296.3,545.8-237.2
					C1342.7,1682.6,1528.7,1831.4,1473,2074.7z"/>
			</g>
		</g>
            <g>
			<g>
				<path class="st2" d="M1054.2,2391.9c-45.9,0-94.9-4.6-145.6-15.8c-187.6-41.2-331-178.2-358.6-243.3
					c-37.3-88.1-45.9-183.3-24.9-275.2c27.5-120,96.8-201.4,206-242.2c95.1-35.5,218.5-37.5,356.9-5.7
					c138.4,31.7,248.6,87.2,318.8,160.5c80.6,84.2,107.5,187.7,80,307.7c-21.1,91.9-70.2,173.9-142.2,236.9
					C1306.9,2347.9,1195.5,2391.9,1054.2,2391.9z M903.7,1615.7c-60.7,0-115.5,8.8-162.6,26.4c-99.7,37.2-163,111.8-188.2,221.9
					c-19.7,86-11.6,175.2,23.3,257.8c24.8,58.6,162.9,188,338.5,226.6c194.6,42.7,366.5-15.6,411.2-54.9
					c67.4-59.1,113.5-135.8,133.2-221.9l0,0c25.2-110,0.7-204.8-72.8-281.7c-66.3-69.3-171.6-122-304.6-152.5
					C1018.4,1623,958.7,1615.7,903.7,1615.7z"/>
			</g>
		</g>
            <g class="st12">
			<g>

					<ellipse transform="matrix(0.3935 -0.9193 0.9193 0.3935 -1039.1171 2438.6082)" class="st0"
                             cx="1328.7" cy="2006.9" rx="85.3" ry="61.8"/>
			</g>
		</g>
            <g class="st12">
			<g>

					<ellipse transform="matrix(0.5168 -0.8561 0.8561 0.5168 -1256.6312 2083.2529)" class="st0"
                             cx="1217.2" cy="2154.8" rx="39.2" ry="33.6"/>
			</g>
		</g>
            <g class="st1">
			<g>
				<path class="st13" d="M1434.1,1826.9c44.6,67.6,61.2,150.1,38.8,247.8c-21.1,92-70.5,170.5-137.7,229.4
					c-50.4,44.2-229,100.8-423.6,58.1c-68.7-15.1-131.9-43.8-185.1-77c240.4,47.4,458.1-22.4,520.6-77.2
					c85.3-74.8,148-174.5,174.7-291.2C1429,1885.7,1433,1855.7,1434.1,1826.9z"/>
			</g>
		</g>
            <g>
			<g>
				<path class="st2" d="M1481.6,1866.4c-4.2,0-8.4-1.9-11.2-5.4l-1.2-1.5l-0.8-1.9c-53.5-128.5-191.4-226.8-378.2-269.6
					c-187.9-43-355.1-12.5-458.8,83.8l-1.9,1.5c-6.5,4.4-15.4,2.6-19.7-4c-4-6.1-2.8-14.1,2.6-18.7
					c110.7-102.6,287.1-135.5,484.1-90.4c195.8,44.9,340.9,149.1,398,286.1c2.6,5.8,1.1,12.9-4.2,17
					C1487.8,1865.4,1484.7,1866.4,1481.6,1866.4z"/>
			</g>
		</g>
            <g class="st12">
			<g>
				<path class="st0" d="M610.7,2029.6c0,0-20.4-257.3,130.9-323.3s337.3-23,330.2-12.1c0,0-217.5,2.7-335.4,147.1
					C645.5,1952.7,610.7,2029.6,610.7,2029.6z"/>
			</g>
		</g>
	</g>
        <g>
		<g>
			<path class="st2" d="M1295.5,2692.3c-6.3,0-11.7-4.9-12.2-11.3c-12.9-155.2,107.7-238,112.8-241.5c5.6-3.8,13.3-2.3,17,3.4
				c3.8,5.6,2.3,13.3-3.3,17c-1.3,0.9-113.7,78.7-102.1,219c0.6,6.8-4.5,12.7-11.2,13.3C1296.2,2692.3,1295.9,2692.3,1295.5,2692.3z
				"/>
		</g>
	</g>
</g>
</svg>
