<?xml version="1.0" encoding="utf-8"?>
<!-- Generator: Adobe Illustrator 25.1.0, SVG Export Plug-In . SVG Version: 6.00 Build 0)  -->
<svg version="1.1" id="Layer_1" xmlns="http://www.w3.org/2000/svg" x="0px"
     y="0px"
     viewBox="0 0 4000 4000" style="enable-background:new 0 0 4000 4000;" xml:space="preserve">
<style type="text/css">
	.st0{fill:#371A45;}
	.st1{opacity:0.2;}
	.st2{fill:#FFFFFF;}
	.st3{fill:#39005E;}
	.st4{fill:#4599F4;}
	.st5{opacity:0.7;}
	.st6{fill:#E2E2E2;}
	.st7{fill:#D8D8D8;}
	.st8{opacity:0.35;}
	.st9{fill:#111A28;}
	.st10{opacity:0.5;}
</style>
    <g>
	<g>
		<g>
			<g>
				<g>
					<path class="st0" d="M819,559.1c-6.8,11-20.8,15.7-32.9,11.1l-35.5-13.7c-15.9-5.8-23.1-24.9-15-39.7
						c37-65.1,104.4-87.1,170.6-79.2c92.7,11.1,156.8,89,147.8,164.6c-13.4,112.2-115.6,114.9-141.3,197.2
						c-4.7,12.9-16.8,21.7-30,20.1l-38.9-4.7c-17.1-2-28.5-19.2-23.4-36c29-90.5,124.1-106.8,132.2-174.6
						c4.7-38.9-16-71.4-64.2-77.2C854.1,523,831.7,538.5,819,559.1z M901.6,952c-3.7,31.2-32.5,53.8-63.6,50.1
						c-31.9-3.8-54.6-32.6-50.8-63.7c3.8-31.9,32.6-54.6,64.5-50.8C882.8,891.3,905.4,920.1,901.6,952z"/>
				</g>
			</g>
		</g>
        <g>
			<g class="st1">
				<g>
					<ellipse class="st0" cx="2019.9" cy="3539.2" rx="779.4" ry="125.8"/>
				</g>
			</g>
            <g>
				<g>
					<g>
						<path class="st2" d="M2762.4,2685.8c-1.8,8.3-4.4,16.4-7.4,24.1c-18.9,47.4-59.8,83.4-110.5,95.3
							c-141.4,33.3-440.7,73.6-792.1-54.9c0,0-75.2-693.3,70.5-1040.9c0,0,325.2-67.5,762.9,68.3c37.4,11.6,68,36.3,87.5,68.2
							c13.8,22.7,22.1,49,23.1,76.8C2802.8,2106.7,2808.6,2479.4,2762.4,2685.8z"/>
					</g>
				</g>
                <g>
					<g>
						<path class="st0" d="M2345.8,2861c-142.7,0-314.6-21.5-501.1-89.7c-8-2.9-13.6-10.1-14.5-18.6c-3.1-28.5-74.2-703,72.2-1051.9
							c2.8-6.8,8.9-11.7,16.1-13.2c13.5-2.8,335.9-67.1,774.1,68.8c72.9,22.6,123.6,89.1,126.2,165.5
							c6.9,198.7,11.5,562.8-34.5,768.8c-15,67.1-67.8,120.6-134.6,136.3C2579.2,2843.5,2474.4,2861,2345.8,2861z M1873.2,2734.1
							c338,120,624.5,82.7,766.2,49.4c50.2-11.8,90-52.1,101.3-102.6c44.9-201.1,40.2-560.9,33.4-757.5
							c-2-57.5-40.1-107.5-94.8-124.4c-381.3-118.3-679.2-79.7-740.3-69.8C1814,2043.9,1863.9,2636.2,1873.2,2734.1z"/>
					</g>
				</g>
                <g>
					<g>
						<path class="st0" d="M2757.8,1854.4c0-0.1-0.6-0.3-1-0.5c-0.4-0.2-1-0.4-1.5-0.6c-1.1-0.4-2.2-0.8-3.3-1.1
							c-2.3-0.8-4.7-1.4-7.1-2c-4.9-1.2-9.9-2.2-15-2.9c-10.2-1.5-20.6-2.1-31.1-1.6c-10.5,0.5-21.1,1.8-31.4,4.4
							c-10.5,2.3-20.6,6.1-30.8,10.3l-0.5,0.2c-4.2,1.7-8.9-0.3-10.6-4.4c-1.5-3.6-0.2-7.7,2.9-9.8c9.8-6.7,20-13.3,31.1-18.3
							c11-5.3,22.6-9.3,34.6-12.5c12-3.2,24.4-5,36.9-5.9c6.3-0.4,12.6-0.5,19.1-0.3c3.2,0.2,6.4,0.3,9.7,0.7c1.6,0.1,3.3,0.3,5,0.6
							l2.6,0.4c0.9,0.2,1.7,0.3,3.1,0.6c11.8,3.5,18.5,16,15,27.8S2769.6,1857.9,2757.8,1854.4z"/>
					</g>
				</g>
			</g>
            <g class="st1">
				<g>
					<path class="st0" d="M2702.9,2732.9c14.9-7.4,27.9-17.5,39.8-29c-18.9,47.4-59.8,83.4-110.5,95.3
						c-141.4,33.3-440.7,73.6-792.1-54.9c0,0-75.2-693.3,70.5-1040.9c0,0,325.2-67.5,762.9,68.3c37.4,11.6,68,36.3,87.5,68.2
						c-19.6,1.7-39.1,9.3-53.2,22.7c-38.5,36.4-46.8,93.6-52.9,146.2c-13,111.5-26,222.9-39,334.3c-10.8,92.2-21.5,184.4-32.3,276.5
						c-4,34.6-6.8,73.6,15.8,100.1C2623.8,2748.3,2669.3,2749.5,2702.9,2732.9z"/>
				</g>
			</g>
            <g>
				<g>
					<path class="st2" d="M3163.1,2108.1c-16.1,37.7-129.1,0-129.1,0s26.9,75.3,75.3,123.8c10.4,10.4,19.8,23,26.8,36.9
						c26,51.1,20.8,119.9-80.6,162.2c-129.2,53.8-215.3-48.4-263.7-118.4c0,0-53.9,164.7-220.7,133.5c0,0,37.7,146.3-5.4,254
						c-43.1,107.7-37.7,441.3-37.7,441.3s32.3,279.8,0,349.8c-32.3,70-362.4,118.4-509.5,37.7c0,0-281.6,53.8-453.9,16.1
						c-106.7-23.3-116.3-96.2-86.4-152.1c18.3-34.4,51.6-62.3,86.4-68.5c0,0-69.3-667.3-48.1-968.7c0,0-167.2,43-264-16.2
						c-96.9-59.2-188.4-263.7-188.4-263.7s-91.5,70-166.8-5.4c-75.3-75.3,150.7-139.9,150.7-139.9s-48.4-31.7-26.9-77.1
						c21.5-45.5,50.2-2.4,119.5-16.7c69.4-14.4,165.1,4.7,279.9,124.3c0,0,40.7-83.1,159.7-153.7c92.6-55.1,232.8-102.7,438.2-97.4
						c229,5.9,445.8,57.4,570.7,152.3c56.3,42.8,93.9,94.3,105.6,154.5c0,0,150.7-44.5,274.5-35.7
						C3093.1,1989.7,3179.2,2070.4,3163.1,2108.1z"/>
				</g>
			</g>
            <g class="st1">
				<g>
					<path class="st0" d="M3136.1,2268.8c-57.7,43.2-137.4,56.5-205.4,32.4c-66.9-23.6-119.9-82.3-138.6-150.5
						c-3.9-14.3-20.6-20.5-32.9-12.1c-21.2,14.5-43.1,27.7-67.1,36.4c-34.4,12.4-74.1,14.6-102.2-12.4c31-45.4,62-90.8,95.9-139.8
						c1.4-2.7,2.8-5.5-1.7-11.9c-25,40-78.1,59.9-123.2,46.3c-22.9-6.9-42.8-22.1-56.7-41.8c-20.5-28.9-13.6-69.4,15-90.4
						c25.5-18.6,49.1-39.8,70.2-62.9c-125-94.9-341.7-146.4-570.7-152.3c-205.4-5.2-345.6,42.3-438.2,97.4
						c303.7,221.5,533.6,229.1,650.4,220c50.5-3.9,92.8,39,87.2,89.4c-3.8,33.8-16.3,66.4-38.8,92.8c-44.1,52-109.1,81.3-174,102.1
						c-180.4,57.6-373.5,60.4-562.8,53.6c-4.9,60.7-9.8,121.4-14.7,182.2c230,72.6,475.5,95.4,722.3,76c32.8-2.6,46.6,41,18.1,57.4
						c-90.5,52.2-194.7,80.9-299.3,81c-144.3,0-287.9-54.5-395.9-150.2c1.9,138,108.5,267.6,244.3,297.1
						c-12.7,95.2-11.3,192.3,5,286.9c5.8,78.5,11.6,156.9,11.1,226.2c-106.9,69.9-260.4,56.4-354.9-28.9
						c-29.9,55.9-20.3,128.8,86.4,152.1c172.2,37.7,453.9-16.1,453.9-16.1c147.1,80.7,477.2,32.3,509.5-37.7
						c32.3-70,0-349.8,0-349.8s-5.4-333.6,37.7-441.3c43-107.7,5.4-254,5.4-254c166.8,31.2,220.7-133.5,220.7-133.5
						c48.4,70,134.5,172.2,263.7,118.4C3156.9,2388.7,3162.1,2319.9,3136.1,2268.8z M2308.2,3410.5c-24.2,48.2-78.1,76.6-131.8,81.4
						c-53.7,4.7-107.3-11.1-156.5-34.4c2.4-75.5,52.4-128.2,39.7-132.6c49.8-162.4,14.3-348.3-73.7-479.6
						c80.3-8.8,159.7-25.9,236.5-50.9c33.1-10.8,67.4,12.7,69.9,47.4c10.1,145.3,20.2,290.6,30.3,435.8
						C2325.8,3322.6,2328.4,3370.2,2308.2,3410.5z"/>
				</g>
			</g>
            <g>
				<g>
					<path class="st0" d="M2231,3593.1c-78.7,0-158-11.5-216.1-40.9c-47.7,8.6-294.4,49.7-455.1,14.6
						c-106.2-23.2-118.7-89.7-118.7-119.5c0-0.7,0-1.5,0-2.2c1.2-57.9,45.6-117.1,99.3-137.2c-9.6-95.6-50.4-520-50.4-814
						c0-39.6,0.7-76.7,2.4-110.5c-54.6,9.9-172.5,23.4-251.7-25c-82.6-50.4-158.6-193.9-186.2-250.5
						c-43.6,22.7-114.6,36.7-173.1-21.8c-17-17-21.9-33.6-21.9-47.2c0-5.4,0.8-10.2,1.9-14.5c13-50.1,95.2-86.4,145.6-104.3
						c-8-12.2-13.9-27-13.9-43.6c0-10.3,2.3-21.3,7.7-32.8c19.7-41.7,51.4-35.4,74.6-30.8c16.5,3.3,35.3,7,60.6,1.8
						c63-13.1,161.5-3.5,280.3,110.5c18.4-26.6,54.3-70,114.4-112.5c85.7-60.6,239.9-131.5,488.3-125.2
						c173.1,4.4,335.2,34.8,456.6,85.6c127.5,53.4,208.2,127.7,235.2,216c47.4-12.2,160.8-37.5,259.9-30.5
						c97.5,6.9,176.8,56.8,204.7,102.5c8.8,14.5,11.8,26.9,11.8,36.9c0,7.6-1.7,13.9-3.8,18.8c-15.4,35.9-67,34-110.1,25.1
						c12,23.3,29.5,52,51.6,74.1c23.9,23.9,46.6,62.4,46.6,104.8c0,7.4-0.7,14.9-2.2,22.5c-6.3,32-29.7,76.7-105.4,108.3
						c-130.6,54.4-221.6-35.2-267.7-94.6c-31,55.9-95.1,120.4-197.1,114.9c4.4,25,9.5,62.4,9.5,103.9c0,42.9-5.4,90.2-22.3,132.5
						c-33,82.5-36.3,311.1-36.3,398.3c0,0,0,0.1,0,0.1c0,0,0,0.1,0,0.1c0,17.7,0.1,29.6,0.2,33.1c2.5,21.6,14.4,130.7,14.4,226.5
						c0,55.9-4.1,107.3-16.4,134.1c-11,23.8-41.8,44.2-91.6,60.6C2400,3579.8,2315.8,3593.1,2231,3593.1z M2018.5,3506.6
						c3.7,0,7.4,0.9,10.7,2.8c97.7,53.6,296.3,48,413.4,9.4c41.8-13.8,61.2-28.5,65.1-36.9c9-19.5,12.4-61.8,12.4-112.4
						c0-72-6.9-160.9-14.3-225.5c-0.1-0.7-0.1-1.5-0.1-2.2c0-2.6-0.3-16.6-0.3-38.3c0-92,3.7-322.2,39.5-411.6
						c14.4-36.1,19-77.3,19-115.3c0-67-14.3-124-14.6-124.8c-0.5-1.8-0.7-3.7-0.7-5.5c0-5.6,2.1-11.1,6-15.3
						c5.2-5.6,12.9-8.1,20.4-6.7c145.1,27.1,193.4-112.6,195.4-118.5c2.7-8,9.7-13.9,18-15.1c8.4-1.2,16.7,2.4,21.5,9.4
						c52.3,75.6,126.4,156.5,236.8,110.5c45.5-19,72.8-45.2,78.8-75.7c0.9-4.7,1.4-9.4,1.4-14.1c0-28.7-16.4-55.8-33.6-72.9
						c-51.4-51.4-79.4-128.8-80.6-132.1c-0.9-2.5-1.3-5-1.3-7.5c0-5.7,2.2-11.4,6.4-15.6c6-6.1,14.9-8.3,23-5.6
						c46.9,15.6,93.5,19.3,101.6,12.2c0-0.2,0.1-0.5,0.1-0.9c0-2.1-0.9-6.6-5.2-13.8c-21.4-35.1-88.1-75.4-169.7-81.2c0,0,0,0,0,0
						c-118.4-8.4-265.1,34.4-266.6,34.9c-6,1.8-12.5,0.9-17.9-2.3c-5.4-3.3-9.1-8.6-10.3-14.8c-36.7-188.8-355.4-281.1-655-288.7
						c-234.3-6.1-378.9,59.4-458.9,115.3c-86.3,60.3-118.2,122.8-118.5,123.5c-3.2,6.5-9.5,11-16.6,12.1c-7.2,1.1-14.5-1.3-19.5-6.6
						c-91.2-95-178.5-134.7-259.3-117.9c-34.2,7.1-59.7,2-78.3-1.7c-20.8-4.1-20.7-4.1-25.6,6.1c-2.3,4.8-3.2,9.4-3.2,13.7
						c0,19.6,19.6,33.5,22.3,35.3c6.2,4.2,9.9,11.2,9.9,18.6c0,1.2-0.1,2.3-0.3,3.5c-1.4,8.6-7.5,15.6-15.8,18
						c-55.7,15.9-141.6,53.6-149.4,83.7c-0.2,0.7-0.4,1.7-0.4,3.1c0,3.2,1.5,8.4,8.8,15.8c60.3,60.3,134.4,5.7,137.5,3.4
						c5.4-4.1,12.5-5.5,19-3.8c6.6,1.7,12.1,6.3,14.8,12.5c0.9,2,89.8,198.9,179.6,253.8c87.6,53.5,245.3,14,246.9,13.6
						c6.9-1.8,14.3-0.1,19.8,4.5c5.1,4.3,8,10.5,8,17.1c0,0.5,0,1.1-0.1,1.6c-2.8,39.2-4,84.7-4,134.4c0,325.4,51.4,824.7,52,830.5
						c0.1,0.8,0.1,1.5,0.1,2.3c0,10.7-7.7,20.1-18.4,22c-41.6,7.3-81.8,55.8-82.6,99.7c0,0.5,0,1,0,1.6c0,47.3,45.3,67.2,83.6,75.6
						c165.7,36.3,442.1-15.7,444.9-16.2C2015.7,3506.7,2017.1,3506.6,2018.5,3506.6z M2042.5,3399.3c-0.9,0-1.8-0.1-2.7-0.2
						c-10.1-1.2-18.1-9.2-19.4-19.3c-0.2-1.5-19.1-148-53-218c-2.6-5.3-2.9-11.4-1-16.9c0.4-1.1,37-109.3,34.9-171.4
						c-0.4-10.5,6.7-19.9,16.9-22.5c10.2-2.5,20.9,2.4,25.5,11.9c4.2,8.6,101.2,213.3,19.7,422.1
						C2059.9,3393.8,2051.6,3399.3,2042.5,3399.3z M2011.4,3150.8c14.9,33.8,26.7,78.8,35.3,119.6c10-75.9-0.4-146.8-13.4-199.3
						C2025.5,3105.7,2016,3136.4,2011.4,3150.8z"/>
				</g>
			</g>
            <g>
				<g>
					<path class="st0" d="M2567.3,2468.1l-2.7-0.6l-1.9-0.5l-3.8-1.1l-6.9-2.5c-4.5-1.7-8.6-3.7-12.9-5.6l-12-6.4
						c-3.8-2.3-7.6-4.7-11.3-7.1c-3.8-2.3-7.3-5-10.8-7.6c-3.5-2.7-7.1-5.2-10.5-8l-9.8-8.6c-3.3-2.9-6.6-5.7-9.5-8.8l-9-9.2
						c-3-3.1-6.1-6.1-8.7-9.4c-5.5-6.5-11.1-13-16.3-19.6l-14.9-20.5c-2.6-3.4-4.7-6.9-6.9-10.5l-6.6-10.7
						c-9.3-14-16.4-29.1-24.3-43.7c-3.9-7.3-7-15-10.5-22.5c-3.4-7.6-6.9-15.1-10.1-22.7c-5.8-15.4-11.9-30.8-17.3-46.3l-14.8-46.9
						c-2.2-7.1,1.7-14.7,8.8-17c6.9-2.2,14.3,1.5,16.8,8.2l0.3,0.7l16.4,44.9c6,14.7,12.5,29.2,18.7,43.8
						c3.4,7.1,7.1,14.1,10.6,21.2c3.7,7,6.9,14.2,10.9,21c8.2,13.4,15.4,27.4,24.7,39.9l6.6,9.6c2.2,3.2,4.3,6.5,6.8,9.4l14.4,18.1
						c5,5.8,10.4,11.3,15.5,17c2.5,2.9,5.3,5.4,8.1,8l8.3,7.7c2.7,2.7,5.7,4.9,8.6,7.3l8.8,7c3,2.3,6.1,4.2,9.1,6.3
						c3.1,2.1,6.1,4.3,9.3,5.9c3.2,1.8,6.3,3.7,9.4,5.4l9.6,4.6c3.2,1.2,6.4,2.6,9.6,3.6l4.6,1.4l2,0.5l1,0.2c0.1,0,0.2,0,0.2,0
						l3.4,1c11.8,3.4,18.5,15.8,15.1,27.5C2590.1,2463.9,2578.6,2470.5,2567.3,2468.1z"/>
				</g>
			</g>
            <g>
				<g>
					<path class="st0" d="M1494.4,2352.7c6.1-37.2,13.5-73.1,21.6-109.3c8.2-36.1,17.3-71.9,27.3-107.6
						c10-35.6,21.4-70.9,33.7-105.8c12.5-34.9,26.7-69.3,42.2-103c3-6.5,10.6-9.3,17.1-6.3c6.3,2.9,9.1,10.2,6.5,16.5l-0.1,0.3
						c-13.7,33.5-26.1,67.5-36.8,102.1c-10.6,34.7-20.3,69.7-28.5,105c-8.3,35.3-15.8,70.9-22.3,106.7
						c-6.4,35.6-12.2,71.9-16.5,107.2l0,0.4c-1.5,12.2-12.6,21-24.8,19.5c-12.2-1.5-21-12.6-19.5-24.8
						C1494.3,2353.3,1494.4,2353,1494.4,2352.7z"/>
				</g>
			</g>
            <g>
				<g>
					<path class="st3" d="M1505.1,2287.2c9.8-36.5,20.6-72.5,32.3-108.3c2.2-6.8,9.5-10.5,16.3-8.2c6.1,2,9.7,8.1,8.7,14.2
						c-5.5,36.7-10,73.5-13.4,110.3c-1.2,12.3-12.1,21.4-24.4,20.2c-12.3-1.2-21.4-12.1-20.2-24.4c0.1-1.2,0.3-2.4,0.6-3.6
						L1505.1,2287.2z"/>
				</g>
			</g>
            <g>
				<g>
					<path class="st0" d="M1230.2,2340.4c-1.4-37.6-0.6-75.4,4.1-113.2c4.7-37.7,12.7-75.4,26.1-111.8c13.3-36.3,32-71.2,57.1-101.9
						c12.6-15.3,26.6-29.5,42.2-41.9c7.8-6.3,16.1-12,24.7-17.4c4.3-2.7,8.8-5.2,13.4-7.6c2.3-1.2,4.7-2.3,7.2-3.4l3.8-1.6l2-0.8
						l2.6-0.9l0,0l2.3-0.8c11.1-3.9,23.2,2,27.1,13.1c2.1,6.2,1.2,12.8-1.9,18c-1,1.7-2.4,4.5-3.6,6.9l-3.6,7.7
						c-2.4,5.2-4.6,10.5-6.8,15.8c-4.4,10.7-8.4,21.7-12.2,32.8c-3.8,11.1-7.3,22.4-10.6,33.7c-3.3,11.3-6.3,22.8-9.2,34.3l0,0.1
						c-1.4,5.6-7.1,9.1-12.7,7.6c-5.1-1.3-8.3-6-7.9-11c1-12.1,2.1-24.2,3.5-36.3c1.4-12.1,3.1-24.2,5.1-36.4
						c2-12.1,4.3-24.2,7-36.4c1.4-6.1,2.8-12.1,4.5-18.2l2.6-9.2c1-3.2,1.8-5.9,3.2-9.8l27.5,30.3l-1.8,0.7l-2.5,1.1
						c-1.7,0.7-3.5,1.6-5.2,2.5c-3.5,1.8-7,3.8-10.5,5.9c-6.9,4.3-13.7,8.9-20.2,14.2c-13,10.3-24.8,22.3-35.5,35.3
						c-21.3,26.1-37.8,56.6-49.7,89c-12,32.4-19.3,66.8-23.7,101.7c-4.3,34.9-5.1,70.5-3.8,106.1l0,0.1c0.5,12.3-9.2,22.7-21.5,23.1
						C1241,2362.3,1230.7,2352.7,1230.2,2340.4z"/>
				</g>
			</g>
            <g>
				<g>
					<path class="st0" d="M2632.5,2471.2c-6.9,0-13.7-3.2-18.1-9.2c-95.8-132.5-72.3-251.8-35.8-328.5c38.9-81.7,99.5-132,102-134.1
						c9.5-7.8,23.6-6.4,31.4,3.1c7.8,9.5,6.4,23.6-3.1,31.4c-0.8,0.6-56.3,47.1-90.7,120.1c-44.9,95.4-34,190.2,32.3,281.9
						c7.2,10,5,24-5,31.2C2641.6,2469.8,2637,2471.2,2632.5,2471.2z"/>
				</g>
			</g>
            <g>
				<g>
					<path class="st0" d="M2772.2,2323.5c-2.3-5.7-3.9-10.5-5.6-15.7c-1.6-5.1-3.2-10.1-4.6-15.2c-2.9-10.1-5.5-20.3-7.8-30.5
						c-4.6-20.4-8.1-40.8-10.6-61.2c-0.3-2.9,1.7-5.5,4.6-5.8c2.4-0.3,4.6,1.1,5.5,3.2l0,0c7.9,18.6,16.7,36.7,26.3,54.2
						c4.8,8.7,9.9,17.3,15.1,25.6c2.6,4.2,5.3,8.3,8,12.3c2.7,3.9,5.6,8.2,8.1,11.3c7.8,9.7,6.3,24-3.5,31.8
						c-9.7,7.8-24,6.3-31.8-3.5c-1.4-1.7-2.5-3.6-3.3-5.6L2772.2,2323.5z"/>
				</g>
			</g>
            <g>
				<g>
					<path class="st0" d="M3056.2,2106.9c0,2-0.1,2.9-0.2,4.2l-0.4,3.5c-0.3,2.3-0.6,4.5-1,6.7c-0.8,4.4-1.8,8.8-3,13
						c-2.4,8.5-5.6,16.8-9.9,24.7c-8.3,15.7-20.7,29.7-35.6,39.1c-7.4,4.7-15.3,8.3-23.3,11.1c-8,2.5-16.1,4.5-24.2,5.3
						c-16.1,2.1-31.9,1.3-47.2-0.8c-3.9-0.5-6.6-4.1-6.1-8c0.5-3.5,3.4-6,6.8-6.1l0.1,0c14.5-0.5,28.9-2.3,42-6.4
						c6.6-1.9,12.8-4.7,18.7-7.6c5.7-3.2,11-6.9,15.6-11c9.2-8.4,15.6-18.9,19.4-30.5c1.9-5.8,3.1-11.8,3.7-17.9
						c0.3-3,0.5-6.1,0.5-9.1c0-1.5,0-3-0.1-4.4l-0.2-2.1c-0.1-0.5-0.2-1.5-0.2-1.4c-0.6-12.3,8.8-22.8,21.2-23.4
						C3045.1,2085.2,3055.6,2094.6,3056.2,2106.9z"/>
				</g>
			</g>
            <g>
				<g>
					<path class="st0" d="M1997.4,3536.2c-11.9-29.4-18-63.2-12.3-97.3c2.9-16.9,8.7-33.7,17.7-48.8c4.6-7.5,9.8-14.7,16-21.3
						c3.3-3.4,6.1-6.5,11.3-10.3c3.8-2.7,7.3-4.8,10.9-6.9c28.4-16.2,59.4-25.4,90.8-28c31.4-2.7,62.9,1.8,91.4,12.4
						c4.4,1.6,6.6,6.5,5,10.9c-1.4,3.7-5.1,5.9-8.8,5.5l-0.1,0c-28.3-3-56.1-1.9-82.5,4.3c-13.2,3.1-25.9,7.3-38.2,12.6
						c-12.1,5.5-23.9,11.7-34.4,19.1c-2.5,1.8-5.2,3.8-7.2,5.5c-0.6,0.6-2.8,2.8-4.4,4.9c-3.5,4.3-6.6,9.2-9.3,14.3
						c-5.4,10.3-9,21.7-10.7,33.5c-3.6,23.8-0.1,49.4,7,75l0.1,0.3c3.3,11.9-3.8,24.2-15.7,27.5
						C2013,3552.4,2001.6,3546.5,1997.4,3536.2z"/>
				</g>
			</g>
            <g>
				<g>
					<path class="st0" d="M1559.1,3302.8c1.5-0.3,2.6-0.4,3.7-0.6c1.1-0.2,2.2-0.3,3.3-0.4c2.1-0.2,4.3-0.5,6.4-0.6
						c4.2-0.4,8.4-0.6,12.5-0.7c8.3-0.3,16.5-0.1,24.7,0.3c16.3,0.9,32.5,3.4,48.3,7.2c7.9,1.7,15.6,4.4,23.3,6.7
						c7.5,3,15.2,5.5,22.4,9.2c14.7,6.5,28.2,15.3,41.1,24.3c3.6,2.5,4.5,7.5,1.9,11.1c-2.3,3.2-6.6,4.3-10,2.6l-0.5-0.2
						c-13.3-6.5-26.6-12.5-40.7-16.2c-6.9-2.3-14.1-3.4-21.1-5c-7.2-1-14.2-2.3-21.4-2.7c-14.3-1.2-28.6-1.1-42.7,0.4
						c-7.1,0.7-14.1,1.7-20.9,3c-3.4,0.7-6.8,1.4-10.1,2.2c-1.7,0.4-3.3,0.8-4.9,1.3c-0.8,0.2-1.6,0.4-2.3,0.7
						c-0.7,0.2-1.6,0.5-1.9,0.6c-11.2,5.6-24.8,1.1-30.5-10.1c-5.6-11.2-1.1-24.8,10.1-30.5c1.8-0.9,3.7-1.6,5.6-2L1559.1,3302.8z"
                    />
				</g>
			</g>
            <g>
				<g>
					<path class="st0" d="M2284.4,3216.8c-117.4,0-209.4-18.7-215.7-20c-12.1-2.5-19.8-14.3-17.3-26.4c2.5-12.1,14.4-19.8,26.4-17.3
						c2.5,0.5,249.1,50.5,445.1-14.9c11.7-3.9,24.3,2.4,28.2,14.1c3.9,11.7-2.4,24.3-14.1,28.2
						C2453.6,3208.3,2363.2,3216.8,2284.4,3216.8z"/>
				</g>
			</g>
            <g>
				<g>
					<path class="st0" d="M1769.4,3223.3c-119.4,0-219.5-31.2-226.2-33.4c-11.7-3.8-18.2-16.3-14.5-28.1c3.7-11.7,16.3-18.2,28-14.5
						l0,0c2.5,0.8,250.7,78,420-14.8c10.8-5.9,24.4-2,30.3,8.8c5.9,10.8,2,24.4-8.8,30.3C1926.5,3211,1844.1,3223.3,1769.4,3223.3z"
                    />
				</g>
			</g>
            <g>
				<g>
					<path class="st0" d="M2023.5,2995.1c-9.1,0-17.6-5.6-21-14.6l-48-131c-4.2-11.6,1.7-24.4,13.3-28.6
						c11.6-4.2,24.4,1.7,28.6,13.3l48,131c4.2,11.6-1.7,24.4-13.3,28.6C2028.6,2994.7,2026,2995.1,2023.5,2995.1z"/>
				</g>
			</g>
            <g>
				<g>
					<path class="st0" d="M1630.6,2714.6c9.7,6.4,20.7,12.8,31.4,18.7c10.9,5.8,21.8,11.6,32.9,16.8c22.2,10.6,45.1,19.8,68.2,28.1
						c5.8,2.1,11.6,4.1,17.4,5.9c5.8,1.9,11.7,3.7,17.6,5.4c11.7,3.6,23.6,6.6,35.5,9.5c23.8,5.6,47.9,10,72.1,13
						c12.1,1.7,24.3,2.4,36.4,3.6c12.2,0.6,24.4,1.6,36.6,1.5c6.1,0,12.2,0.2,18.3,0.1l18.3-0.3c6.1,0,12.2-0.6,18.3-0.9
						c6.1-0.4,12.2-0.6,18.3-1.2c48.9-4.1,97.5-13,146-24.8l0.1,0c5.8-1.4,11.6,2.2,13,8c1.3,5.2-1.4,10.4-6.1,12.4
						c-47.1,20.7-97.4,34.5-148.9,41.9c-25.8,3.2-51.8,5.7-77.8,5.4c-13,0.3-26-0.6-39.1-1.1c-13-1-26-2.1-38.9-4
						c-25.8-3.5-51.5-8.2-76.6-15.3c-12.5-3.5-25-7.2-37.3-11.4c-6.2-2-12.2-4.4-18.3-6.7c-6.1-2.2-12.1-4.7-18.1-7.2
						c-24-9.9-47.2-21.7-69.5-34.9c-11.1-6.7-22.1-13.6-32.6-21.2c-10.7-7.6-20.7-15.3-30.8-24.5c-4.3-3.9-4.7-10.6-0.8-15
						c3.6-4,9.4-4.6,13.7-1.7L1630.6,2714.6z"/>
				</g>
			</g>
            <g>
				<g>
					<g>
						<path class="st2" d="M2531.5,2429.2c-27.1,2.2-53.1,3.1-77.6,3.1c-130.2,0-221.2-25.7-226.2-27.2
							c-29.6-8.6-46.7-39.5-38.1-69.2c8.5-29.6,39.5-46.6,69-38.1c1.7,0.5,69.2,19.1,167.8,22.3
							C2465.2,2380.9,2504,2412.7,2531.5,2429.2z"/>
					</g>
				</g>
			</g>
            <g>
				<g>
					<g>
						<path class="st0" d="M2453.9,2454.6c-134.7,0-228.5-26.9-232.5-28.1c-20-5.8-36.6-19.1-46.7-37.3
							c-10.1-18.3-12.4-39.4-6.6-59.5c11.9-41.3,55.3-65.2,96.6-53.4c0.6,0.2,65.8,18.4,162.4,21.5c7.4,0.2,14.1,4.1,18.1,10.3
							c37.1,58.2,73.6,87.5,97.7,101.9c8.3,5,12.5,14.8,10.3,24.2c-2.2,9.5-10.3,16.4-20,17.2
							C2507.4,2453.5,2480.7,2454.6,2453.9,2454.6z M2243.2,2317.9c-14.5,0-28,9.5-32.2,24.2c-2.5,8.6-1.5,17.7,2.8,25.5
							c4.3,7.8,11.4,13.5,20.1,16c0.9,0.3,91.6,26.3,220,26.3c5.5,0,10.9,0,16.4-0.1c-17.7-17-37-39.1-56.2-67.8
							c-96-4.3-161-22.6-161.7-22.7C2249.3,2318.4,2246.2,2317.9,2243.2,2317.9z"/>
					</g>
				</g>
			</g>
            <g>
				<g>
					<g>
						<g>
							<path class="st0" d="M1569,2170.1c1.9,6.1,2.6,14.4,1.2,21.5l-0.5,2.6l-0.3,1.2l-0.5,1.7l-1,3.3c-1.3,4.4-2.5,8.9-3.7,13.3
								l-7,26.8c-2.3,8.9-4.4,17.9-6.5,26.9c-2,9-4.1,18-5.9,27l-0.2,1.1c-1.9,9.3-10.9,15.3-20.2,13.4c-0.3-0.1-0.7-0.2-1.1-0.3
								l-13.5-3.7l-6.8-1.8l-3.4-0.9c-1.2-0.3-2.7-0.9-4.1-1.4c-11-4-21.1-10.6-28.9-19.2c-16-17-22.6-42-17.7-64.6
								c2.4-11.2,7.5-22,14.9-30.9c7.4-8.9,16.9-15.8,27.4-20.5c10.6-4.6,22.1-7.2,34-7.2c2.9,0.2,6,0.1,8.8,0.5
								c3,0.4,5.1,0.5,9.9,1.5C1552.4,2162.1,1561.4,2165.9,1569,2170.1z M1531,2193.6c-1.1,2.1-0.8,3.7-1,3.3
								c0.4-0.1-1.9-1-3.2-1.6c-1.5-0.7-2.9-1-4.4-1.5c-6-1.4-12.5-0.9-18.5,1.4c-5.9,2.4-11.1,6.5-15.2,11.3
								c-4,4.9-6.7,10.8-8,17.1c-2.7,12.4,1.5,25.9,10.4,34.8c4.3,4.5,9.8,7.8,15.7,9.6c0.8,0.2,1.3,0.5,2.3,0.7l3.1,0.7l6.3,1.4
								l12.5,2.8l-21.5,14.3l4.4-27.8l4.6-27.8l4.8-27.8l2.5-13.9l0.6-3.5l0.3-1.7l0.1-0.4c0-0.2,0.1-0.3,0-0.1
								c-0.1,0.3-0.1,0.6-0.1,0.9C1526.3,2188.3,1528.1,2192,1531,2193.6z"/>
						</g>
					</g>
				</g>
			</g>
            <g>
				<g>
					<path class="st0" d="M1029.9,1917.4c0.9-1,1.4-1.6,2-2.2c0.6-0.6,1.2-1.2,1.7-1.7c1.1-1,2.2-2.1,3.3-3.1c2.2-2,4.4-3.8,6.7-5.5
						c4.5-3.5,9.3-6.5,14.2-9.4c9.9-5.6,20.6-9.7,31.5-12c11-2.3,22.2-3,33-1.5c5.4,0.4,10.6,1.9,15.7,3.1c5.1,1.3,9.9,3.5,14.7,5.2
						c4.5,1.6,6.9,6.6,5.3,11.1c-1.4,3.8-5.1,6.1-9,5.8l-1.6-0.1c-4.4-0.4-8.7-1.3-13-1.3c-4.3,0-8.5-0.2-12.6,0.6
						c-8.2,0.8-16,3.3-23.1,6.8c-7.1,3.4-13.6,8-19.3,13.4c-2.8,2.8-5.5,5.6-7.9,8.6c-1.2,1.5-2.3,3-3.4,4.6c-0.6,0.8-1,1.5-1.4,2.2
						c-0.3,0.4-0.4,0.7-0.6,1c-0.2,0.3-0.4,0.7-0.2,0.6c-7.2,10-21.2,12.2-31.2,5C1024.9,1941.3,1022.7,1927.4,1029.9,1917.4z"/>
				</g>
			</g>
            <g class="st1">
				<g>
					<path class="st0" d="M1580.4,2053.4c-41.2,46.1-93.3,82.2-150.9,104.6c-29.5,11.5-62.2,19.4-92.5,10.6
						c-30.4-8.8-56.2-39.2-52.5-71.1c-43-10.3-81.4-37.1-107.3-72.9c-19.6-27-54.9-36.9-85.8-24.3c-65.1,26.6-136.9,37.2-206.9,29.8
						c12.1,33,40.2,59.7,73.7,70.2c33.5,10.5,71.8,4.7,100.6-15.4c27.3,93.4,92,175.4,176.6,223.6s188,62.3,281.9,33.8
						C1542.6,2246.2,1563.1,2148.8,1580.4,2053.4z"/>
				</g>
			</g>
            <g>
				<g>
					<g>
						<path class="st2" d="M2154.2,2559.4l-565.2-77.7c-38.9-5.3-66.1-41.2-60.8-80.1l45.3-329.7c5.3-38.9,41.2-66.1,80.1-60.8
							l565.2,77.7c38.9,5.3,66.1,41.2,60.8,80.1l-45.3,329.7C2229,2537.6,2193.1,2564.8,2154.2,2559.4z"/>
					</g>
				</g>
                <g>
					<g>
						<path class="st0" d="M2163.9,2582.4c-4.2,0-8.5-0.3-12.8-0.9l-565.2-77.7c-51-7-86.9-54.2-79.9-105.3l45.3-329.7
							c7-51,54.2-86.8,105.3-79.9l565.2,77.7c51,7,86.9,54.2,79.9,105.3l-45.3,329.7C2250,2548.4,2209.9,2582.4,2163.9,2582.4z
							 M1643.9,2032.9c-24,0-45,17.7-48.3,42.2l-45.3,329.7c-3.7,26.7,15,51.3,41.7,55l565.2,77.7l0,0c26.6,3.7,51.3-15,55-41.7
							l45.3-329.7c3.7-26.7-15-51.3-41.7-55l-565.2-77.7C1648.3,2033,1646.1,2032.9,1643.9,2032.9z"/>
					</g>
				</g>
                <g>
					<g>
						<path class="st0" d="M2061,2568.3c-4.3,0-8.6-0.3-12.9-0.9l-462.2-63.5c-51-7-86.9-54.2-79.9-105.3l45.3-329.7
							c7-51,54.2-86.8,105.3-79.9l462.2,63.5c51,7,86.9,54.2,79.9,105.3l-45.3,329.7c-3.4,24.7-16.2,46.7-36.1,61.7
							C2100.8,2561.7,2081.2,2568.3,2061,2568.3z M1643.9,2032.9c-24,0-45,17.7-48.3,42.2l-45.3,329.7c-3.7,26.7,15,51.3,41.7,55
							l462.2,63.5l0,0c12.9,1.8,25.7-1.6,36.1-9.5c10.4-7.9,17.1-19.3,18.9-32.2l45.3-329.7c3.7-26.7-15-51.3-41.7-55l-462.1-63.5
							C1648.3,2033,1646.1,2032.9,1643.9,2032.9z"/>
					</g>
				</g>
                <g>
					<g>
						
							<ellipse transform="matrix(0.7071 -0.7071 0.7071 0.7071 -1007.3287 2073.6714)" class="st4"
                                     cx="1999.5" cy="2252.8" rx="76.5" ry="76.5"/>
					</g>
				</g>
                <g class="st5">
					<g>
						<path class="st2" d="M2006.8,2219.1c30.2,0,56.2,17.5,68.7,42.9c0.4-3,0.6-6,0.6-9.1c0-42.3-34.3-76.5-76.5-76.5
							c-42.3,0-76.5,34.3-76.5,76.5c0,12.1,2.9,23.5,7.9,33.7C1935.3,2248.5,1967.6,2219.1,2006.8,2219.1z"/>
					</g>
				</g>
                <g>
					<g>
						<path class="st0" d="M1999.5,2351.7c-54.5,0-98.9-44.4-98.9-98.9c0-54.5,44.4-98.9,98.9-98.9c54.5,0,98.9,44.4,98.9,98.9
							C2098.3,2307.3,2054,2351.7,1999.5,2351.7z M1999.5,2198.6c-29.9,0-54.2,24.3-54.2,54.2c0,29.9,24.3,54.2,54.2,54.2
							c29.9,0,54.2-24.3,54.2-54.2C2053.7,2222.9,2029.4,2198.6,1999.5,2198.6z"/>
					</g>
				</g>
                <g>
					<g>
						<path class="st0" d="M1796.9,2519.9c-0.9,0-1.8-0.1-2.7-0.2c-12.2-1.5-21-12.6-19.5-24.8l17.4-144.8
							c1.8-14.7-3.9-29.2-15.1-38.8l-33.6-28.8c-22.4-19.2-33.7-48.1-30.5-77.4l20.5-182.3c1.4-12.3,12.4-21,24.7-19.7
							c12.3,1.4,21.1,12.4,19.7,24.7l-20.5,182.3c-1.6,14.6,4,29,15.2,38.5l33.6,28.8c22.6,19.4,33.9,48.5,30.4,78.1l-17.4,144.8
							C1817.7,2511.5,1808.1,2519.9,1796.9,2519.9z"/>
					</g>
				</g>
			</g>
            <g class="st1">
				<g>
					<path class="st0" d="M2272.2,2116.5c-13.5,50.5-4.9,103.9-7,156.1c-2.1,52.2-19.6,110-65.8,134.3
						c-31.9,16.8-70.2,13.7-106,10.1c-182.5-18.5-364.6-40.9-546.1-67.2c-28.1,31.3-13.1,84.6,19.7,110.9s76.8,32.9,118.4,38.5
						c143.1,19.3,286.3,38.6,429.4,57.9c25,3.4,52,6.4,73.9-6.2c24.7-14.2,35.4-43.9,43.1-71.3
						C2265,2361.1,2280.1,2237.5,2272.2,2116.5z"/>
				</g>
			</g>
            <g class="st1">
				<g>
					<path class="st0" d="M3033.9,2111.3c0.6,35.9-21.8,71.2-54.6,85.8c-32.8,14.6-74,7.8-100.4-16.6
						c-13.4-12.4-23.2-31.9-16.2-48.7c5.3-12.7,18.4-20.1,31.2-25.2C2939.4,2088.5,2992.1,2089.1,3033.9,2111.3z"/>
				</g>
			</g>
            <g>
				<g>
					<g>
						<path class="st2" d="M2801.5,999.7c0,0,157.9,77,172,108.8c26,59-9.9,388.5-104.1,466.7c-36.9,30.6-287.8,39.4-287.8,39.4
							L2801.5,999.7z"/>
					</g>
				</g>
                <g>
					<g>
						<path class="st6" d="M2581.6,1614.6c0,0,251-8.8,287.8-39.4c36.7-30.5,64.6-99.4,83.4-175.4c-3,2.2-97.5,69.8-258.3-99.9
							c-0.1-0.1-0.2-0.2-0.3-0.3L2581.6,1614.6z"/>
					</g>
				</g>
                <g>
					<g>
						<polygon class="st7"
                                 points="2060.7,1279.3 2060.4,1282.1 2058.8,1280.5 						"/>
					</g>
				</g>
                <g>
					<g>
						<polygon class="st7"
                                 points="2058.8,1280.5 2056.8,1281.8 2057.1,1278.9 						"/>
					</g>
				</g>
                <g>
					<g>
						<path class="st2" d="M1492.4,1515c0,0-245.2-54.2-275.9-91c-30.6-36.6-45.5-109.4-50.2-187.7c0,0,0,0,0,0
							c-7.3-122.1,10.4-257.6,32.6-290.1c19.6-28.8,188.9-75.8,188.9-75.8l51,314.4L1492.4,1515z"/>
					</g>
				</g>
                <g>
					<g>
						<path class="st7" d="M1492.4,1515c0,0-245.2-54.2-275.9-91c-30.6-36.6-45.5-109.4-50.2-187.7c2.5,2.7,83.2,86.4,272.1-51.4
							c0.1-0.1,0.2-0.2,0.3-0.2L1492.4,1515z"/>
					</g>
				</g>
                <g>
					<g>
						<path class="st0" d="M2581.6,1636.9c-7.1,0-13.8-3.4-18-9.2c-4.4-6-5.5-13.7-3-20.7l219.9-614.9c2.1-6,6.7-10.8,12.6-13.2
							c5.9-2.4,12.5-2.2,18.2,0.6c49.7,24.2,167,84.4,182.6,119.9c29.2,66.1-6.5,406.8-110.2,492.9
							c-39.6,32.9-240.6,42.4-301.3,44.5C2582.1,1636.9,2581.9,1636.9,2581.6,1636.9z M2814.1,1030.9l-200.3,560
							c108.7-5.4,224-18.4,241.4-32.9c36.2-30.1,69.6-115,89.4-227.2c19.1-108.5,17.2-193.6,8.5-213.3
							C2945,1103.5,2878.6,1063.8,2814.1,1030.9z"/>
					</g>
				</g>
                <g>
					<g>
						<path class="st0" d="M1492.4,1537.3c-1.6,0-3.2-0.2-4.8-0.5c-59.3-13.1-255.2-58.9-288.2-98.5c-86.3-103.5-59.6-445-19-504.7
							c21.8-32,148.1-69.9,201.4-84.8c6.1-1.7,12.7-0.7,18,2.7c5.3,3.4,9,9,10,15.2l104.7,644.6c1.2,7.3-1.3,14.7-6.7,19.8
							C1503.6,1535.1,1498.1,1537.3,1492.4,1537.3z M1369.7,898.7c-69.4,20.6-142,47.6-152.6,60.3c-11.9,17.5-29.2,100.8-30.1,211
							c-1,113.9,16.5,203.5,46.6,239.7c14.5,17.3,125.5,51.1,231.4,76.1L1369.7,898.7z"/>
					</g>
				</g>
                <g>
					<g>
						<circle class="st2" cx="2075.6" cy="1141.8" r="761.8"/>
					</g>
				</g>
                <g>
					<g>
						<path class="st7" d="M2834.3,1211.2c-38.3,419-409,727.5-828,689.2c-419-38.3-727.6-409.1-689.3-828
							c4-44.2,11.8-87.3,23-128.7c28.9,362.8,315.3,662.9,690,697.2c374.7,34.3,710.8-208.9,805.1-560.4
							C2838.5,1123.3,2838.3,1167,2834.3,1211.2z"/>
					</g>
				</g>
                <g>
					<g>
						<path class="st0" d="M2077,1922c-24,0-48.2-1.1-72.5-3.3c-207.5-19-395.2-117.6-528.5-277.8
							c-133.3-160.2-196.3-362.6-177.3-570.1c19-207.5,117.6-395.2,277.8-528.5C1736.7,409,1939.2,346,2146.7,365
							c207.5,19,395.2,117.6,528.5,277.8s196.3,362.6,177.3,570.1c-19,207.5-117.6,395.2-277.8,528.5
							C2433.3,1859.1,2258.8,1922,2077,1922z M2074.3,398.3c-173.3,0-339.5,59.9-474.3,172.1c-152.6,127.1-246.7,305.9-264.8,503.7
							c-18.1,197.8,41.9,390.7,169,543.4s305.9,246.7,503.7,264.8c197.8,18.1,390.7-41.9,543.4-169
							c152.6-127.1,246.7-305.9,264.8-503.7l18.2,1.7l-18.2-1.7c18.1-197.8-41.9-390.8-169-543.4
							c-127-152.6-305.9-246.7-503.7-264.8C2120.3,399.3,2097.2,398.3,2074.3,398.3z"/>
					</g>
				</g>
                <g>
					<g>
						<path class="st0" d="M2077,1922c-24,0-48.2-1.1-72.5-3.3c-207.5-19-395.2-117.6-528.5-277.8
							c-133.3-160.2-196.3-362.6-177.3-570.1c19-207.5,117.6-395.2,277.8-528.5C1736.7,409,1939.2,346,2146.7,365
							c207.5,19,395.2,117.6,528.5,277.8s196.3,362.6,177.3,570.1c-19,207.5-117.6,395.2-277.8,528.5
							C2433.3,1859.1,2258.8,1922,2077,1922z M2074.3,398.3c-173.3,0-339.5,59.9-474.3,172.1c-152.6,127.1-246.7,305.9-264.8,503.7
							c-18.1,197.8,41.9,390.7,169,543.4s305.9,246.7,503.7,264.8c197.8,18.1,390.7-41.9,543.4-169
							c152.6-127.1,246.7-305.9,264.8-503.7l18.2,1.7l-18.2-1.7c18.1-197.8-41.9-390.8-169-543.4
							c-127-152.6-305.9-246.7-503.7-264.8C2120.3,399.3,2097.2,398.3,2074.3,398.3z"/>
					</g>
				</g>
                <g>
					<g>
						<path class="st0" d="M2077,1922c-24,0-48.2-1.1-72.5-3.3c-207.5-19-395.2-117.6-528.5-277.8
							c-133.3-160.2-196.3-362.6-177.3-570.1c19-207.5,117.6-395.2,277.8-528.5C1736.7,409,1939.2,346,2146.7,365
							c207.5,19,395.2,117.6,528.5,277.8s196.3,362.6,177.3,570.1c-19,207.5-117.6,395.2-277.8,528.5
							C2433.3,1859.1,2258.8,1922,2077,1922z M2074.3,398.3c-173.3,0-339.5,59.9-474.3,172.1c-152.6,127.1-246.7,305.9-264.8,503.7
							c-18.1,197.8,41.9,390.7,169,543.4s305.9,246.7,503.7,264.8c197.8,18.1,390.7-41.9,543.4-169
							c152.6-127.1,246.7-305.9,264.8-503.7l18.2,1.7l-18.2-1.7c18.1-197.8-41.9-390.8-169-543.4
							c-127-152.6-305.9-246.7-503.7-264.8C2120.3,399.3,2097.2,398.3,2074.3,398.3z"/>
					</g>
				</g>
                <g>
					<g>
						<path class="st0" d="M2076.2,1926c-23.9,0-47.9-1.1-72-3.3c-355.7-32.5-644.3-300.9-702.3-652.8c-0.1-0.5-0.2-1-0.3-1.5
							c-10.6-64.9-12.9-131.6-6.9-198c2.7-29.5,7-58.7,12.9-87c80.1-391.2,441-658.8,839.4-622.4
							c398.5,36.5,704.8,365.2,712.5,764.7c0.6,29-0.5,58.4-3.1,87.6l0,0c-6.1,66.4-20.4,131.5-42.6,193.5c-0.2,0.5-0.4,1-0.6,1.4
							C2700.6,1721,2404,1926,2076.2,1926z M1345.8,1261.6c54.2,332.3,326.6,585.9,662.4,616.6c335.8,30.7,649.7-169.2,763.4-486.2
							c0.2-0.6,0.4-1.1,0.6-1.6c20.7-58.1,34-119,39.7-181.2l0,0c2.5-27.5,3.5-55.3,2.9-82.7c-7.3-376.7-296.2-686.7-672-721.1
							c-375.7-34.4-716,218-791.6,587c-5.6,26.7-9.7,54.3-12.2,82.1c-5.7,62.2-3.6,124.6,6.2,185.4
							C1345.6,1260.4,1345.7,1261,1345.8,1261.6z M2834.2,1211.3L2834.2,1211.3L2834.2,1211.3z"/>
					</g>
				</g>
                <g>
					<g>
						<path class="st0" d="M2826,1028.2c-7.7,0-14.9-5-17.4-12.6c-94.4-289.2-358.8-494.6-673.6-523.4
							c-314.5-28.8-611.8,125.1-757.2,392.1c-4.6,8.4-14.9,11.9-23.7,7.9c-8.7-4-12.9-14-9.6-23C1467,540.3,1796.8,333,2146.7,365
							c350.1,32,636.9,295.9,697.3,641.7c1.7,9.5-4.3,18.6-13.6,20.9C2829,1028,2827.5,1028.2,2826,1028.2z M2060,452.1
							c26,0,52.1,1.2,78.4,3.6c236.4,21.6,445.7,138.7,581.6,315.1c-118.3-204.8-331.1-346.9-576.6-369.4
							C1898,379,1662.9,480,1509.4,659.9C1656.7,527.7,1852.4,452.1,2060,452.1z"/>
					</g>
				</g>
                <g>
					<g>
						<path class="st0" d="M2834.2,1211.3c-6,65.7-20.2,128.7-41.4,188c0,0-0.1,0-0.1,0.1c-154.9,242.2-454.4,435.4-777.8,405.8
							c-323.5-29.6-582.9-273.9-691.2-540.2c0-0.1-0.1-0.1-0.1-0.1c-10.2-62.2-12.7-126.7-6.7-192.4c2.6-28.7,6.8-56.9,12.6-84.5
							c128.2-273.8,445.8-451.4,798.5-419.1c352.8,32.3,632.9,264.6,709.2,557.2C2837.8,1154.2,2836.8,1182.6,2834.2,1211.3z"/>
					</g>
				</g>
                <g class="st8">
					<g>
						<path class="st9" d="M2834.2,1211.3c-6,65.7-20.2,128.7-41.4,188c0,0-0.1,0-0.1,0.1c-154.9,242.2-454.4,435.4-777.8,405.8
							c-323.5-29.6-582.9-273.9-691.2-540.2c0-0.1-0.1-0.1-0.1-0.1c-6-37-9.4-74.9-9.8-113.4c152.6,206.7,387.2,368.3,662.5,393.5
							c350.8,32.1,676.9-165.6,859.8-422.6c0.4,1.3,0.7,2.5,1.1,3.8C2837.9,1154.2,2836.9,1182.7,2834.2,1211.3z"/>
					</g>
				</g>
                <g>
					<g>
						<path class="st0" d="M2080.4,1826.4c-22.5,0-44.9-1-67.2-3.1c-155.6-14.2-306.5-78.4-436.3-185.5
							c-117.5-97-213.3-226.6-269.9-365.2c-0.7-1.5-1.3-3.2-1.5-4.9c-10.6-64.6-12.9-130.9-6.8-197c2.7-29.3,7-58.4,12.9-86.6
							c0.3-1.4,0.7-2.7,1.3-4c65.4-139.6,177.1-254.7,323-332.7c148.4-79.3,319.1-112.8,493.7-96.9c174.6,16,336.5,79.9,468,184.9
							c129.3,103.2,218.3,236.7,257.2,385.9c0.4,1.4,0.6,2.8,0.6,4.2c0.6,28.9-0.5,58.2-3.1,87.2v0c-6,66-20.3,130.8-42.4,192.5
							c-0.6,1.7-1.4,3.2-2.4,4.6c-80.8,126-198.5,236.1-331.7,310.1C2350,1790.2,2214.5,1826.4,2080.4,1826.4z M1341.4,1259.7
							c98.7,241,345.4,497,675.2,527.2c329.8,30.2,619-176.8,759.7-395.9c20.6-58.2,34-119.2,39.7-181.4v0c2.5-26.9,3.5-54.2,3-81
							c-77.6-293.2-355.6-510.7-692.6-541.6c-337-30.8-649.8,132.5-779.3,406.7c-5.4,26.1-9.3,53.1-11.8,80.3
							C1329.5,1136.4,1331.6,1198.9,1341.4,1259.7z"/>
					</g>
				</g>
                <g class="st10">
					<g>
						
							<ellipse transform="matrix(0.2476 -0.9689 0.9689 0.2476 828.7166 3430.76)" class="st2"
                                     cx="2623.3" cy="1181.8" rx="133.8" ry="97"/>
					</g>
				</g>
                <g class="st10">
					<g>
						
							<ellipse transform="matrix(0.3791 -0.9253 0.9253 0.3791 213.0958 3193.114)" class="st2"
                                     cx="2486.1" cy="1437.8" rx="61.4" ry="52.7"/>
					</g>
				</g>
                <g class="st10">
					<g>
						<path class="st2" d="M1465,1314.8c0,0-93.4-393.2,124.8-531.8s516.4-116.7,508.1-98.1c0,0-335.9,56.5-483.6,308.3
							C1500.3,1187.5,1465,1314.8,1465,1314.8z"/>
					</g>
				</g>
			</g>
		</g>
	</g>
</g>
</svg>
